<?xml version="1.0" encoding="utf-8"?>
<!-- Generator: Adobe Illustrator 16.0.0, SVG Export Plug-In . SVG Version: 6.00 Build 0)  -->
<!DOCTYPE svg PUBLIC "-//W3C//DTD SVG 1.1//EN" "http://www.w3.org/Graphics/SVG/1.1/DTD/svg11.dtd">
<svg version="1.1" id="Layer_1" xmlns="http://www.w3.org/2000/svg" xmlns:xlink="http://www.w3.org/1999/xlink" x="0px" y="0px"
	 width="509px" height="46.5px" viewBox="0 0 509 46.5" enable-background="new 0 0 509 46.5" xml:space="preserve">
<g>
	<g>
		<g>
			<g>
				<g>
					<g>
						<g>
							<path fill="#055677" d="M9.767,25.857c-0.648-0.314-1.481-0.35-2.264-0.17c-0.77,0.233-1.488,0.675-1.922,1.236
								c-0.041,0.053-0.057,0.119-0.044,0.183s0.053,0.119,0.109,0.151c0.669,0.367,2.56,1.492,2.56,1.492
								c1.267,0.592,3.146,0.177,4.069-0.859c0.044-0.049,0.064-0.114,0.058-0.178c-0.007-0.065-0.041-0.124-0.094-0.161
								c0,0-0.612-0.425-1.224-0.85C10.391,26.279,9.767,25.857,9.767,25.857z"/>
						</g>
						<path fill="#055677" d="M12.85,24.338c-0.75,0.194-1.381,0.574-1.789,1.031c-0.044,0.05-0.064,0.115-0.056,0.179
							c0.008,0.065,0.043,0.122,0.098,0.158c0,0,0.612,0.412,1.224,0.823c0.599,0.415,1.198,0.83,1.198,0.83"/>
						<path fill="#055677" d="M3.045,30.438c0.944,0.51,2.996,0.175,3.945-1.118c0.039-0.052,0.053-0.118,0.041-0.183
							c-0.012-0.063-0.05-0.118-0.105-0.15c0,0-0.644-0.372-1.288-0.744c-0.659-0.367-1.318-0.734-1.318-0.734
							c-0.728-0.287-1.623-0.222-2.376,0.036"/>
					</g>
				</g>
				<g>
					<g>
						<g>
							<path fill="#055677" d="M20.771,23.632c-1.215-0.826-3.262-0.403-4.264,0.565c-0.047,0.046-0.072,0.11-0.067,0.175
								s0.037,0.125,0.089,0.164c0.593,0.46,2.354,1.825,2.36,1.829c1.176,0.671,3.117,0.502,4.154-0.417
								c0.049-0.043,0.077-0.104,0.077-0.17c0-0.065-0.027-0.127-0.077-0.17L20.771,23.632z"/>
						</g>
						<path fill="#055677" d="M23.987,22.498c-0.762,0.102-1.427,0.402-1.879,0.807c-0.049,0.043-0.077,0.105-0.075,0.17
							c0,0.065,0.03,0.126,0.081,0.168l2.238,1.929"/>
						<path fill="#055677" d="M13.525,27.359c0.842,0.563,2.963,0.565,4.077-0.598c0.045-0.046,0.068-0.11,0.064-0.175
							c-0.004-0.064-0.035-0.124-0.086-0.164L15.188,24.6c-0.678-0.37-1.574-0.485-2.338-0.262"/>
					</g>
				</g>
				<g>
					<g>
						<g>
							<path fill="#055677" d="M31.908,22.499c-1.14-0.84-3.201-0.698-4.284,0.179c-0.051,0.041-0.082,0.102-0.083,0.167
								c-0.001,0.065,0.025,0.128,0.073,0.172c0.55,0.518,2.184,2.057,2.188,2.061c1.126,0.846,3.07,0.673,4.185-0.107
								c0.052-0.039,0.085-0.098,0.09-0.162c0.006-0.065-0.018-0.13-0.063-0.177c0,0-0.523-0.542-1.047-1.085
								C32.437,23.022,31.908,22.499,31.908,22.499z"/>
						</g>
						<path fill="#055677" d="M35.19,21.62c-0.765,0.034-1.447,0.274-1.929,0.636c-0.052,0.039-0.084,0.099-0.088,0.164
							c-0.004,0.064,0.02,0.128,0.067,0.175l2.085,2.119"/>
						<path fill="#055677" d="M24.351,25.572c0.393,0.344,1.119,0.532,1.895,0.499c0.78-0.015,1.618-0.216,2.231-0.732
							c0.05-0.042,0.079-0.102,0.081-0.167c0.001-0.064-0.024-0.126-0.071-0.171l-2.212-2.06c-0.637-0.441-1.506-0.544-2.288-0.443"
							/>
					</g>
				</g>
				<g>
					<g>
						<g>
							<path fill="#055677" d="M43.07,22.165c-1.086-0.911-3.138-0.968-4.276-0.116c-0.054,0.039-0.088,0.099-0.094,0.164
								c-0.006,0.065,0.016,0.129,0.062,0.175c0.26,0.275,0.774,0.797,1.22,1.286c0.445,0.485,0.826,0.901,0.829,0.903
								c1.072,0.913,3.039,0.941,4.194,0.167c0.055-0.037,0.091-0.095,0.1-0.159c0.009-0.064-0.01-0.13-0.053-0.179L43.07,22.165z"
								/>
						</g>
						<path fill="#055677" d="M46.391,21.437c-0.764,0.007-1.457,0.223-1.958,0.568c-0.054,0.037-0.09,0.096-0.098,0.16
							s0.013,0.129,0.057,0.177l1.963,2.191"/>
						<path fill="#055677" d="M35.325,24.712c0.737,0.755,2.85,1.007,4.142,0.033c0.052-0.04,0.085-0.099,0.092-0.164
							c0.006-0.064-0.016-0.128-0.06-0.175l-2.066-2.151c-0.604-0.481-1.459-0.671-2.243-0.636"/>
					</g>
				</g>
				<g>
					<g>
						<g>
							<path fill="#055677" d="M54.219,22.364c-1.042-0.966-3.088-1.033-4.262-0.278c-0.056,0.036-0.093,0.092-0.102,0.157
								s0.01,0.13,0.053,0.179c0.488,0.573,1.938,2.275,1.942,2.28c1.029,0.93,3,1.041,4.188,0.345
								c0.056-0.034,0.095-0.089,0.106-0.154c0.012-0.063-0.005-0.13-0.045-0.181L54.219,22.364z"/>
						</g>
						<path fill="#055677" d="M57.559,21.818c-0.761-0.035-1.46,0.144-1.975,0.461c-0.055,0.034-0.093,0.09-0.104,0.155
							c-0.011,0.064,0.007,0.129,0.049,0.18L57.4,24.91"/>
						<path fill="#055677" d="M46.355,24.533c0.694,0.779,2.802,1.183,4.143,0.29c0.054-0.036,0.09-0.093,0.1-0.157
							c0.009-0.064-0.009-0.129-0.051-0.178l-1.956-2.281c-0.578-0.515-1.417-0.775-2.2-0.769"/>
					</g>
				</g>
				<g>
					<g>
						<g>
							<path fill="#055677" d="M65.336,23.028c-1.01-1-3.041-1.179-4.241-0.46c-0.057,0.034-0.096,0.09-0.108,0.154
								c-0.011,0.064,0.005,0.13,0.046,0.18c0.467,0.593,1.854,2.354,1.858,2.36c0.997,0.991,2.969,1.169,4.18,0.484
								c0.057-0.032,0.098-0.087,0.111-0.151c0.014-0.063-0.001-0.13-0.04-0.182L65.336,23.028z"/>
						</g>
						<path fill="#055677" d="M68.69,22.552c-0.759-0.05-1.463,0.113-1.987,0.419c-0.057,0.033-0.096,0.088-0.109,0.152
							c-0.013,0.063,0.003,0.129,0.043,0.181l1.801,2.333"/>
						<path fill="#055677" d="M57.4,24.91c0.663,0.82,2.761,1.253,4.136,0.409c0.055-0.033,0.093-0.089,0.105-0.153
							c0.012-0.063-0.004-0.129-0.045-0.18l-1.87-2.334c-0.557-0.533-1.387-0.799-2.167-0.834"/>
					</g>
				</g>
				<g>
					<g>
						<g>
							<path fill="#055677" d="M76.423,23.969c-0.985-1.02-3.011-1.223-4.228-0.541c-0.058,0.032-0.098,0.087-0.111,0.15
								c-0.013,0.064,0.001,0.13,0.041,0.182c0.452,0.603,1.793,2.393,1.797,2.398c0.973,1.005,2.945,1.217,4.171,0.58
								c0.058-0.03,0.1-0.084,0.115-0.147c0.015-0.063,0.002-0.131-0.036-0.184L76.423,23.969z"/>
						</g>
						<path fill="#055677" d="M79.781,23.593c-0.756-0.074-1.461,0.068-1.991,0.358c-0.058,0.031-0.099,0.085-0.112,0.149
							c-0.014,0.063,0,0.13,0.039,0.182l1.748,2.39"/>
						<path fill="#055677" d="M68.439,25.638c0.638,0.83,2.727,1.36,4.125,0.556c0.057-0.033,0.096-0.087,0.11-0.151
							c0.013-0.063-0.001-0.129-0.041-0.181l-1.805-2.399c-0.541-0.551-1.359-0.858-2.137-0.91"/>
					</g>
				</g>
				<g>
					<g>
						<g>
							<path fill="#055677" d="M87.478,25.154c-0.967-1.042-2.98-1.304-4.212-0.631c-0.058,0.031-0.1,0.085-0.114,0.149
								c-0.015,0.063-0.001,0.13,0.037,0.182c0.44,0.611,1.748,2.424,1.752,2.43c0.955,1.032,2.926,1.293,4.164,0.66
								c0.059-0.03,0.101-0.083,0.117-0.146s0.004-0.13-0.033-0.184L87.478,25.154z"/>
						</g>
						<path fill="#055677" d="M90.84,24.818c-0.755-0.082-1.462,0.052-1.997,0.336c-0.058,0.031-0.1,0.084-0.114,0.148
							c-0.015,0.063-0.002,0.129,0.036,0.183l1.711,2.407"/>
						<path fill="#055677" d="M79.464,26.672c0.62,0.851,2.703,1.401,4.118,0.619c0.057-0.032,0.098-0.086,0.112-0.149
							c0.014-0.063,0.001-0.129-0.037-0.182l-1.759-2.422c-0.53-0.562-1.343-0.87-2.117-0.945"/>
					</g>
				</g>
				<g>
					<g>
						<g>
							<path fill="#055677" d="M98.51,26.478c-0.956-1.052-2.965-1.319-4.202-0.676c-0.058,0.03-0.101,0.083-0.116,0.147
								c-0.015,0.063-0.002,0.13,0.035,0.183c0.433,0.617,1.718,2.45,1.722,2.456c0.943,1.039,2.915,1.313,4.16,0.693
								c0.059-0.029,0.102-0.082,0.119-0.145s0.005-0.131-0.032-0.185L98.51,26.478z"/>
						</g>
						<path fill="#055677" d="M101.873,26.176c-0.752-0.091-1.459,0.032-1.997,0.312c-0.058,0.03-0.101,0.083-0.116,0.147
							c-0.016,0.063-0.003,0.129,0.035,0.183l1.688,2.429"/>
						<path fill="#055677" d="M90.477,27.893c0.608,0.852,2.687,1.438,4.111,0.684c0.057-0.03,0.099-0.084,0.114-0.147
							c0.015-0.063,0.002-0.129-0.035-0.183l-1.726-2.456c-0.521-0.574-1.329-0.889-2.102-0.973"/>
					</g>
				</g>
				<g>
					<g>
						<g>
							<path fill="#055677" d="M109.525,27.889c-0.948-1.061-2.954-1.337-4.196-0.701c-0.059,0.03-0.101,0.083-0.117,0.146
								c-0.016,0.063-0.003,0.13,0.034,0.184c0.429,0.619,1.702,2.458,1.706,2.464c0.937,1.042,2.911,1.337,4.159,0.722
								c0.059-0.029,0.102-0.082,0.119-0.145s0.006-0.131-0.031-0.185L109.525,27.889z"/>
						</g>
						<path fill="#055677" d="M112.886,27.603c-0.751-0.093-1.459,0.03-1.997,0.307c-0.058,0.03-0.101,0.083-0.116,0.146
							c-0.016,0.063-0.004,0.13,0.034,0.184l1.678,2.434"/>
						<path fill="#055677" d="M101.482,29.247c0.6,0.865,2.678,1.466,4.108,0.717c0.058-0.03,0.1-0.083,0.116-0.146
							c0.015-0.062,0.003-0.129-0.034-0.183l-1.708-2.464c-0.517-0.574-1.32-0.901-2.091-0.994"/>
					</g>
				</g>
				<g>
					<g>
						<g>
							<path fill="#055677" d="M120.53,29.329c-0.949-1.059-2.95-1.34-4.192-0.706c-0.059,0.03-0.101,0.083-0.117,0.146
								c-0.016,0.063-0.004,0.13,0.033,0.183c0.427,0.62,1.698,2.462,1.701,2.468c0.937,1.045,2.913,1.337,4.161,0.723
								c0.059-0.029,0.102-0.082,0.119-0.145c0.017-0.063,0.006-0.131-0.031-0.185L120.53,29.329z"/>
						</g>
						<path fill="#055677" d="M123.889,29.042c-0.751-0.093-1.458,0.03-1.996,0.307c-0.058,0.03-0.101,0.084-0.116,0.146
							c-0.016,0.063-0.004,0.13,0.033,0.184l1.681,2.433"/>
						<path fill="#055677" d="M112.484,30.673c0.598,0.866,2.674,1.473,4.108,0.727c0.058-0.03,0.1-0.083,0.116-0.146
							c0.016-0.062,0.004-0.129-0.033-0.183l-1.702-2.468c-0.515-0.575-1.317-0.904-2.087-1"/>
					</g>
				</g>
				<g>
					<g>
						<g>
							<path fill="#055677" d="M131.532,30.742c-0.953-1.056-2.953-1.33-4.192-0.692c-0.058,0.029-0.101,0.083-0.117,0.146
								c-0.016,0.062-0.003,0.13,0.034,0.183c0.43,0.619,1.707,2.457,1.711,2.463c0.941,1.045,2.921,1.328,4.168,0.699
								c0.059-0.029,0.102-0.082,0.118-0.146c0.017-0.062,0.005-0.131-0.032-0.184L131.532,30.742z"/>
						</g>
						<path fill="#055677" d="M134.886,30.426c-0.751-0.086-1.457,0.044-1.992,0.325c-0.058,0.03-0.1,0.084-0.115,0.147
							c-0.016,0.062-0.003,0.129,0.035,0.183l1.697,2.418"/>
						<path fill="#055677" d="M123.491,32.111c0.599,0.865,2.683,1.464,4.114,0.715c0.058-0.031,0.1-0.084,0.115-0.147
							c0.015-0.062,0.003-0.129-0.034-0.183l-1.71-2.463c-0.516-0.573-1.318-0.899-2.087-0.991"/>
					</g>
				</g>
				<g>
					<g>
						<g>
							<path fill="#055677" d="M142.539,32.054c-0.965-1.045-2.964-1.278-4.197-0.64c-0.058,0.03-0.1,0.084-0.115,0.147
								c-0.015,0.062-0.002,0.13,0.035,0.183c0.436,0.614,1.73,2.439,1.734,2.444c0.953,1.029,2.941,1.287,4.179,0.651
								c0.059-0.03,0.101-0.084,0.117-0.146c0.016-0.063,0.003-0.131-0.035-0.185L142.539,32.054z"/>
						</g>
						<path fill="#055677" d="M145.885,31.708c-0.751-0.08-1.454,0.057-1.985,0.343c-0.058,0.03-0.099,0.085-0.114,0.147
							c-0.015,0.063-0.001,0.13,0.037,0.183l1.727,2.404"/>
						<path fill="#055677" d="M134.511,33.499c0.605,0.861,2.696,1.449,4.12,0.69c0.058-0.03,0.099-0.084,0.114-0.147
							c0.015-0.062,0.002-0.129-0.036-0.182l-1.73-2.454c-0.521-0.57-1.324-0.893-2.093-0.98"/>
					</g>
				</g>
				<g>
					<g>
						<g>
							<path fill="#055677" d="M153.554,33.219c-0.982-1.031-2.98-1.252-4.202-0.582c-0.058,0.031-0.099,0.086-0.113,0.149
								c-0.014,0.063,0,0.13,0.038,0.183c0.446,0.606,1.77,2.41,1.773,2.416c0.971,1.013,2.962,1.266,4.192,0.585
								c0.058-0.031,0.099-0.086,0.114-0.149s0.001-0.131-0.038-0.184L153.554,33.219z"/>
						</g>
						<path fill="#055677" d="M156.89,32.795c-0.751-0.06-1.451,0.096-1.977,0.396c-0.057,0.033-0.097,0.088-0.11,0.151
							c-0.014,0.063,0,0.13,0.04,0.182l1.775,2.355"/>
						<path fill="#055677" d="M145.55,34.785c0.614,0.865,2.72,1.405,4.135,0.619c0.057-0.031,0.098-0.086,0.112-0.149
							c0.014-0.063,0-0.129-0.039-0.182l-1.769-2.417c-0.528-0.557-1.335-0.863-2.104-0.948"/>
					</g>
				</g>
				<g>
					<g>
						<g>
							<path fill="#055677" d="M164.583,34.121c-1.009-0.998-3.007-1.138-4.211-0.463c-0.057,0.032-0.096,0.087-0.109,0.151
								c-0.013,0.063,0.002,0.13,0.042,0.182c0.46,0.598,1.826,2.374,1.83,2.38c0.997,0.983,3.004,1.15,4.213,0.458
								c0.057-0.033,0.097-0.088,0.109-0.152c0.013-0.063-0.003-0.13-0.043-0.182L164.583,34.121z"/>
						</g>
						<path fill="#055677" d="M167.901,33.621c-0.751-0.045-1.445,0.124-1.961,0.434c-0.056,0.034-0.094,0.09-0.106,0.153
							c-0.012,0.064,0.004,0.13,0.045,0.181l1.841,2.323"/>
						<path fill="#055677" d="M156.618,35.879c0.634,0.839,2.753,1.353,4.15,0.544c0.056-0.033,0.095-0.088,0.108-0.152
							c0.012-0.062-0.003-0.129-0.042-0.181l-1.822-2.391c-0.54-0.552-1.351-0.844-2.121-0.904"/>
					</g>
				</g>
				<g>
					<g>
						<g>
							<path fill="#055677" d="M175.62,34.699c-1.043-0.973-3.04-1.078-4.219-0.339c-0.056,0.034-0.094,0.091-0.104,0.155
								s0.007,0.13,0.048,0.18c0.48,0.581,1.906,2.306,1.911,2.311c1.031,0.966,3.048,1.087,4.232,0.313
								c0.056-0.035,0.094-0.093,0.104-0.157c0.01-0.064-0.008-0.13-0.051-0.18L175.62,34.699z"/>
						</g>
						<path fill="#055677" d="M178.909,34.036c-0.75-0.006-1.434,0.198-1.937,0.535c-0.055,0.036-0.091,0.094-0.1,0.158
							s0.009,0.129,0.052,0.178l1.935,2.225"/>
						<path fill="#055677" d="M167.719,36.712c0.656,0.845,2.801,1.257,4.172,0.393c0.056-0.035,0.093-0.092,0.103-0.156
							c0.01-0.063-0.007-0.129-0.049-0.179l-1.9-2.311c-0.556-0.524-1.374-0.785-2.144-0.838"/>
					</g>
				</g>
				<g>
					<g>
						<g>
							<path fill="#055677" d="M186.652,34.737c-1.093-0.909-3.078-0.88-4.22-0.085c-0.054,0.037-0.089,0.094-0.097,0.159
								c-0.008,0.063,0.013,0.129,0.056,0.178c0.252,0.277,0.754,0.827,1.192,1.308c0.444,0.478,0.825,0.888,0.828,0.89
								c1.08,0.896,3.112,0.891,4.252,0.098c0.054-0.037,0.088-0.096,0.095-0.16c0.007-0.064-0.016-0.13-0.061-0.178L186.652,34.737
								z"/>
						</g>
						<path fill="#055677" d="M189.89,33.928c-0.744,0.062-1.416,0.272-1.898,0.629c-0.052,0.038-0.085,0.097-0.091,0.161
							c-0.006,0.064,0.017,0.129,0.062,0.176c0,0,0.512,0.54,1.024,1.079c0.518,0.523,1.036,1.048,1.036,1.048"/>
						<path fill="#055677" d="M178.858,37.132c0.693,0.786,2.859,1.169,4.191,0.237c0.054-0.038,0.088-0.098,0.096-0.162
							c0.007-0.064-0.014-0.128-0.058-0.176c0,0-0.504-0.557-1.008-1.113c-0.499-0.564-0.997-1.129-0.997-1.129
							c-0.579-0.512-1.406-0.746-2.175-0.753"/>
					</g>
				</g>
				<g>
					<g>
						<g>
							<path fill="#055677" d="M197.633,34.084c-0.577-0.404-1.356-0.558-2.124-0.497c-0.771,0.036-1.538,0.265-2.08,0.695
								c-0.051,0.04-0.082,0.1-0.085,0.165c-0.003,0.064,0.021,0.128,0.068,0.174c0.545,0.528,2.166,2.097,2.171,2.102
								c1.142,0.803,3.185,0.613,4.258-0.276c0.051-0.042,0.081-0.104,0.082-0.169c0.001-0.064-0.026-0.128-0.076-0.172
								L197.633,34.084z"/>
						</g>
						<path fill="#055677" d="M200.782,33.022c-0.739,0.085-1.383,0.369-1.833,0.763c-0.049,0.043-0.077,0.104-0.077,0.17
							c0,0.064,0.027,0.127,0.076,0.17l2.234,1.968"/>
						<path fill="#055677" d="M190.023,37.021c0.739,0.739,2.939,0.94,4.208-0.062c0.051-0.04,0.082-0.1,0.085-0.165
							c0.002-0.064-0.022-0.127-0.07-0.173l-2.149-2.104c-0.609-0.468-1.444-0.641-2.208-0.59"/>
					</g>
				</g>
				<g>
					<g>
						<g>
							<path fill="#055677" d="M208.456,32.412c-1.219-0.615-3.15-0.335-4.14,0.626c-0.046,0.045-0.071,0.108-0.068,0.173
								c0.003,0.065,0.034,0.126,0.084,0.166c0.296,0.234,0.883,0.7,1.397,1.108c0.524,0.405,0.974,0.753,0.977,0.755
								c1.235,0.76,3.256,0.24,4.222-0.756c0.045-0.048,0.067-0.112,0.061-0.177c-0.007-0.065-0.042-0.124-0.097-0.161
								c0,0-0.616-0.432-1.232-0.864C209.058,32.848,208.456,32.412,208.456,32.412z"/>
						</g>
						<path fill="#055677" d="M211.428,30.974c-0.717,0.173-1.314,0.534-1.71,0.98c-0.043,0.048-0.063,0.113-0.056,0.178
							s0.042,0.122,0.096,0.159c0,0,0.609,0.421,1.218,0.841c0.623,0.417,1.246,0.834,1.246,0.834"/>
						<path fill="#055677" d="M201.182,36.093c0.804,0.72,3.029,0.644,4.199-0.474c0.047-0.046,0.072-0.109,0.068-0.174
							s-0.035-0.124-0.087-0.165c0,0-0.591-0.466-1.182-0.933c-0.579-0.469-1.158-0.937-1.158-0.937
							c-0.649-0.416-1.479-0.46-2.24-0.389"/>
					</g>
				</g>
				<g>
					<g>
						<g>
							<path fill="#055677" d="M218.852,29.237c-0.666-0.234-1.416-0.122-2.142,0.099c-0.73,0.211-1.396,0.627-1.81,1.174
								c-0.039,0.052-0.054,0.117-0.041,0.181c0.013,0.064,0.052,0.119,0.107,0.152c0.328,0.188,0.978,0.562,1.547,0.891
								c0.585,0.322,1.086,0.598,1.089,0.6c1.338,0.528,3.283-0.338,4.061-1.487c0.037-0.056,0.046-0.123,0.027-0.185
								c-0.019-0.062-0.064-0.114-0.125-0.141c0,0-0.688-0.316-1.377-0.633C219.52,29.562,218.852,29.237,218.852,29.237z"/>
						</g>
						<path fill="#055677" d="M221.494,27.328c-0.667,0.29-1.183,0.742-1.489,1.246c-0.033,0.055-0.041,0.122-0.021,0.184
							c0.019,0.062,0.063,0.113,0.123,0.14c0,0,0.678,0.307,1.355,0.615c0.697,0.298,1.394,0.597,1.394,0.597"/>
						<path fill="#055677" d="M212.222,33.966c0.9,0.657,3.114,0.205,4.118-1.062c0.041-0.053,0.055-0.118,0.042-0.182
							c-0.014-0.062-0.054-0.117-0.111-0.149c0,0-0.656-0.374-1.311-0.749c-0.638-0.379-1.276-0.759-1.276-0.759
							c-0.695-0.314-1.511-0.243-2.255-0.092"/>
					</g>
				</g>
			</g>
		</g>
	</g>
	<g>
		<g>
			<g>
				<g>
					<g>
						<g>
							<path fill="#1B5777" d="M498.961,28.184c0.396,0.579,1.067,0.989,1.803,1.2c0.717,0.264,1.503,0.323,2.16,0.127
								c0.062-0.019,0.112-0.063,0.14-0.122s0.028-0.127,0.002-0.187c-0.153-0.346-0.459-1.033-0.726-1.635
								c-0.281-0.605-0.521-1.125-0.523-1.128c-0.778-1.173-2.783-1.691-4.102-1.235c-0.062,0.022-0.112,0.069-0.136,0.13
								c-0.023,0.06-0.02,0.129,0.012,0.188c0,0,0.35,0.667,0.698,1.334C498.625,27.52,498.961,28.184,498.961,28.184z"/>
						</g>
						<path fill="#1B5777" d="M495.654,28.092c0.719,0.176,1.416,0.131,1.974-0.083c0.061-0.023,0.108-0.071,0.131-0.132
							c0.023-0.061,0.019-0.128-0.012-0.186c0,0-0.348-0.654-0.696-1.308c-0.36-0.657-0.721-1.313-0.721-1.313"/>
						<path fill="#1B5777" d="M507.132,28.246c-0.394-0.955-2.401-1.976-3.963-1.521c-0.062,0.018-0.113,0.062-0.14,0.122
							s-0.026,0.127,0.001,0.187c0,0,0.31,0.69,0.618,1.379c0.294,0.686,0.588,1.37,0.588,1.37c0.382,0.658,1.077,1.123,1.795,1.356
							"/>
					</g>
				</g>
				<g>
					<g>
						<g>
							<path fill="#1B5777" d="M488.225,26.014c0.938,1.007,2.848,1.447,4.112,0.858c0.06-0.027,0.104-0.078,0.124-0.14
								c0.02-0.062,0.012-0.129-0.022-0.185c-0.399-0.642-1.586-2.55-1.589-2.556c-0.903-1.141-2.937-1.39-4.194-0.782
								c-0.06,0.029-0.104,0.082-0.12,0.145c-0.018,0.062-0.006,0.13,0.031,0.185L488.225,26.014z"/>
						</g>
						<path fill="#1B5777" d="M484.903,26.318c0.74,0.089,1.437-0.039,1.97-0.318c0.058-0.03,0.101-0.083,0.116-0.146
							c0.017-0.063,0.005-0.129-0.032-0.183l-1.689-2.428"/>
						<path fill="#1B5777" d="M496.33,25.07c-0.513-0.965-2.623-1.636-4.106-0.986c-0.06,0.027-0.104,0.078-0.124,0.14
							c-0.018,0.062-0.009,0.129,0.025,0.184l1.559,2.551c0.466,0.614,1.241,0.927,1.971,1.132"/>
					</g>
				</g>
				<g>
					<g>
						<g>
							<path fill="#1B5777" d="M477.284,24.9c1.009,1.009,2.98,1.183,4.188,0.486c0.057-0.033,0.097-0.088,0.11-0.152
								c0.014-0.063-0.001-0.13-0.04-0.181c-0.456-0.597-1.81-2.37-1.814-2.375c-0.997-0.981-3.026-1.227-4.23-0.466
								c-0.058,0.035-0.097,0.091-0.108,0.155c-0.013,0.064,0.005,0.13,0.046,0.181c0,0,0.466,0.579,0.932,1.159
								C476.826,24.304,477.284,24.9,477.284,24.9z"/>
						</g>
						<path fill="#1B5777" d="M473.986,25.462c0.748,0.022,1.437-0.167,1.948-0.491c0.056-0.035,0.094-0.092,0.104-0.156
							c0.012-0.064-0.006-0.129-0.047-0.179l-1.872-2.267"/>
						<path fill="#1B5777" d="M485.268,23.243c-0.307-0.433-0.991-0.8-1.779-0.965c-0.789-0.146-1.68-0.053-2.386,0.351
							c-0.058,0.033-0.097,0.088-0.11,0.152c-0.013,0.063,0.002,0.129,0.042,0.181l1.793,2.374c0.527,0.56,1.318,0.895,2.076,0.982"
							/>
					</g>
				</g>
				<g>
					<g>
						<g>
							<path fill="#1B5777" d="M466.265,24.571c1.068,0.943,3.062,0.923,4.221,0.197c0.054-0.035,0.091-0.092,0.1-0.156
								c0.01-0.064-0.01-0.13-0.052-0.18c-0.482-0.594-1.966-2.262-1.966-2.262c-1.056-0.918-3.081-0.956-4.242-0.188
								c-0.055,0.036-0.091,0.094-0.099,0.159c-0.009,0.064,0.012,0.13,0.056,0.179L466.265,24.571z"/>
						</g>
						<path fill="#1B5777" d="M462.996,25.283c0.75-0.003,1.428-0.216,1.922-0.559c0.053-0.037,0.088-0.095,0.096-0.16
							c0.007-0.065-0.014-0.129-0.058-0.178l-1.995-2.2"/>
						<path fill="#1B5777" d="M474.12,22.369c-0.671-0.807-2.835-1.219-4.188-0.344c-0.055,0.036-0.09,0.092-0.1,0.157
							c-0.008,0.063,0.011,0.128,0.054,0.179l1.949,2.301c0.564,0.525,1.384,0.778,2.151,0.801"/>
					</g>
				</g>
				<g>
					<g>
						<g>
							<path fill="#1B5777" d="M455.223,24.769c1.111,0.887,3.108,0.859,4.232,0.037c0.053-0.039,0.086-0.098,0.093-0.163
								c0.006-0.064-0.017-0.129-0.062-0.176c-0.521-0.545-2.066-2.166-2.071-2.17c-1.1-0.9-3.117-0.854-4.24-0.008
								c-0.053,0.04-0.087,0.099-0.092,0.164c-0.006,0.064,0.017,0.129,0.062,0.176L455.223,24.769z"/>
						</g>
						<path fill="#1B5777" d="M451.981,25.66c0.751-0.044,1.421-0.294,1.9-0.664c0.052-0.04,0.084-0.1,0.089-0.165
							c0.005-0.064-0.019-0.128-0.064-0.174l-2.083-2.089"/>
						<path fill="#1B5777" d="M462.961,22.188c-0.716-0.784-2.886-1.041-4.191-0.084c-0.053,0.039-0.086,0.098-0.092,0.163
							c-0.005,0.064,0.017,0.128,0.062,0.175l2.061,2.171c0.593,0.492,1.428,0.676,2.196,0.671"/>
					</g>
				</g>
				<g>
					<g>
						<g>
							<path fill="#1B5777" d="M444.183,25.428c1.14,0.849,3.142,0.71,4.235-0.146c0.051-0.04,0.083-0.1,0.087-0.165
								c0.003-0.065-0.021-0.128-0.067-0.174c-0.54-0.523-2.143-2.078-2.147-2.083c-1.126-0.835-3.135-0.722-4.233,0.132
								c-0.052,0.041-0.084,0.101-0.087,0.166c-0.004,0.065,0.021,0.129,0.068,0.174L444.183,25.428z"/>
						</g>
						<path fill="#1B5777" d="M440.965,26.386c0.751-0.061,1.415-0.324,1.883-0.703c0.051-0.041,0.081-0.102,0.084-0.167
							s-0.022-0.127-0.07-0.172l-2.147-2.044"/>
						<path fill="#1B5777" d="M451.823,22.568c-0.745-0.742-2.922-0.966-4.189,0.037c-0.052,0.041-0.082,0.102-0.086,0.167
							c-0.003,0.064,0.021,0.127,0.068,0.172l2.141,2.111c0.611,0.472,1.455,0.65,2.225,0.604"/>
					</g>
				</g>
				<g>
					<g>
						<g>
							<path fill="#1B5777" d="M433.153,26.364c1.161,0.826,3.164,0.663,4.235-0.227c0.051-0.042,0.08-0.103,0.083-0.168
								c0.001-0.065-0.024-0.127-0.072-0.171c-0.554-0.512-2.196-2.031-2.201-2.036c-1.147-0.818-3.151-0.669-4.227,0.228
								c-0.051,0.042-0.081,0.103-0.083,0.168c-0.002,0.065,0.024,0.128,0.072,0.172L433.153,26.364z"/>
						</g>
						<path fill="#1B5777" d="M429.956,27.419c0.75-0.084,1.408-0.368,1.868-0.762c0.049-0.042,0.078-0.104,0.079-0.169
							c0.002-0.065-0.025-0.127-0.073-0.17l-2.191-1.978"/>
						<path fill="#1B5777" d="M440.714,23.3c-0.768-0.728-2.939-0.854-4.179,0.184c-0.051,0.042-0.08,0.103-0.081,0.168
							c-0.002,0.064,0.024,0.127,0.072,0.171l2.195,2.037c0.625,0.451,1.474,0.588,2.243,0.526"/>
					</g>
				</g>
				<g>
					<g>
						<g>
							<path fill="#1B5777" d="M422.138,27.546c1.175,0.8,3.177,0.577,4.233-0.318c0.049-0.042,0.078-0.104,0.079-0.169
								c0-0.065-0.027-0.127-0.075-0.17c-0.563-0.501-2.234-1.991-2.24-1.996c-1.159-0.788-3.153-0.591-4.217,0.308
								c-0.05,0.042-0.079,0.104-0.08,0.169s0.025,0.128,0.075,0.171L422.138,27.546z"/>
						</g>
						<path fill="#1B5777" d="M418.954,28.638c0.749-0.092,1.404-0.383,1.857-0.781c0.05-0.043,0.078-0.105,0.078-0.17
							s-0.028-0.127-0.077-0.17l-2.222-1.953"/>
						<path fill="#1B5777" d="M429.639,24.339c-0.781-0.704-2.954-0.81-4.174,0.248c-0.049,0.042-0.077,0.104-0.077,0.169
							c-0.001,0.064,0.026,0.126,0.075,0.17l2.237,2.005c0.634,0.439,1.487,0.574,2.256,0.488"/>
					</g>
				</g>
				<g>
					<g>
						<g>
							<path fill="#1B5777" d="M411.131,28.866c1.184,0.788,3.188,0.56,4.232-0.364c0.049-0.043,0.077-0.105,0.077-0.171
								c0-0.065-0.028-0.127-0.078-0.169c-0.568-0.493-2.258-1.959-2.263-1.963c-1.169-0.777-3.159-0.568-4.213,0.342
								c-0.049,0.043-0.078,0.105-0.078,0.17c-0.001,0.065,0.027,0.128,0.076,0.17L411.131,28.866z"/>
						</g>
						<path fill="#1B5777" d="M407.955,29.991c0.75-0.101,1.402-0.402,1.853-0.805c0.049-0.043,0.076-0.105,0.075-0.17
							c0-0.065-0.028-0.126-0.078-0.169l-2.24-1.927"/>
						<path fill="#1B5777" d="M418.591,25.563c-0.793-0.701-2.963-0.77-4.166,0.313c-0.049,0.044-0.075,0.106-0.075,0.171
							c0,0.064,0.028,0.125,0.077,0.168l2.262,1.964c0.641,0.425,1.497,0.552,2.266,0.458"/>
					</g>
				</g>
				<g>
					<g>
						<g>
							<path fill="#1B5777" d="M400.129,30.275c1.188,0.777,3.194,0.539,4.232-0.39c0.049-0.044,0.076-0.105,0.076-0.171
								c-0.001-0.064-0.029-0.127-0.079-0.169c-0.572-0.49-2.271-1.947-2.277-1.952c-1.174-0.773-3.157-0.544-4.206,0.37
								c-0.05,0.043-0.078,0.105-0.078,0.17c-0.001,0.065,0.027,0.128,0.077,0.17L400.129,30.275z"/>
						</g>
						<path fill="#1B5777" d="M396.956,31.417c0.75-0.104,1.401-0.405,1.85-0.811c0.049-0.044,0.076-0.106,0.075-0.171
							c0-0.065-0.029-0.126-0.079-0.168l-2.248-1.92"/>
						<path fill="#1B5777" d="M407.564,26.92c-0.797-0.686-2.965-0.74-4.16,0.346c-0.049,0.044-0.075,0.106-0.074,0.171
							c0.001,0.064,0.029,0.125,0.078,0.168l2.277,1.952c0.644,0.425,1.502,0.538,2.27,0.434"/>
					</g>
				</g>
				<g>
					<g>
						<g>
							<path fill="#1B5777" d="M389.124,31.716c1.188,0.779,3.197,0.536,4.234-0.396c0.049-0.044,0.076-0.106,0.076-0.171
								c-0.001-0.065-0.03-0.127-0.079-0.169c-0.573-0.489-2.275-1.943-2.28-1.947c-1.173-0.77-3.155-0.544-4.204,0.37
								c-0.05,0.044-0.078,0.105-0.078,0.171c-0.001,0.064,0.027,0.127,0.077,0.17L389.124,31.716z"/>
						</g>
						<path fill="#1B5777" d="M385.948,32.855c0.751-0.103,1.403-0.404,1.853-0.81c0.048-0.044,0.075-0.106,0.074-0.171
							c0-0.065-0.029-0.126-0.079-0.168l-2.245-1.921"/>
						<path fill="#1B5777" d="M396.554,28.347c-0.8-0.684-2.966-0.733-4.157,0.355c-0.048,0.044-0.075,0.106-0.074,0.171
							c0.001,0.064,0.03,0.125,0.079,0.167l2.281,1.947c0.646,0.424,1.505,0.535,2.273,0.429"/>
					</g>
				</g>
				<g>
					<g>
						<g>
							<path fill="#1B5777" d="M378.11,33.131c1.185,0.783,3.196,0.546,4.237-0.383c0.049-0.044,0.076-0.105,0.076-0.171
								c-0.001-0.065-0.029-0.127-0.079-0.169c-0.57-0.491-2.267-1.95-2.271-1.954c-1.17-0.771-3.15-0.556-4.204,0.347
								c-0.05,0.042-0.078,0.104-0.079,0.169c-0.001,0.065,0.027,0.128,0.076,0.171L378.11,33.131z"/>
						</g>
						<path fill="#1B5777" d="M374.923,34.244c0.752-0.097,1.408-0.393,1.86-0.794c0.049-0.044,0.076-0.105,0.076-0.171
							c0-0.064-0.029-0.126-0.079-0.169l-2.232-1.939"/>
						<path fill="#1B5777" d="M385.551,29.786c-0.8-0.687-2.961-0.744-4.156,0.341c-0.048,0.044-0.075,0.106-0.074,0.171
							s0.029,0.126,0.078,0.168l2.275,1.955c0.645,0.425,1.505,0.539,2.274,0.435"/>
					</g>
				</g>
				<g>
					<g>
						<g>
							<path fill="#1B5777" d="M367.075,34.445c1.177,0.797,3.199,0.599,4.246-0.33c0.05-0.043,0.078-0.105,0.078-0.17
								c0-0.065-0.028-0.127-0.077-0.17c-0.566-0.497-2.249-1.973-2.254-1.978c-1.162-0.79-3.141-0.6-4.204,0.297
								c-0.051,0.042-0.08,0.104-0.081,0.169c-0.002,0.065,0.024,0.128,0.073,0.172L367.075,34.445z"/>
						</g>
						<path fill="#1B5777" d="M363.874,35.531c0.754-0.09,1.413-0.38,1.87-0.778c0.05-0.043,0.078-0.104,0.079-0.169
							c0-0.065-0.027-0.127-0.077-0.17l-2.207-1.96"/>
						<path fill="#1B5777" d="M374.548,31.171c-0.794-0.69-2.952-0.761-4.155,0.317c-0.049,0.044-0.076,0.105-0.076,0.171
							c0,0.064,0.028,0.125,0.077,0.168l2.257,1.969c0.642,0.429,1.502,0.548,2.272,0.448"/>
					</g>
				</g>
				<g>
					<g>
						<g>
							<path fill="#1B5777" d="M356.018,35.615c1.162,0.813,3.188,0.628,4.252-0.272c0.051-0.043,0.08-0.104,0.081-0.169
								c0.001-0.064-0.026-0.127-0.074-0.171c-0.559-0.506-2.217-2.009-2.222-2.013c-1.147-0.81-3.125-0.625-4.205,0.229
								c-0.051,0.041-0.082,0.102-0.084,0.166c-0.003,0.065,0.022,0.129,0.07,0.174L356.018,35.615z"/>
						</g>
						<path fill="#1B5777" d="M352.79,36.626c0.758-0.069,1.425-0.342,1.89-0.727c0.051-0.042,0.08-0.104,0.082-0.168
							s-0.025-0.127-0.073-0.172l-2.17-2.018"/>
						<path fill="#1B5777" d="M363.539,32.454c-0.785-0.689-2.938-0.81-4.157,0.244c-0.049,0.043-0.077,0.104-0.078,0.169
							c-0.001,0.064,0.025,0.126,0.073,0.17l2.229,2.013c0.636,0.443,1.496,0.578,2.268,0.481"/>
					</g>
				</g>
				<g>
					<g>
						<g>
							<path fill="#1B5777" d="M344.924,36.522c1.142,0.852,3.181,0.747,4.265-0.152c0.051-0.042,0.081-0.103,0.084-0.168
								s-0.023-0.128-0.07-0.172c-0.546-0.518-2.168-2.055-2.173-2.06c-1.127-0.843-3.103-0.744-4.205,0.102
								c-0.053,0.04-0.085,0.101-0.089,0.166c-0.005,0.064,0.019,0.129,0.064,0.175L344.924,36.522z"/>
						</g>
						<path fill="#1B5777" d="M341.667,37.461c0.76-0.056,1.435-0.315,1.91-0.691c0.052-0.041,0.083-0.102,0.087-0.166
							c0.004-0.065-0.021-0.128-0.068-0.174l-2.11-2.06"/>
						<path fill="#1B5777" d="M352.519,33.542c-0.771-0.718-2.915-0.866-4.157,0.169c-0.05,0.041-0.079,0.103-0.082,0.167
							c-0.002,0.064,0.023,0.127,0.07,0.172l2.181,2.048c0.626,0.451,1.484,0.601,2.26,0.528"/>
					</g>
				</g>
				<g>
					<g>
						<g>
							<path fill="#1B5777" d="M333.797,37.105c1.109,0.88,3.154,0.811,4.271-0.028c0.053-0.039,0.086-0.099,0.091-0.163
								c0.004-0.065-0.02-0.129-0.065-0.176c-0.528-0.537-2.096-2.132-2.101-2.137c-1.096-0.865-3.066-0.812-4.199-0.043
								c-0.054,0.037-0.088,0.096-0.096,0.16c-0.007,0.064,0.014,0.13,0.059,0.178L333.797,37.105z"/>
						</g>
						<path fill="#1B5777" d="M330.496,37.883c0.764-0.018,1.451-0.242,1.942-0.593c0.054-0.038,0.088-0.097,0.094-0.162
							c0.006-0.064-0.017-0.128-0.062-0.176l-2.024-2.165"/>
						<path fill="#1B5777" d="M341.485,34.37c-0.748-0.716-2.88-0.966-4.154,0.017c-0.052,0.04-0.083,0.099-0.088,0.164
							c-0.004,0.064,0.019,0.128,0.064,0.174l2.113,2.138c0.613,0.48,1.469,0.663,2.246,0.599"/>
					</g>
				</g>
				<g>
					<g>
						<g>
							<path fill="#1B5777" d="M322.634,37.144c1.062,0.944,3.121,1.013,4.277,0.229c0.055-0.038,0.09-0.097,0.098-0.161
								s-0.013-0.13-0.057-0.177c-0.502-0.566-1.99-2.25-1.995-2.255c-1.048-0.936-3.007-1.005-4.183-0.256
								c-0.056,0.035-0.094,0.093-0.104,0.157s0.007,0.13,0.048,0.18L322.634,37.144z"/>
						</g>
						<path fill="#1B5777" d="M319.286,37.771c0.768,0.052,1.468-0.164,1.979-0.496c0.056-0.036,0.093-0.094,0.102-0.158
							c0.011-0.063-0.009-0.129-0.051-0.178c0,0-0.479-0.558-0.956-1.116c-0.47-0.572-0.94-1.146-0.94-1.146"/>
						<path fill="#1B5777" d="M330.446,34.787c-0.716-0.777-2.829-1.057-4.145-0.139c-0.054,0.037-0.088,0.094-0.096,0.158
							s0.013,0.129,0.056,0.179c0,0,0.5,0.556,1.001,1.112c0.506,0.549,1.012,1.098,1.012,1.098
							c0.591,0.495,1.439,0.704,2.222,0.688"/>
					</g>
				</g>
				<g>
					<g>
						<g>
							<path fill="#1B5777" d="M311.467,36.479c0.494,0.52,1.257,0.839,2.048,0.945c0.791,0.083,1.608-0.071,2.214-0.428
								c0.058-0.034,0.097-0.09,0.109-0.153c0.012-0.064-0.005-0.13-0.045-0.181c-0.462-0.588-1.833-2.333-1.838-2.338
								c-0.975-1.021-2.9-1.266-4.13-0.621c-0.058,0.031-0.101,0.084-0.116,0.147c-0.017,0.063-0.005,0.131,0.032,0.184
								L311.467,36.479z"/>
						</g>
						<path fill="#1B5777" d="M308.063,36.837c0.767,0.077,1.485-0.062,2.024-0.349c0.059-0.031,0.101-0.086,0.115-0.148
							c0.015-0.063,0.001-0.13-0.037-0.183l-1.702-2.391"/>
						<path fill="#1B5777" d="M319.42,34.677c-0.668-0.822-2.74-1.276-4.113-0.431c-0.056,0.034-0.095,0.09-0.106,0.154
							c-0.012,0.063,0.004,0.129,0.043,0.18l1.861,2.34c0.56,0.538,1.396,0.81,2.182,0.851"/>
					</g>
				</g>
				<g>
					<g>
						<g>
							<path fill="#1B5777" d="M300.371,34.764c0.86,1.204,2.926,1.549,4.205,0.957c0.06-0.027,0.104-0.079,0.123-0.142
								s0.009-0.13-0.027-0.185c-0.398-0.633-1.583-2.513-1.587-2.519c-0.878-1.037-2.713-1.585-4.011-1.073
								c-0.062,0.023-0.109,0.071-0.134,0.132c-0.023,0.061-0.021,0.129,0.01,0.187c0,0,0.348,0.658,0.696,1.317
								C300.009,34.101,300.371,34.764,300.371,34.764z"/>
						</g>
						<path fill="#1B5777" d="M296.929,34.691c0.757,0.174,1.494,0.127,2.066-0.092c0.062-0.023,0.11-0.071,0.133-0.133
							c0.022-0.061,0.017-0.129-0.016-0.186c0,0-0.354-0.647-0.709-1.295c-0.341-0.644-0.681-1.288-0.681-1.288"/>
						<path fill="#1B5777" d="M308.464,33.767c-0.604-0.831-2.589-1.54-4.034-0.827c-0.059,0.028-0.102,0.08-0.121,0.142
							c-0.018,0.062-0.009,0.129,0.025,0.184c0,0,0.399,0.63,0.8,1.261c0.411,0.632,0.823,1.265,0.823,1.265
							c0.509,0.581,1.32,0.983,2.106,1.047"/>
					</g>
				</g>
				<g>
					<g>
						<g>
							<path fill="#1B5777" d="M289.575,31.463c0.335,0.632,0.979,1.211,1.737,1.491c0.763,0.269,1.606,0.338,2.287,0.143
								c0.064-0.019,0.117-0.062,0.145-0.122c0.027-0.059,0.027-0.127,0-0.187c-0.329-0.693-1.187-2.718-1.187-2.719
								c-0.686-1.184-2.364-2.016-3.731-1.736c-0.064,0.012-0.12,0.051-0.155,0.106s-0.045,0.123-0.025,0.183
								c0,0,0.223,0.706,0.444,1.411C289.333,30.749,289.575,31.463,289.575,31.463z"/>
						</g>
						<path fill="#1B5777" d="M286.157,30.783c0.726,0.306,1.471,0.392,2.079,0.278c0.066-0.013,0.123-0.052,0.155-0.107
							c0.034-0.057,0.04-0.124,0.019-0.186c0,0-0.232-0.696-0.465-1.392c-0.214-0.688-0.427-1.375-0.427-1.375"/>
						<path fill="#1B5777" d="M297.723,31.698c-0.119-0.229-0.33-0.448-0.601-0.644c-0.264-0.218-0.586-0.411-0.94-0.56
							c-0.709-0.296-1.547-0.409-2.311-0.169c-0.062,0.02-0.112,0.064-0.141,0.123c-0.027,0.059-0.029,0.126-0.004,0.185
							c0,0,0.301,0.682,0.602,1.362c0.318,0.687,0.637,1.374,0.637,1.374c0.424,0.654,1.183,1.172,1.964,1.321"/>
					</g>
				</g>
			</g>
		</g>
	</g>
	<path fill="#005777" d="M266.12,7.149c-1.54-1.927-5.996-3.32-11.257-3.32s-9.717,1.394-11.257,3.32
		c-0.075,0.094-0.065,0.229,0.016,0.319l1.423,1.56h9.818h9.818l1.423-1.56C266.186,7.379,266.195,7.243,266.12,7.149z"/>
	<path fill="#003D5D" d="M269.576,9.729c-0.607-0.146-3.908-0.706-4.831-0.862c-2.115-1.304-5.746-2.167-9.882-2.167
		s-7.768,0.863-9.883,2.167c-0.923,0.156-4.223,0.716-4.831,0.862c-0.707,0.17-1,0.365-0.658,1.072
		c0.341,0.708,0.78,1.537,0.805,2.098s0.253,0.71,2.37,0.636c2.117-0.075,12.197,0,12.197,0s10.08-0.075,12.197,0
		c2.116,0.074,2.346-0.075,2.37-0.636s0.463-1.39,0.805-2.098C270.576,10.095,270.283,9.899,269.576,9.729z"/>
	<path fill="#003D5D" d="M268.828,17.167c-0.919-3.78-1.602-5.918-13.965-5.918c-12.364,0-13.047,2.138-13.965,5.918
		c-0.765,3.148-1.829,4.462-1.829,4.462h15.794h15.794C270.657,21.629,269.593,20.315,268.828,17.167z"/>
	<path fill="#E7E1D1" d="M254.863,15.506V9.121c-5.645,0-17.448,13.765-17.695,14.054v0.001c0.521,0.999,1.007,2.036,1.461,3.088
		C242.409,22.771,250.194,16.071,254.863,15.506z"/>
	<path fill="#003D5D" d="M238.629,26.264c2.717,6.295,4.25,13.138,4.781,15.784l0,0.001c4.685,0.162,8.788,1.049,11.452,2.351
		V15.506C250.194,16.071,242.409,22.771,238.629,26.264z"/>
	<path fill="#DAD3BC" d="M254.863,15.506V9.121c5.644,0,17.448,13.765,17.695,14.054v0.001c-0.521,0.999-1.008,2.036-1.462,3.088
		C267.316,22.771,259.531,16.071,254.863,15.506z"/>
	<path fill="#005777" d="M271.096,26.264c-2.717,6.295-4.25,13.138-4.781,15.784v0.001c-4.685,0.162-8.788,1.049-11.452,2.351
		V15.506C259.531,16.071,267.316,22.771,271.096,26.264z"/>
</g>
</svg>
