<?xml version="1.0" encoding="utf-8"?>
<!-- Generator: Adobe Illustrator 15.0.0, SVG Export Plug-In . SVG Version: 6.00 Build 0)  -->
<!DOCTYPE svg PUBLIC "-//W3C//DTD SVG 1.1//EN" "http://www.w3.org/Graphics/SVG/1.1/DTD/svg11.dtd">
<svg version="1.1" id="Layer_1" xmlns="http://www.w3.org/2000/svg" xmlns:xlink="http://www.w3.org/1999/xlink" x="0px" y="0px"
	 width="562.855px" height="384.677px" viewBox="0 0 562.855 384.677" enable-background="new 0 0 562.855 384.677"
	 xml:space="preserve">
<g>
	<g>
		<polygon fill="#3C7591" points="204.395,54.324 49.501,168.196 224.993,245.464 		"/>
	</g>
</g>
<g>
	<g>
		<polygon fill="#6F96AB" points="58.119,15.957 49.732,167.671 204.395,54.324 		"/>
	</g>
</g>
<g>
	<g>
		<polygon fill="#006B96" points="204.395,54.324 224.993,245.464 323.262,129.941 		"/>
	</g>
</g>
<g>
	<g>
		<polygon fill="#006B96" points="49.501,168.196 94.033,304.978 224.991,245.464 		"/>
	</g>
</g>
<g>
	<g>
		<polygon fill="#005677" points="0,168.139 49.5,168.197 58.117,15.957 		"/>
	</g>
</g>
<g>
	<g>
		<polygon fill="#005581" points="49.5,168.197 0,168.139 94.008,305.037 		"/>
	</g>
</g>
<g>
	<g>
		<polygon fill="#005581" points="224.993,245.464 94.033,304.978 256.043,276.844 		"/>
	</g>
</g>
<g>
	<g>
		<polygon fill="#005581" points="224.993,245.464 256.043,276.844 323.262,129.941 		"/>
	</g>
</g>
<g>
	<g>
		<polygon fill="#006B96" points="58.118,15.957 204.395,54.324 224.714,0.001 		"/>
	</g>
</g>
<g>
	<g>
		<polygon fill="#005677" points="224.714,0 204.395,54.324 323.262,129.941 		"/>
	</g>
</g>
<g>
	<g>
		<polygon fill="#3C7591" points="377.201,124.016 336.421,311.601 518.876,253.549 		"/>
	</g>
</g>
<g>
	<g>
		<polygon fill="#6F96AB" points="242.317,191.901 336.247,311.054 377.201,124.016 		"/>
	</g>
</g>
<g>
	<g>
		<polygon fill="#006B96" points="516.162,102.128 377.201,124.016 518.876,253.549 		"/>
	</g>
</g>
<g>
	<g>
		<polygon fill="#006B96" points="336.421,311.601 460.115,384.616 518.875,253.549 		"/>
	</g>
</g>
<g>
	<g>
		<polygon fill="#005677" points="242.317,191.903 299.314,344.255 336.421,311.601 		"/>
	</g>
</g>
<g>
	<g>
		<polygon fill="#005581" points="336.421,311.601 299.314,344.255 460.135,384.677 		"/>
	</g>
</g>
<g>
	<g>
		<polygon fill="#005581" points="518.876,253.549 460.115,384.616 562.855,256.537 		"/>
	</g>
</g>
<g>
	<g>
		<polygon fill="#005581" points="516.162,102.128 518.876,253.549 562.855,256.537 		"/>
	</g>
</g>
<g>
	<g>
		<polygon fill="#006B96" points="356.535,69.914 242.317,191.902 377.201,124.016 		"/>
	</g>
</g>
<g>
	<g>
		<polygon fill="#005677" points="356.535,69.913 377.201,124.016 516.162,102.128 		"/>
	</g>
</g>
</svg>
