<?xml version="1.0" encoding="utf-8"?>
<!-- Generator: Adobe Illustrator 16.0.0, SVG Export Plug-In . SVG Version: 6.00 Build 0)  -->
<!DOCTYPE svg PUBLIC "-//W3C//DTD SVG 1.1//EN" "http://www.w3.org/Graphics/SVG/1.1/DTD/svg11.dtd">
<svg version="1.1" id="Layer_1" xmlns="http://www.w3.org/2000/svg" xmlns:xlink="http://www.w3.org/1999/xlink" x="0px" y="0px"
	 width="434.667px" height="127px" viewBox="0 0 434.667 127" enable-background="new 0 0 434.667 127" xml:space="preserve">
<g>
	<path fill="#FFFFFF" d="M430.689,74.4c-1.833-0.418-3.653,0.729-4.07,2.56c-2.092,9.176-8.637,17.225-14.007,17.225
		c-1.334,0-2.373-0.544-3.271-1.713c-1.977-2.577-3.404-8.873-0.92-18.141c3.412-12.738,11.764-21.615,17.124-21.615
		c0.401,0,0.643,0.885,0.688,1.062c0.929,3.715-1.994,11.957-13.793,18.249c-1.656,0.883-2.283,2.942-1.399,4.6
		c0.884,1.655,2.943,2.286,4.6,1.399c14.346-7.65,18.966-18.787,17.188-25.897c-0.958-3.832-3.749-6.212-7.283-6.212
		c-9.281,0-19.688,11.708-23.692,26.652c-2.649,9.892-1.867,18.878,2.094,24.04c2.165,2.821,5.242,4.374,8.665,4.374
		c9.705,0,18.113-11.446,20.636-22.514C433.665,76.639,432.519,74.817,430.689,74.4z"/>
	<path fill="#FFFFFF" d="M421.53,106.519c-39.599,17.746-102.157,10.138-147.837,4.585l-3.166-0.386
		c-2.925-0.354-5.789-0.7-8.583-1.029c-1.87-0.224-3.554,1.114-3.774,2.978c-0.22,1.865,1.113,3.555,2.979,3.774
		c2.787,0.329,5.644,0.673,8.56,1.027l3.165,0.384c24.455,2.975,53.659,6.525,81.87,6.525c25.397,0,49.991-2.88,69.567-11.652
		c1.714-0.77,2.48-2.779,1.712-4.494C425.255,106.519,423.243,105.752,421.53,106.519z"/>
	<path fill="#FFFFFF" d="M98.12,97.256c-18.899,1.461-35.449,4.536-49.19,9.143c-1.78,0.597-2.74,2.523-2.143,4.303
		c0.476,1.422,1.801,2.32,3.222,2.32c0.358,0,0.723-0.057,1.081-0.178c13.212-4.428,29.211-7.391,47.553-8.809
		c1.872-0.145,3.272-1.78,3.128-3.651C101.625,98.512,99.982,97.101,98.12,97.256z"/>
	<path fill="#FFFFFF" d="M196.88,101.692c-5.817-0.883-17.854-2.549-33.113-3.799c-1.872-0.151-3.512,1.24-3.666,3.111
		c-0.153,1.871,1.24,3.512,3.111,3.665c15.056,1.232,26.917,2.875,32.648,3.744c0.172,0.026,0.344,0.038,0.514,0.038
		c1.651,0,3.101-1.206,3.356-2.889C200.013,103.707,198.737,101.973,196.88,101.692z"/>
	<path fill="#FFFFFF" d="M69.047,10.722c0.166-0.985-0.112-1.995-0.758-2.757c-0.646-0.763-1.595-1.204-2.595-1.204
		c-14.527,0-26.773,7.838-34.483,22.069c-7.768,14.338-9.219,32.675-3.304,41.746c1.025,1.572,3.132,2.017,4.704,0.99
		c1.573-1.025,2.017-3.133,0.991-4.705c-4.025-6.173-3.545-21.627,3.587-34.793c3.414-6.302,10.933-16.497,24.418-18.249
		c-7.149,39.667-24.512,98.165-43.679,98.165c-2.965,0-5.158-0.939-6.704-2.871c-4.637-5.795-2.965-19.012-1.93-23.613
		c0.415-1.832-0.733-3.651-2.564-4.066c-1.83-0.418-3.652,0.732-4.067,2.564c-0.044,0.197-1.099,4.907-1.297,10.736
		c-0.28,8.229,1.248,14.493,4.542,18.617c2.839,3.554,6.995,5.432,12.02,5.432c14.16,0,27.089-18.506,38.431-55.002
		C64.508,37.559,69.003,10.988,69.047,10.722z"/>
	<circle fill="#FFFFFF" cx="365.682" cy="44.864" r="4.677"/>
	<path fill="#FFFFFF" d="M155.97,75.411c-1.872-0.046-3.444,1.417-3.502,3.293c-0.508,16.574-12.283,27.707-22.962,27.707
		c-4.121,0-7.574-1.776-10.263-5.281c-6.478-8.441-7.507-24.859-2.687-42.85c7.246-27.044,26.039-49.893,41.037-49.893
		c4.652,0,7.83,1.457,9.713,4.452c3.474,5.526,2.096,16.005-1.243,22.942c-0.814,1.692-0.103,3.723,1.589,4.538
		c1.691,0.812,3.723,0.103,4.537-1.59c5.786-12.023,4.508-23.725,0.873-29.508c-2.189-3.483-6.65-7.634-15.47-7.634
		c-16.972,0-36.022,20.446-45.385,47.716c-2.823,1.585-5.359,2.074-7.539,1.42c-3.624-1.083-5.528-4.963-5.538-4.982
		c-0.771-1.657-2.714-2.41-4.398-1.7c-1.685,0.707-2.509,2.62-1.866,4.33c1.527,4.063,1.423,10.054-0.287,16.437
		c-3.528,13.168-12.182,22.344-17.741,22.344c-1.409,0-2.505-0.574-3.451-1.807c-2.701-3.52-3.08-10.89-0.966-18.777
		c3.528-13.167,12.181-22.343,17.741-22.343c1.877,0,3.399-1.522,3.399-3.4c0-1.877-1.522-3.399-3.399-3.399
		c-9.517,0-20.194,12.028-24.309,27.382c-2.722,10.158-1.922,19.383,2.139,24.676c2.21,2.881,5.352,4.467,8.845,4.467
		c9.517,0,20.194-12.027,24.309-27.383c0.941-3.514,1.466-6.922,1.575-10.103c0.6,0.287,1.237,0.54,1.912,0.747
		c4.24,1.298,8.808,0.505,13.575-2.359c0.105-0.062,0.192-0.143,0.287-0.214l0.014,0.01c-1.917,2.353-5.246,3.814-7.177,4.509
		c-4.626,19.222-2.995,36.323,4.515,46.111c3.987,5.194,9.401,7.94,15.657,7.94c15.561,0,29.188-15.706,29.758-34.297
		C159.321,77.036,157.846,75.467,155.97,75.411z"/>
	<path fill="#FFFFFF" d="M253.291,87.946c-1.894-0.035-3.444,1.416-3.502,3.293c-0.508,16.573-12.283,27.707-22.962,27.707
		c-4.121,0-7.574-1.776-10.263-5.281c-6.478-8.441-7.507-24.861-2.687-42.85c7.246-27.045,26.039-49.892,41.036-49.892
		c4.653,0,7.83,1.457,9.714,4.453c3.473,5.525,2.095,16.003-1.243,22.94c-0.814,1.691-0.103,3.723,1.589,4.538
		c1.691,0.812,3.724,0.103,4.537-1.589c5.786-12.023,4.509-23.723,0.874-29.507c-2.189-3.482-6.65-7.634-15.471-7.634
		c-14.172,0-29.796,14.256-40.019,34.836c-2.791,1.55-5.301,2.024-7.462,1.377c-3.624-1.083-5.528-4.964-5.538-4.983
		c-0.771-1.657-2.712-2.406-4.398-1.7c-1.685,0.708-2.509,2.62-1.866,4.331c1.528,4.062,1.423,10.053-0.287,16.435
		c-3.528,13.168-12.181,22.344-17.74,22.344c-1.409,0-2.506-0.574-3.451-1.807c-2.7-3.519-3.08-10.89-0.966-18.776
		c3.528-13.167,12.181-22.344,17.74-22.344c1.878,0,3.399-1.522,3.399-3.399s-1.521-3.399-3.399-3.399
		c-9.516,0-20.193,12.027-24.308,27.382c-2.722,10.158-1.922,19.383,2.139,24.676c2.21,2.881,5.351,4.467,8.845,4.467
		c9.517,0,20.193-12.028,24.308-27.382c0.941-3.515,1.467-6.921,1.576-10.103c0.601,0.288,1.237,0.54,1.912,0.747
		c4.046,1.239,8.394,0.551,12.926-2.002c-2.387,2.654-6.515,4.102-7.916,4.533c-1.165,3.143-2.209,6.379-3.099,9.699
		c-5.437,20.291-3.994,38.515,3.859,48.749c3.987,5.195,9.4,7.941,15.657,7.941c15.561,0,29.188-15.707,29.758-34.298
		C256.642,89.57,255.167,88.002,253.291,87.946z"/>
	<path fill="#FFFFFF" d="M283.44,42.001c-0.054,0.106-0.108,0.21-0.151,0.323c-0.012,0.029-0.028,0.053-0.039,0.082
		c-0.377,1.068-0.692,2.419-0.836,3.916c-3.052,14.242-10.828,43.494-19.932,51.845c-1.384,1.269-1.477,3.419-0.208,4.803
		c0.671,0.73,1.587,1.102,2.507,1.102c0.821,0,1.645-0.297,2.297-0.895c8.508-7.803,15.125-28.234,18.974-42.877
		c-1.116-1.386-2.614-3.78-2.734-6.707c1.156,3.016,3.462,5.859,7.629,7.704c4.308,1.908,6.681,2.958,2.246,13.912
		c-3.486,8.61-6.647,18.243-3.667,24.401c1.222,2.525,3.384,4.305,6.25,5.144c0.846,0.247,1.798,0.411,2.839,0.411
		c3.269,0,7.399-1.628,11.716-7.444c0.969-1.305,1.808-2.637,2.505-3.848c-0.633,3.345-2.02,5.901-2.794,7.128
		c0.137,0.314,0.274,0.629,0.432,0.922c1.507,2.807,3.88,4.637,6.863,5.291c0.786,0.174,1.562,0.258,2.328,0.258
		c4.636,0,8.908-3.16,12.767-9.42c0.606,4.645,2.145,8.062,4.645,10.281c0.647,0.573,1.453,0.855,2.255,0.855
		c0.938,0,1.872-0.385,2.545-1.143c1.245-1.404,1.117-3.553-0.287-4.799c-5.928-5.26-0.869-29.314,4.615-44.714
		c0.629-1.769-0.294-3.714-2.062-4.344c-1.771-0.631-3.713,0.293-4.344,2.062c-0.114,0.321-2.27,6.412-4.27,14.366
		c-0.104,0.223-0.189,0.458-0.245,0.708c-0.018,0.083-1.869,8.455-5.224,16.389c-3.771,8.917-7.874,13.602-11.267,12.859
		c-1.04-0.229-1.759-0.804-2.329-1.865c-3.897-7.258,2.153-29.35,6.883-41.57c0.677-1.751-0.192-3.719-1.943-4.397
		c-1.75-0.676-3.719,0.19-4.397,1.943c-0.961,2.481-7.065,18.681-8.31,32.39c-1.854,4.257-6.874,12.373-11.011,11.154
		c-1.317-0.385-1.782-1.046-2.04-1.578c-2.067-4.273,2.386-15.273,3.849-18.889c4.264-10.531,4.78-17.998-5.796-22.68
		c-4.117-1.824-4.742-5.208-4.569-7.674c0.386-1.802,0.611-2.951,0.664-3.222c0.006-0.032,0.003-0.063,0.008-0.095
		c0.021-0.124,0.027-0.247,0.034-0.37c0.006-0.103,0.015-0.206,0.011-0.307c-0.005-0.115-0.021-0.228-0.038-0.341
		c-0.015-0.107-0.026-0.213-0.051-0.318c-0.025-0.105-0.062-0.205-0.098-0.307c-0.035-0.104-0.068-0.209-0.114-0.31
		c-0.044-0.098-0.1-0.189-0.153-0.283c-0.055-0.094-0.105-0.189-0.169-0.278c-0.062-0.089-0.136-0.17-0.208-0.253
		c-0.07-0.082-0.139-0.165-0.218-0.24c-0.076-0.073-0.162-0.137-0.246-0.203c-0.091-0.071-0.18-0.144-0.278-0.207
		c-0.084-0.053-0.176-0.097-0.267-0.143c-0.111-0.057-0.221-0.115-0.34-0.16c-0.027-0.011-0.051-0.027-0.078-0.037
		c-0.079-0.028-0.16-0.037-0.24-0.059c-0.083-0.023-0.16-0.058-0.246-0.074c-0.029-0.005-0.059-0.002-0.088-0.008
		c-0.132-0.022-0.264-0.028-0.395-0.035c-0.091-0.004-0.181-0.013-0.27-0.01c-0.14,0.004-0.275,0.024-0.412,0.046
		c-0.08,0.013-0.162,0.02-0.241,0.038c-0.136,0.032-0.266,0.078-0.396,0.126c-0.074,0.027-0.149,0.049-0.222,0.081
		c-0.126,0.057-0.244,0.126-0.363,0.198c-0.068,0.041-0.139,0.077-0.204,0.123c-0.108,0.075-0.206,0.164-0.306,0.251
		c-0.065,0.058-0.134,0.112-0.195,0.176c-0.083,0.087-0.155,0.184-0.23,0.279c-0.062,0.082-0.128,0.16-0.185,0.248
		C283.537,41.804,283.49,41.903,283.44,42.001z"/>
	<path fill="#FFFFFF" d="M357.6,110.752c7.56,0,14.739-9.1,22.592-28.635c1.201-2.988,2.311-5.964,3.311-8.789
		c-0.495-1.799-1.193-5.186-0.759-8.668c0.75,4.429,2.407,9.978,5.837,16.293c6.339,11.672,3.473,17.361,2.443,18.828
		c-1.09,1.551-2.684,2.332-4.261,2.094c-1.938-0.295-3.551-2.032-4.425-4.764c-0.572-1.789-2.483-2.773-4.274-2.203
		c-1.788,0.573-2.773,2.486-2.201,4.274c1.666,5.206,5.357,8.725,9.875,9.413c0.527,0.081,1.054,0.119,1.578,0.119
		c3.582,0,7.032-1.838,9.271-5.025c2.048-2.916,5.949-11.285-2.032-25.981c-7.232-13.316-5.355-22.385-5.313-22.578
		c0.024-0.099,0.025-0.197,0.04-0.295c0.017-0.112,0.039-0.223,0.044-0.334c0.006-0.113-0.006-0.224-0.012-0.335
		c-0.007-0.11-0.006-0.221-0.022-0.329c-0.017-0.11-0.05-0.215-0.077-0.322c-0.026-0.105-0.047-0.211-0.083-0.313
		c-0.037-0.102-0.088-0.196-0.134-0.294c-0.047-0.099-0.088-0.201-0.144-0.295c-0.055-0.09-0.121-0.171-0.183-0.256
		c-0.066-0.091-0.127-0.185-0.202-0.269c-0.068-0.077-0.148-0.143-0.225-0.214c-0.084-0.079-0.163-0.161-0.256-0.231
		c-0.083-0.063-0.177-0.113-0.267-0.168c-0.099-0.062-0.193-0.128-0.3-0.18c-0.098-0.047-0.204-0.078-0.307-0.117
		c-0.1-0.037-0.192-0.085-0.297-0.113c-0.014-0.003-0.028-0.003-0.042-0.006c-0.012-0.003-0.021-0.009-0.034-0.012
		c-0.09-0.022-0.179-0.023-0.268-0.038c-0.128-0.021-0.256-0.047-0.382-0.053c-0.09-0.004-0.176,0.007-0.264,0.01
		c-0.137,0.004-0.272,0.005-0.406,0.025c-0.079,0.012-0.153,0.038-0.23,0.055c-0.138,0.031-0.275,0.06-0.407,0.107
		c-0.071,0.026-0.137,0.063-0.206,0.094c-0.13,0.057-0.261,0.112-0.383,0.185c-0.067,0.041-0.128,0.092-0.192,0.137
		c-0.113,0.079-0.228,0.154-0.33,0.246c-0.067,0.06-0.123,0.13-0.186,0.195c-0.089,0.092-0.18,0.181-0.258,0.283
		c-0.062,0.083-0.111,0.175-0.167,0.264c-0.062,0.1-0.129,0.194-0.182,0.301c-0.05,0.104-0.083,0.217-0.123,0.327
		c-0.035,0.094-0.081,0.182-0.107,0.281c-0.035,0.13-3.577,13.205-8.769,26.119c-9.325,23.196-15.2,24.372-16.283,24.372
		c-0.905,0-1.28-0.283-1.621-0.774c-2.368-3.404-1.547-19.393,7.691-44.28c0.653-1.76-0.244-3.717-2.004-4.371
		c-1.762-0.651-3.717,0.244-4.37,2.003c-2.444,6.58-14.263,39.94-6.9,50.527C352.076,109.475,354.567,110.752,357.6,110.752z"/>
</g>
</svg>
