<?xml version="1.0" encoding="utf-8"?>
<!-- Generator: Adobe Illustrator 15.0.0, SVG Export Plug-In . SVG Version: 6.00 Build 0)  -->
<!DOCTYPE svg PUBLIC "-//W3C//DTD SVG 1.1//EN" "http://www.w3.org/Graphics/SVG/1.1/DTD/svg11.dtd">
<svg version="1.1" id="Layer_1" xmlns="http://www.w3.org/2000/svg" xmlns:xlink="http://www.w3.org/1999/xlink" x="0px" y="0px"
	 width="429.427px" height="195.218px" viewBox="1 -1 429.427 195.218" enable-background="new 1 -1 429.427 195.218"
	 xml:space="preserve">
<g id="Layer_2_1_">
</g>
<g id="Layer_1_2_">
	<g>
		<path fill="#FFFFFF" d="M427.832,71.34c-1.793-0.396-3.678,0.697-4.08,2.584c-2.086,9.143-8.539,17.092-13.908,17.092
			c-1.291,0-2.387-0.494-3.279-1.688c-1.99-2.588-3.379-8.846-0.895-17.988c3.375-12.618,11.725-21.46,16.994-21.46
			c0.395,0,0.594,0.895,0.691,1.091c0.898,3.677-1.986,11.924-13.713,18.086c-1.688,0.895-2.283,2.883-1.391,4.572
			c0.896,1.688,2.883,2.285,4.572,1.389c14.211-7.652,18.881-18.681,17.092-25.735c-0.994-3.774-3.676-6.163-7.252-6.163
			c-9.246,0-19.58,11.624-23.553,26.53c-2.582,9.838-1.887,18.783,2.086,23.852c2.189,2.779,5.17,4.373,8.646,4.373
			c9.641,0,17.988-11.33,20.471-22.361C430.812,73.527,429.617,71.738,427.832,71.34z"/>
		<path fill="#FFFFFF" d="M418.683,103.238c-39.35,17.592-101.553,10.037-146.863,4.57l-3.184-0.398
			c-2.881-0.396-5.76-0.693-8.539-0.99c-1.893-0.201-3.58,1.092-3.779,2.98c-0.201,1.887,1.092,3.576,2.98,3.775
			c2.779,0.301,5.564,0.695,8.545,0.996l3.182,0.396c24.342,2.98,53.357,6.457,81.383,6.457c25.24,0,49.686-2.883,69.16-11.625
			c1.689-0.795,2.484-2.783,1.689-4.471C422.464,103.238,420.375,102.543,418.683,103.238z"/>
		<path fill="#FFFFFF" d="M97.324,94.1c-18.778,1.49-35.174,4.471-48.887,9.041c-1.79,0.594-2.682,2.484-2.085,4.27
			c0.492,1.395,1.785,2.291,3.179,2.291c0.396,0,0.695-0.102,1.093-0.203c13.116-4.373,29.015-7.354,47.297-8.744
			c1.892-0.1,3.282-1.787,3.08-3.674C100.804,95.291,99.216,93.898,97.324,94.1z"/>
		<path fill="#FFFFFF" d="M195.502,98.469c-5.761-0.893-17.783-2.482-32.893-3.775c-1.884-0.197-3.476,1.189-3.677,3.078
			c-0.197,1.891,1.196,3.48,3.083,3.678c15.007,1.195,26.73,2.885,32.393,3.676c0.202,0,0.3,0,0.501,0
			c1.687,0,3.078-1.191,3.375-2.881C198.585,100.457,197.292,98.768,195.502,98.469z"/>
		<path fill="#FFFFFF" d="M68.411,8.042c0.2-0.992-0.102-1.983-0.798-2.781c-0.594-0.794-1.589-1.191-2.58-1.191
			c-14.409,0-26.631,7.751-34.281,21.96c-7.755,14.212-9.147,32.491-3.283,41.438c0.995,1.59,3.08,1.984,4.672,0.994
			c1.592-0.994,1.986-3.084,0.995-4.67c-3.977-6.163-3.48-21.465,3.579-34.582c3.375-6.26,10.827-16.395,24.24-18.085
			c-7.051,39.448-24.343,97.579-43.419,97.579c-2.981,0-5.168-0.895-6.659-2.881c-4.57-5.762-2.981-18.879-1.892-23.451
			c0.401-1.789-0.692-3.676-2.58-4.072c-1.79-0.398-3.677,0.693-4.078,2.582c0,0.199-1.09,4.869-1.29,10.635
			c-0.298,8.146,1.191,14.404,4.471,18.479c2.784,3.578,6.957,5.369,11.927,5.369c14.11,0,26.927-18.385,38.155-54.656
			C63.936,34.771,68.411,8.344,68.411,8.042z"/>
		<path fill="#FFFFFF" d="M363.238,37.359c2.58,0,4.672,2.087,4.672,4.667c0,2.582-2.092,4.673-4.672,4.673
			c-2.576,0-4.672-2.092-4.672-4.673C358.566,39.446,360.662,37.359,363.238,37.359z"/>
		<path fill="#FFFFFF" d="M154.862,72.336c-1.891,0-3.381,1.391-3.48,3.277c-0.495,16.494-12.22,27.527-22.853,27.527
			c-4.075,0-7.554-1.789-10.236-5.266c-6.458-8.352-7.453-24.744-2.683-42.532c7.155-26.829,25.839-49.587,40.743-49.587
			c4.669,0,7.749,1.49,9.639,4.472c3.476,5.465,2.087,15.902-1.194,22.756c-0.796,1.688-0.1,3.678,1.592,4.472
			c1.689,0.794,3.674,0.099,4.471-1.588c5.761-11.925,4.471-23.553,0.892-29.318C169.569,3.075,165.198-1,156.353-1
			c-16.895,0-35.772,20.272-45.115,47.4c-2.784,1.587-5.365,2.087-7.454,1.392c-3.578-1.092-5.462-4.971-5.462-4.971
			c-0.797-1.686-2.684-2.383-4.374-1.686c-1.689,0.696-2.484,2.584-1.89,4.273c1.49,4.072,1.392,10.033-0.294,16.295
			c-3.481,13.113-12.125,22.158-17.591,22.158c-1.393,0-2.482-0.592-3.478-1.789c-2.682-3.477-3.083-10.83-0.995-18.68
			c3.48-13.12,12.124-22.16,17.591-22.16c1.883,0,3.375-1.491,3.375-3.378s-1.492-3.378-3.375-3.378
			c-9.442,0-20.072,11.925-24.15,27.228c-2.679,10.132-1.884,19.277,2.088,24.546c2.186,2.877,5.365,4.469,8.747,4.469
			c9.438,0,20.072-11.922,24.146-27.229c0.893-3.479,1.491-6.854,1.589-10.034c0.594,0.298,1.193,0.496,1.889,0.694
			c4.177,1.291,8.745,0.497,13.513-2.387c0.102-0.097,0.199-0.097,0.301-0.196l0,0c-1.892,2.384-5.166,3.776-7.158,4.473
			c-4.568,19.079-2.98,36.067,4.473,45.807c3.976,5.166,9.344,7.854,15.602,7.854c15.501,0,29.013-15.602,29.611-34.088
			C158.138,73.924,156.648,72.434,154.862,72.336z"/>
		<path fill="#FFFFFF" d="M251.546,84.76c-1.887,0-3.377,1.387-3.477,3.273c-0.496,16.498-12.223,27.527-22.854,27.527
			c-4.078,0-7.553-1.787-10.235-5.266c-6.462-8.348-7.454-24.742-2.687-42.627c7.158-26.833,25.837-49.587,40.742-49.587
			c4.672,0,7.754,1.49,9.639,4.471c3.482,5.462,2.09,15.896-1.191,22.754c-0.795,1.691-0.1,3.679,1.594,4.472
			c1.688,0.794,3.672,0.102,4.469-1.588c5.764-11.928,4.471-23.55,0.895-29.314c-2.188-3.48-6.561-7.551-15.404-7.551
			c-14.111,0-29.613,14.209-39.748,34.578c-2.779,1.49-5.266,1.989-7.451,1.39c-3.576-1.089-5.466-4.966-5.466-4.966
			c-0.795-1.691-2.684-2.387-4.375-1.691c-1.687,0.696-2.481,2.587-1.884,4.275c1.491,4.075,1.389,10.036-0.3,16.296
			c-3.475,13.116-12.123,22.161-17.584,22.161c-1.394,0-2.49-0.6-3.48-1.791c-2.685-3.475-3.08-10.83-0.996-18.682
			c3.477-13.116,12.124-22.161,17.588-22.161c1.891,0,3.382-1.491,3.382-3.374c0-1.892-1.491-3.382-3.382-3.382
			c-9.438,0-20.073,11.925-24.142,27.229c-2.688,10.133-1.891,19.276,2.083,24.543c2.186,2.883,5.368,4.471,8.745,4.471
			c9.439,0,20.074-11.922,24.147-27.228c0.894-3.474,1.491-6.855,1.589-10.034c0.597,0.295,1.196,0.497,1.889,0.696
			c3.974,1.191,8.349,0.595,12.82-1.989c-2.386,2.685-6.461,4.075-7.853,4.471c-1.188,3.079-2.188,6.363-3.08,9.64
			c-5.365,20.17-3.973,38.256,3.874,48.395c3.979,5.166,9.345,7.85,15.604,7.85c15.5,0,29.016-15.602,29.607-34.086
			C254.826,86.445,253.437,84.857,251.546,84.76z"/>
		<path fill="#FFFFFF" d="M281.457,39.145c-0.1,0.098-0.1,0.2-0.199,0.299v0.101c-0.396,1.09-0.695,2.384-0.793,3.875
			c-3.08,14.109-10.73,43.223-19.775,51.473c-1.391,1.291-1.49,3.379-0.199,4.77c0.697,0.693,1.588,1.092,2.484,1.092
			c0.795,0,1.594-0.297,2.285-0.893c8.447-7.754,15.008-28.025,18.881-42.629c-1.094-1.389-2.584-3.776-2.684-6.66
			c1.193,2.985,3.479,5.865,7.555,7.653c4.268,1.887,6.656,2.981,2.184,13.812c-3.477,8.545-6.557,18.086-3.676,24.244
			c1.191,2.486,3.377,4.275,6.162,5.07c0.793,0.199,1.785,0.396,2.783,0.396c3.277,0,7.352-1.588,11.623-7.354
			c0.998-1.291,1.791-2.584,2.486-3.777c-0.596,3.281-1.988,5.865-2.783,7.057c0.1,0.299,0.297,0.598,0.398,0.896
			c1.49,2.781,3.877,4.57,6.857,5.266c0.795,0.197,1.59,0.299,2.285,0.299c4.57,0,8.844-3.182,12.719-9.344
			c0.598,4.576,2.088,8.051,4.568,10.238c0.598,0.596,1.494,0.891,2.285,0.891c0.895,0,1.893-0.396,2.486-1.092
			c1.191-1.391,1.092-3.576-0.297-4.768c-5.865-5.27-0.896-29.117,4.568-44.42c0.596-1.788-0.295-3.675-2.086-4.271
			c-1.789-0.596-3.676,0.296-4.27,2.086c-0.102,0.298-2.289,6.359-4.275,14.31c-0.1,0.197-0.195,0.496-0.195,0.695
			c0,0.1-1.893,8.445-5.17,16.299c-3.777,8.838-7.854,13.512-11.23,12.816c-0.994-0.203-1.789-0.795-2.285-1.889
			c-3.877-7.254,2.188-29.117,6.857-41.336c0.697-1.793-0.199-3.677-1.891-4.373c-1.785-0.695-3.676,0.198-4.373,1.884
			c-0.992,2.489-7.051,18.585-8.246,32.2c-1.887,4.27-6.854,12.32-10.928,11.127c-1.291-0.398-1.791-0.992-1.986-1.592
			c-2.09-4.27,2.383-15.201,3.775-18.781c4.27-10.432,4.764-17.884-5.768-22.553c-4.072-1.788-4.668-5.167-4.568-7.653
			c0.396-1.79,0.598-2.98,0.695-3.181v-0.099c0-0.098,0-0.196,0-0.396c0-0.099,0-0.201,0-0.299c0-0.098,0-0.197,0-0.295
			c0-0.099,0-0.201-0.098-0.299c-0.102-0.102-0.102-0.2-0.102-0.299c0-0.097-0.1-0.197-0.1-0.298c0-0.099-0.102-0.201-0.199-0.299
			c-0.1-0.098-0.1-0.197-0.197-0.295c-0.1-0.099-0.1-0.201-0.195-0.3c-0.104-0.102-0.104-0.2-0.203-0.2
			c-0.102-0.099-0.199-0.099-0.199-0.197c-0.1-0.099-0.197-0.099-0.295-0.2c-0.104-0.099-0.201-0.099-0.303-0.099
			c-0.098-0.102-0.197-0.102-0.295-0.2h-0.098c-0.098,0-0.201,0-0.201-0.098c-0.1,0-0.201-0.099-0.201-0.099h-0.098
			c-0.1,0-0.297,0-0.396,0s-0.201,0-0.301,0c-0.098,0-0.295,0-0.393,0c-0.102,0-0.203,0-0.203,0c-0.1,0-0.297,0.099-0.395,0.099
			s-0.098,0-0.201,0.098c-0.098,0.099-0.201,0.099-0.396,0.2c-0.1,0-0.1,0.099-0.197,0.099c-0.102,0.101-0.199,0.2-0.303,0.298
			c-0.098,0.099-0.098,0.099-0.195,0.197c-0.1,0.102-0.197,0.201-0.197,0.302c-0.1,0.099-0.1,0.197-0.201,0.197
			C281.556,38.948,281.556,39.046,281.457,39.145z"/>
		<path fill="#FFFFFF" d="M355.191,107.512c7.551,0,14.605-9.043,22.457-28.418c1.193-2.982,2.285-5.963,3.279-8.746
			c-0.496-1.787-1.193-5.168-0.795-8.644c0.795,4.373,2.383,9.937,5.762,16.197c6.26,11.623,3.48,17.289,2.383,18.68
			c-1.09,1.592-2.68,2.285-4.271,2.088c-1.887-0.299-3.574-1.986-4.369-4.77c-0.598-1.791-2.488-2.783-4.273-2.186
			c-1.791,0.598-2.785,2.484-2.188,4.273c1.689,5.168,5.363,8.646,9.836,9.34c0.5,0.1,1.098,0.1,1.592,0.1
			c3.576,0,6.959-1.791,9.242-4.969c1.984-2.881,5.863-11.227-1.99-25.836c-7.152-13.218-5.363-22.259-5.266-22.457
			c0-0.102,0-0.199,0-0.302c0-0.099,0-0.196,0-0.295c0-0.099,0-0.197,0-0.299c0-0.098,0-0.201,0-0.298
			c0-0.099-0.098-0.196-0.098-0.296c0-0.102,0-0.199-0.1-0.302c0-0.099-0.096-0.196-0.096-0.295c0-0.099-0.104-0.198-0.104-0.299
			c-0.1-0.097-0.1-0.201-0.201-0.298c-0.098-0.099-0.098-0.197-0.195-0.296c-0.1-0.102-0.1-0.102-0.199-0.199
			c-0.1-0.104-0.197-0.202-0.301-0.202c-0.098-0.097-0.197-0.097-0.297-0.196c-0.098-0.099-0.195-0.099-0.297-0.198
			c-0.1,0-0.201-0.102-0.299-0.102c-0.1,0-0.197-0.097-0.295-0.097l0,0l0,0c-0.104,0-0.201,0-0.305,0c-0.098,0-0.293,0-0.393-0.103
			c-0.1,0-0.199,0-0.299,0c-0.102,0-0.299,0-0.396,0c-0.1,0-0.201,0-0.201,0.103c-0.098,0-0.299,0.097-0.396,0.097
			c-0.1,0-0.1,0.102-0.197,0.102c-0.098,0.099-0.299,0.099-0.402,0.198c-0.096,0-0.096,0.099-0.195,0.099
			c-0.098,0.097-0.197,0.196-0.299,0.196c-0.098,0.104-0.098,0.104-0.201,0.2c-0.098,0.102-0.195,0.201-0.293,0.3
			c-0.1,0.099-0.1,0.196-0.199,0.299c-0.102,0.097-0.102,0.199-0.199,0.297c0,0.099-0.102,0.198-0.102,0.295
			c0,0.099-0.098,0.202-0.098,0.299c0,0.102-3.578,13.115-8.748,25.938c-9.238,23.053-15.102,24.244-16.193,24.244
			c-0.896,0-1.291-0.297-1.59-0.795c-2.389-3.379-1.492-19.277,7.654-44.019c0.691-1.79-0.203-3.677-1.992-4.373
			c-1.787-0.696-3.676,0.196-4.371,1.99c-2.385,6.554-14.211,39.644-6.855,50.177C349.726,106.219,352.21,107.512,355.191,107.512z"
			/>
	</g>
</g>
<g id="Layer_3_1_">
	<text transform="matrix(1 0 0 1 10.1445 162.7715)" fill="#FFFFFF" font-family="'Gotham-Book'" font-size="21.7593">JOCO CRUISE 2017 BOOKING OPENS</text>
	<text transform="matrix(1 0 0 1 76.0273 188.9082)" fill="#FFFFFF" font-family="'Gotham-Book'" font-size="21.7593">FRIDAY, JANUARY 29TH!</text>
</g>
</svg>
