<?xml version="1.0" encoding="utf-8"?>
<!-- Generator: Adobe Illustrator 15.0.0, SVG Export Plug-In . SVG Version: 6.00 Build 0)  -->
<!DOCTYPE svg PUBLIC "-//W3C//DTD SVG 1.1//EN" "http://www.w3.org/Graphics/SVG/1.1/DTD/svg11.dtd">
<svg version="1.1" id="Layer_1" xmlns="http://www.w3.org/2000/svg" xmlns:xlink="http://www.w3.org/1999/xlink" x="0px" y="0px"
	 width="120px" height="740px" viewBox="0 0 120 740" enable-background="new 0 0 120 740" xml:space="preserve">
<g id="Layer_2">
	<polygon fill="#76FFFF" stroke="#000000" stroke-miterlimit="10" points="89.566,348.267 89.566,348.267 89.566,348.267 	"/>
</g>
<g id="Layer_1_1_">
	<g id="Layer_2_1_">
	</g>
	<g id="Layer_1_2_">
		<g>
			<path fill="#FFFFFF" d="M253.553,346.45c-0.503-0.112-1.033,0.196-1.146,0.727c-0.587,2.543-2.376,4.779-3.885,4.779
				c-0.363,0-0.671-0.14-0.922-0.475c-0.56-0.727-0.95-2.459-0.252-5.03c0.95-3.521,3.271-6.008,4.751-6.008
				c0.111,0,0.168,0.251,0.195,0.307c0.252,1.034-0.559,3.326-3.828,5.059c-0.475,0.251-0.643,0.81-0.392,1.285
				c0.252,0.475,0.811,0.643,1.286,0.392c3.968-2.152,5.281-5.226,4.778-7.182c-0.279-1.062-1.034-1.733-2.04-1.733
				c-2.57,0-5.478,3.242-6.596,7.406c-0.727,2.739-0.53,5.254,0.588,6.679c0.614,0.782,1.453,1.229,2.402,1.229
				c2.684,0,5.031-3.158,5.729-6.26C254.391,347.065,254.056,346.562,253.553,346.45z"/>
			<path fill="#FFFFFF" d="M251.01,355.365c-10.982,4.918-28.393,2.795-41.053,1.286l-0.895-0.112
				c-0.811-0.112-1.621-0.195-2.375-0.279c-0.531-0.056-1.006,0.307-1.062,0.838c-0.055,0.531,0.309,1.006,0.839,1.062
				c0.782,0.083,1.565,0.195,2.376,0.279l0.894,0.112c6.791,0.838,14.923,1.816,22.748,1.816c7.042,0,13.89-0.811,19.339-3.242
				c0.475-0.224,0.699-0.782,0.475-1.257C252.072,355.365,251.484,355.169,251.01,355.365z"/>
			<path fill="#FFFFFF" d="M161.191,352.822c-5.254,0.419-9.837,1.258-13.666,2.515c-0.502,0.168-0.754,0.699-0.586,1.202
				c0.139,0.391,0.502,0.643,0.894,0.643c0.112,0,0.196-0.028,0.308-0.056c3.661-1.229,8.104-2.068,13.219-2.431
				c0.531-0.028,0.922-0.503,0.866-1.034C162.17,353.157,161.723,352.766,161.191,352.822z"/>
			<path fill="#FFFFFF" d="M188.635,354.052c-1.621-0.252-4.975-0.699-9.195-1.062c-0.53-0.056-0.978,0.335-1.033,0.866
				c-0.057,0.531,0.336,0.978,0.866,1.034c4.192,0.335,7.462,0.811,9.055,1.034c0.056,0,0.083,0,0.14,0
				c0.475,0,0.866-0.335,0.95-0.811C189.5,354.583,189.137,354.107,188.635,354.052z"/>
			<path fill="#FFFFFF" d="M153.115,328.76c0.056-0.279-0.028-0.559-0.224-0.782c-0.168-0.224-0.447-0.335-0.727-0.335
				c-4.024,0-7.434,2.18-9.585,6.148c-2.181,3.968-2.544,9.083-0.923,11.57c0.279,0.447,0.866,0.559,1.313,0.279
				c0.447-0.279,0.559-0.866,0.279-1.313c-1.117-1.732-0.979-6.008,1.006-9.669c0.951-1.761,3.019-4.583,6.764-5.059
				c-1.984,11.011-6.791,27.275-12.129,27.275c-0.838,0-1.453-0.251-1.873-0.811c-1.285-1.621-0.838-5.282-0.53-6.567
				c0.112-0.503-0.196-1.034-0.727-1.146c-0.503-0.112-1.034,0.195-1.146,0.727c0,0.056-0.308,1.369-0.363,2.962
				c-0.084,2.264,0.335,4.024,1.258,5.17c0.781,1.006,1.955,1.509,3.324,1.509c3.941,0,7.518-5.142,10.676-15.286
				C151.857,336.25,153.115,328.844,153.115,328.76z"/>
			<path fill="#FFFFFF" d="M235.5,336.949c0.727,0,1.313,0.587,1.313,1.313s-0.587,1.313-1.313,1.313s-1.313-0.587-1.313-1.313
				C234.215,337.536,234.801,336.949,235.5,336.949z"/>
			<path fill="#FFFFFF" d="M177.288,346.729c-0.53,0-0.95,0.392-0.978,0.922c-0.141,4.611-3.41,7.685-6.4,7.685
				c-1.146,0-2.123-0.503-2.85-1.481c-1.816-2.348-2.096-6.903-0.755-11.877c2.013-7.49,7.21-13.861,11.374-13.861
				c1.313,0,2.152,0.419,2.683,1.257c0.978,1.537,0.587,4.444-0.335,6.372c-0.225,0.475-0.028,1.034,0.447,1.257
				c0.475,0.224,1.033,0.028,1.258-0.447c1.62-3.325,1.257-6.595,0.251-8.188c-0.614-0.978-1.845-2.096-4.304-2.096
				c-4.723,0-10.005,5.673-12.604,13.246c-0.783,0.447-1.51,0.587-2.096,0.391c-1.006-0.307-1.537-1.397-1.537-1.397
				c-0.225-0.475-0.755-0.671-1.23-0.475c-0.475,0.195-0.698,0.727-0.531,1.202c0.42,1.146,0.393,2.794-0.083,4.555
				c-0.978,3.661-3.382,6.204-4.919,6.204c-0.391,0-0.698-0.168-0.978-0.503c-0.755-0.978-0.866-3.018-0.28-5.226
				c0.979-3.661,3.382-6.204,4.919-6.204c0.531,0,0.95-0.419,0.95-0.95c0-0.531-0.419-0.95-0.95-0.95
				c-2.627,0-5.617,3.326-6.735,7.602c-0.754,2.822-0.53,5.394,0.588,6.847c0.614,0.811,1.509,1.257,2.431,1.257
				c2.627,0,5.617-3.326,6.735-7.601c0.252-0.978,0.419-1.928,0.447-2.795c0.168,0.084,0.335,0.14,0.531,0.196
				c1.173,0.363,2.431,0.14,3.771-0.67c0.028-0.028,0.057-0.028,0.084-0.056l0,0c-0.531,0.671-1.453,1.062-2.012,1.258
				c-1.285,5.337-0.838,10.088,1.258,12.799c1.117,1.454,2.599,2.208,4.359,2.208c4.332,0,8.104-4.36,8.271-9.53
				C178.183,347.177,177.764,346.758,177.288,346.729z"/>
			<path fill="#FFFFFF" d="M204.284,350.195c-0.531,0-0.95,0.392-0.978,0.922c-0.141,4.611-3.41,7.685-6.4,7.685
				c-1.146,0-2.123-0.503-2.851-1.481c-1.816-2.32-2.096-6.903-0.755-11.905c2.013-7.489,7.211-13.861,11.375-13.861
				c1.312,0,2.18,0.419,2.683,1.257c0.978,1.537,0.587,4.443-0.335,6.372c-0.225,0.475-0.028,1.034,0.446,1.258
				c0.476,0.224,1.034,0.028,1.258-0.447c1.621-3.326,1.257-6.567,0.251-8.188c-0.614-0.978-1.844-2.124-4.303-2.124
				c-3.941,0-8.272,3.968-11.096,9.669c-0.781,0.419-1.48,0.559-2.096,0.391c-1.006-0.308-1.537-1.397-1.537-1.397
				c-0.223-0.475-0.754-0.67-1.229-0.475c-0.476,0.196-0.699,0.727-0.531,1.202c0.419,1.146,0.391,2.795-0.084,4.555
				c-0.979,3.661-3.381,6.204-4.918,6.204c-0.393,0-0.699-0.167-0.979-0.503c-0.755-0.978-0.867-3.018-0.279-5.226
				c0.978-3.661,3.381-6.204,4.918-6.204c0.531,0,0.95-0.419,0.95-0.95c0-0.531-0.419-0.95-0.95-0.95
				c-2.627,0-5.617,3.326-6.734,7.601c-0.755,2.823-0.531,5.394,0.586,6.847c0.615,0.811,1.51,1.258,2.432,1.258
				c2.627,0,5.617-3.326,6.734-7.602c0.252-0.978,0.42-1.928,0.447-2.794c0.168,0.084,0.336,0.14,0.531,0.196
				c1.118,0.335,2.32,0.167,3.578-0.559c-0.672,0.754-1.817,1.146-2.209,1.258c-0.335,0.866-0.614,1.789-0.865,2.683
				c-1.51,5.645-1.118,10.703,1.09,13.526c1.117,1.453,2.599,2.18,4.359,2.18c4.332,0,8.104-4.359,8.271-9.529
				C205.207,350.67,204.814,350.223,204.284,350.195z"/>
			<path fill="#FFFFFF" d="M212.668,337.452c-0.027,0.028-0.027,0.056-0.057,0.084v0.028c-0.111,0.307-0.195,0.67-0.223,1.09
				c-0.867,3.94-2.99,12.073-5.533,14.392c-0.392,0.363-0.42,0.95-0.057,1.341c0.196,0.196,0.447,0.308,0.699,0.308
				c0.224,0,0.447-0.084,0.643-0.251c2.348-2.18,4.191-7.825,5.281-11.905c-0.307-0.391-0.727-1.062-0.754-1.872
				c0.336,0.838,0.979,1.649,2.124,2.152c1.202,0.531,1.872,0.838,0.614,3.856c-0.978,2.375-1.844,5.058-1.033,6.763
				c0.335,0.699,0.949,1.202,1.732,1.425c0.223,0.056,0.503,0.112,0.782,0.112c0.923,0,2.067-0.447,3.241-2.068
				c0.28-0.363,0.504-0.727,0.699-1.062c-0.168,0.922-0.559,1.649-0.783,1.984c0.029,0.083,0.084,0.167,0.112,0.251
				c0.419,0.782,1.091,1.285,1.929,1.481c0.223,0.056,0.447,0.084,0.643,0.084c1.285,0,2.459-0.895,3.549-2.599
				c0.168,1.286,0.587,2.264,1.285,2.851c0.168,0.167,0.42,0.251,0.644,0.251c0.251,0,0.53-0.112,0.698-0.308
				c0.336-0.391,0.308-1.006-0.084-1.341c-1.648-1.481-0.251-8.132,1.286-12.408c0.167-0.503-0.084-1.034-0.587-1.202
				c-0.504-0.168-1.034,0.083-1.201,0.586c-0.029,0.084-0.644,1.789-1.202,3.997c-0.028,0.056-0.056,0.14-0.056,0.196
				c0,0.028-0.531,2.347-1.453,4.555c-1.062,2.459-2.209,3.773-3.131,3.577c-0.279-0.056-0.502-0.224-0.643-0.531
				c-1.09-2.04,0.615-8.132,1.929-11.542c0.195-0.503-0.056-1.034-0.531-1.23c-0.503-0.195-1.034,0.056-1.229,0.531
				c-0.279,0.699-1.984,5.198-2.291,8.999c-0.531,1.202-1.929,3.438-3.047,3.102c-0.363-0.112-0.503-0.28-0.559-0.447
				c-0.587-1.202,0.67-4.248,1.062-5.254c1.202-2.906,1.342-5.002-1.62-6.316c-1.146-0.503-1.314-1.453-1.286-2.151
				c0.112-0.503,0.168-0.839,0.196-0.895v-0.028c0-0.028,0-0.056,0-0.112c0-0.028,0-0.056,0-0.084s0-0.056,0-0.084
				c0-0.028,0-0.056-0.028-0.083s-0.028-0.056-0.028-0.084s-0.027-0.056-0.027-0.084c0-0.028-0.028-0.056-0.057-0.083
				c-0.027-0.028-0.027-0.056-0.056-0.084s-0.028-0.056-0.056-0.084c-0.028-0.028-0.028-0.056-0.057-0.056
				c-0.027-0.028-0.055-0.028-0.055-0.056c-0.028-0.028-0.057-0.028-0.084-0.056c-0.028-0.028-0.057-0.028-0.084-0.028
				c-0.028-0.028-0.057-0.028-0.084-0.056h-0.028c-0.028,0-0.056,0-0.056-0.028c-0.027,0-0.057-0.028-0.057-0.028h-0.027
				c-0.027,0-0.084,0-0.111,0c-0.028,0-0.057,0-0.084,0c-0.028,0-0.084,0-0.111,0c-0.029,0-0.057,0-0.057,0
				c-0.027,0-0.084,0.028-0.111,0.028c-0.028,0-0.028,0-0.057,0.028c-0.027,0.028-0.056,0.028-0.111,0.056
				c-0.027,0-0.027,0.028-0.057,0.028c-0.027,0.028-0.055,0.056-0.083,0.084c-0.028,0.028-0.028,0.028-0.056,0.056
				c-0.028,0.028-0.057,0.056-0.057,0.084c-0.027,0.028-0.027,0.056-0.056,0.056C212.695,337.396,212.695,337.424,212.668,337.452z"
				/>
			<path fill="#FFFFFF" d="M233.264,356.566c2.125,0,4.08-2.515,6.288-7.937c0.335-0.838,0.644-1.677,0.923-2.431
				c-0.141-0.503-0.336-1.453-0.225-2.403c0.225,1.229,0.672,2.767,1.621,4.527c1.761,3.242,0.979,4.834,0.671,5.226
				c-0.308,0.447-0.755,0.643-1.202,0.587c-0.53-0.083-1.006-0.559-1.229-1.341c-0.168-0.503-0.699-0.783-1.202-0.615
				c-0.503,0.167-0.782,0.699-0.614,1.202c0.475,1.453,1.508,2.403,2.738,2.599c0.14,0.028,0.307,0.028,0.447,0.028
				c1.006,0,1.956-0.503,2.57-1.397c0.56-0.811,1.649-3.13-0.559-7.21c-2.012-3.689-1.509-6.232-1.48-6.288c0-0.028,0-0.056,0-0.083
				s0-0.056,0-0.084s0-0.056,0-0.084c0-0.028,0-0.056,0-0.083c0-0.028-0.028-0.056-0.028-0.084s0-0.056-0.028-0.084
				c0-0.028-0.027-0.056-0.027-0.083c0-0.028-0.028-0.056-0.028-0.084c-0.028-0.028-0.028-0.056-0.056-0.084
				c-0.028-0.028-0.028-0.056-0.057-0.084c-0.027-0.028-0.027-0.028-0.055-0.056c-0.029-0.028-0.057-0.056-0.084-0.056
				c-0.028-0.028-0.057-0.028-0.084-0.056c-0.028-0.028-0.057-0.028-0.084-0.056c-0.028,0-0.057-0.028-0.084-0.028
				s-0.057-0.028-0.084-0.028l0,0l0,0c-0.027,0-0.056,0-0.084,0c-0.027,0-0.084,0-0.111-0.028c-0.028,0-0.057,0-0.084,0
				s-0.084,0-0.111,0c-0.028,0-0.057,0-0.057,0.028c-0.027,0-0.084,0.028-0.111,0.028c-0.028,0-0.028,0.028-0.057,0.028
				c-0.027,0.028-0.084,0.028-0.111,0.056c-0.027,0-0.027,0.028-0.056,0.028c-0.028,0.028-0.056,0.056-0.084,0.056
				c-0.028,0.028-0.028,0.028-0.056,0.056c-0.028,0.028-0.057,0.056-0.084,0.084c-0.028,0.028-0.028,0.056-0.057,0.084
				c-0.027,0.028-0.027,0.056-0.055,0.083c0,0.028-0.028,0.056-0.028,0.084s-0.028,0.056-0.028,0.084s-1.006,3.661-2.432,7.238
				c-2.57,6.456-4.219,6.763-4.527,6.763c-0.251,0-0.363-0.084-0.447-0.224c-0.67-0.95-0.418-5.394,2.152-12.296
				c0.195-0.503-0.056-1.034-0.559-1.229c-0.503-0.196-1.034,0.056-1.23,0.559c-0.67,1.845-3.968,11.067-1.928,14.029
				C231.727,356.203,232.426,356.566,233.264,356.566z"/>
		</g>
	</g>
</g>
<g id="Layer_3">
	<g id="Layer_3_1_">
		<g enable-background="new    ">
			<path fill="#FFFFFF" d="M140.107,370.416l0.379-0.326c0.287,0.432,0.579,0.666,1.064,0.666c0.525,0,0.912-0.379,0.912-1.118
				v-3.121h0.532v3.114c0,0.545-0.159,0.958-0.426,1.224c-0.26,0.253-0.612,0.386-1.024,0.386
				C140.846,371.24,140.4,370.895,140.107,370.416z"/>
			<path fill="#FFFFFF" d="M144.035,368.858v-0.013c0-1.284,0.965-2.408,2.382-2.408s2.368,1.111,2.368,2.395v0.013
				c0,1.284-0.965,2.409-2.381,2.409C144.986,371.254,144.035,370.143,144.035,368.858z M148.24,368.858v-0.013
				c0-1.058-0.771-1.922-1.836-1.922s-1.823,0.852-1.823,1.909v0.013c0,1.058,0.771,1.922,1.836,1.922
				S148.24,369.917,148.24,368.858z"/>
			<path fill="#FFFFFF" d="M149.695,368.858v-0.013c0-1.317,0.984-2.408,2.355-2.408c0.844,0,1.35,0.299,1.815,0.738l-0.358,0.386
				c-0.393-0.373-0.832-0.639-1.465-0.639c-1.031,0-1.803,0.838-1.803,1.909v0.013c0,1.078,0.779,1.922,1.803,1.922
				c0.639,0,1.059-0.246,1.504-0.671l0.346,0.339c-0.485,0.492-1.018,0.818-1.862,0.818
				C150.687,371.254,149.695,370.196,149.695,368.858z"/>
			<path fill="#FFFFFF" d="M154.476,368.858v-0.013c0-1.284,0.964-2.408,2.382-2.408c1.416,0,2.368,1.111,2.368,2.395v0.013
				c0,1.284-0.965,2.409-2.382,2.409S154.476,370.143,154.476,368.858z M158.68,368.858v-0.013c0-1.058-0.771-1.922-1.836-1.922
				s-1.822,0.852-1.822,1.909v0.013c0,1.058,0.771,1.922,1.836,1.922S158.68,369.917,158.68,368.858z"/>
			<path fill="#FFFFFF" d="M162.132,368.858v-0.013c0-1.317,0.985-2.408,2.355-2.408c0.845,0,1.351,0.299,1.815,0.738l-0.358,0.386
				c-0.393-0.373-0.832-0.639-1.464-0.639c-1.031,0-1.803,0.838-1.803,1.909v0.013c0,1.078,0.778,1.922,1.803,1.922
				c0.639,0,1.058-0.246,1.504-0.671l0.346,0.339c-0.486,0.492-1.018,0.818-1.863,0.818
				C163.123,371.254,162.132,370.196,162.132,368.858z"/>
			<path fill="#FFFFFF" d="M167.252,366.517h2.002c0.572,0,1.031,0.173,1.324,0.466c0.227,0.227,0.359,0.552,0.359,0.918v0.014
				c0,0.771-0.532,1.224-1.264,1.357l1.43,1.903h-0.645l-1.352-1.81h-1.33v1.81h-0.525V366.517z M169.208,368.892
				c0.698,0,1.197-0.359,1.197-0.958v-0.014c0-0.572-0.438-0.918-1.19-0.918h-1.438v1.89H169.208z"/>
		</g>
		<g enable-background="new    ">
			<path fill="#FFFFFF" d="M172.121,369.225v-2.708h0.525v2.675c0,1.004,0.533,1.57,1.424,1.57c0.859,0,1.404-0.52,1.404-1.537
				v-2.708H176v2.668c0,1.357-0.778,2.062-1.942,2.062C172.906,371.247,172.121,370.542,172.121,369.225z"/>
		</g>
		<g enable-background="new    ">
			<path fill="#FFFFFF" d="M177.69,366.517h0.526v4.657h-0.526V366.517z"/>
			<path fill="#FFFFFF" d="M179.275,370.495l0.326-0.386c0.485,0.439,0.951,0.658,1.597,0.658c0.625,0,1.038-0.332,1.038-0.791
				v-0.014c0-0.432-0.233-0.679-1.211-0.885c-1.071-0.233-1.563-0.579-1.563-1.344v-0.013c0-0.732,0.646-1.271,1.53-1.271
				c0.678,0,1.164,0.193,1.637,0.572l-0.307,0.406c-0.432-0.353-0.865-0.505-1.344-0.505c-0.605,0-0.991,0.333-0.991,0.751v0.013
				c0,0.439,0.239,0.686,1.265,0.905c1.037,0.226,1.516,0.605,1.516,1.317v0.013c0,0.799-0.664,1.317-1.59,1.317
				C180.439,371.24,179.834,370.994,179.275,370.495z"/>
			<path fill="#FFFFFF" d="M183.843,366.517h3.366v0.479h-2.841v1.59h2.542v0.479h-2.542v1.63h2.874v0.479h-3.399V366.517z"/>
			<path fill="#FFFFFF" d="M189.961,370.768l1.69-1.49c0.712-0.639,0.972-0.998,0.972-1.464c0-0.545-0.434-0.891-0.938-0.891
				c-0.532,0-0.878,0.279-1.251,0.798l-0.386-0.28c0.419-0.625,0.858-0.991,1.677-0.991c0.838,0,1.443,0.559,1.443,1.317v0.013
				c0,0.679-0.359,1.098-1.178,1.81l-1.244,1.105h2.469v0.479h-3.254V370.768z"/>
			<path fill="#FFFFFF" d="M194.043,368.858v-0.013c0-1.304,0.778-2.408,1.976-2.408c1.198,0,1.956,1.091,1.956,2.395v0.013
				c0,1.304-0.771,2.409-1.969,2.409C194.801,371.254,194.043,370.163,194.043,368.858z M197.43,368.858v-0.013
				c0-1.018-0.56-1.929-1.424-1.929c-0.872,0-1.418,0.892-1.418,1.916v0.013c0,1.018,0.56,1.929,1.431,1.929
				C196.891,370.774,197.43,369.876,197.43,368.858z"/>
			<path fill="#FFFFFF" d="M199.549,367.029l-0.879,0.272l-0.126-0.426l1.138-0.393h0.386v4.69h-0.519V367.029z"/>
			<path fill="#FFFFFF" d="M203.755,366.996h-2.562v-0.479h3.16v0.393l-2.115,4.265h-0.586L203.755,366.996z"/>
			<path fill="#FFFFFF" d="M207.365,366.517h1.982c0.532,0,0.951,0.153,1.218,0.413c0.192,0.2,0.3,0.446,0.3,0.745v0.013
				c0,0.605-0.373,0.918-0.739,1.078c0.552,0.166,0.998,0.485,0.998,1.124v0.014c0,0.798-0.672,1.271-1.69,1.271h-2.068V366.517z
				 M209.262,368.593c0.631,0,1.07-0.286,1.07-0.832v-0.013c0-0.459-0.365-0.758-1.031-0.758h-1.416v1.604H209.262z
				 M209.447,370.701c0.705,0,1.145-0.312,1.145-0.831v-0.014c0-0.505-0.426-0.798-1.237-0.798h-1.47v1.643H209.447z"/>
			<path fill="#FFFFFF" d="M211.966,368.858v-0.013c0-1.284,0.965-2.408,2.382-2.408s2.369,1.111,2.369,2.395v0.013
				c0,1.284-0.965,2.409-2.383,2.409C212.918,371.254,211.966,370.143,211.966,368.858z M216.171,368.858v-0.013
				c0-1.058-0.772-1.922-1.837-1.922s-1.822,0.852-1.822,1.909v0.013c0,1.058,0.771,1.922,1.836,1.922
				S216.171,369.917,216.171,368.858z"/>
			<path fill="#FFFFFF" d="M217.625,368.858v-0.013c0-1.284,0.965-2.408,2.382-2.408s2.368,1.111,2.368,2.395v0.013
				c0,1.284-0.965,2.409-2.381,2.409C218.576,371.254,217.625,370.143,217.625,368.858z M221.83,368.858v-0.013
				c0-1.058-0.771-1.922-1.836-1.922s-1.823,0.852-1.823,1.909v0.013c0,1.058,0.771,1.922,1.836,1.922
				S221.83,369.917,221.83,368.858z"/>
			<path fill="#FFFFFF" d="M223.49,366.517h0.525v2.781l2.675-2.781h0.679l-1.996,2.036l2.082,2.621h-0.658l-1.789-2.255
				l-0.992,1.004v1.251h-0.525V366.517z"/>
			<path fill="#FFFFFF" d="M228.324,366.517h0.525v4.657h-0.525V366.517z"/>
			<path fill="#FFFFFF" d="M230.215,366.517h0.492l2.935,3.732v-3.732h0.513v4.657h-0.42l-3.007-3.819v3.819h-0.513V366.517z"/>
			<path fill="#FFFFFF" d="M235.269,368.858v-0.013c0-1.277,0.938-2.408,2.335-2.408c0.785,0,1.271,0.226,1.736,0.619l-0.339,0.399
				c-0.359-0.313-0.759-0.532-1.417-0.532c-1.031,0-1.77,0.871-1.77,1.909v0.013c0,1.111,0.712,1.936,1.843,1.936
				c0.532,0,1.024-0.206,1.344-0.466v-1.157h-1.417v-0.473h1.923v1.856c-0.433,0.386-1.085,0.712-1.87,0.712
				C236.174,371.254,235.269,370.189,235.269,368.858z"/>
			<path fill="#FFFFFF" d="M242.738,366.517h0.526v4.657h-0.526V366.517z"/>
			<path fill="#FFFFFF" d="M244.323,370.495l0.326-0.386c0.485,0.439,0.951,0.658,1.597,0.658c0.625,0,1.037-0.332,1.037-0.791
				v-0.014c0-0.432-0.232-0.679-1.21-0.885c-1.071-0.233-1.563-0.579-1.563-1.344v-0.013c0-0.732,0.645-1.271,1.529-1.271
				c0.68,0,1.165,0.193,1.637,0.572l-0.306,0.406c-0.433-0.353-0.864-0.505-1.344-0.505c-0.605,0-0.991,0.333-0.991,0.751v0.013
				c0,0.439,0.239,0.686,1.264,0.905c1.038,0.226,1.518,0.605,1.518,1.317v0.013c0,0.799-0.666,1.317-1.59,1.317
				C245.487,371.24,244.883,370.994,244.323,370.495z"/>
		</g>
		<g enable-background="new    ">
			<path fill="#FFFFFF" d="M173.616,376.855v-0.013c0-1.284,0.965-2.408,2.382-2.408s2.369,1.11,2.369,2.396v0.013
				c0,1.284-0.965,2.409-2.383,2.409C174.568,379.252,173.616,378.141,173.616,376.855z M177.821,376.855v-0.013
				c0-1.058-0.772-1.923-1.837-1.923s-1.822,0.852-1.822,1.91v0.013c0,1.058,0.771,1.923,1.836,1.923
				S177.821,377.914,177.821,376.855z"/>
			<path fill="#FFFFFF" d="M179.482,374.514h1.742c1.051,0,1.743,0.56,1.743,1.478v0.013c0,1.006-0.838,1.524-1.829,1.524h-1.131
				v1.644h-0.525V374.514z M181.158,377.049c0.771,0,1.277-0.412,1.277-1.024v-0.013c0-0.666-0.499-1.012-1.25-1.012h-1.178v2.049
				H181.158z"/>
			<path fill="#FFFFFF" d="M183.93,374.514h3.366v0.48h-2.841v1.59h2.541v0.479h-2.541v1.63h2.874v0.479h-3.399V374.514z"/>
			<path fill="#FFFFFF" d="M188.391,374.514h0.492l2.934,3.732v-3.732h0.513v4.658h-0.419l-3.008-3.819v3.819h-0.512V374.514z"/>
			<path fill="#FFFFFF" d="M195.647,374.514h0.492l2.935,3.732v-3.732h0.512v4.658h-0.419l-3.007-3.819v3.819h-0.513V374.514z"/>
			<path fill="#FFFFFF" d="M200.701,376.855v-0.013c0-1.284,0.965-2.408,2.381-2.408c1.418,0,2.369,1.11,2.369,2.396v0.013
				c0,1.284-0.965,2.409-2.382,2.409S200.701,378.141,200.701,376.855z M204.905,376.855v-0.013c0-1.058-0.771-1.923-1.836-1.923
				s-1.823,0.852-1.823,1.91v0.013c0,1.058,0.771,1.923,1.836,1.923S204.905,377.914,204.905,376.855z"/>
			<path fill="#FFFFFF" d="M205.968,374.514h0.572l1.331,3.879l1.277-3.892h0.432l1.277,3.892l1.331-3.879h0.552l-1.663,4.691
				h-0.446l-1.277-3.779l-1.283,3.779h-0.439L205.968,374.514z"/>
			<path fill="#FFFFFF" d="M213.637,378.473h0.613v0.699h-0.613V378.473z M213.645,374.894v-0.38h0.598v0.38l-0.159,2.96h-0.286
				L213.645,374.894z"/>
		</g>
	</g>
</g>
</svg>
