<?xml version="1.0" encoding="utf-8"?>
<!-- Generator: Adobe Illustrator 18.1.1, SVG Export Plug-In . SVG Version: 6.00 Build 0)  -->
<svg version="1.1" id="Layer_1" xmlns="http://www.w3.org/2000/svg" xmlns:xlink="http://www.w3.org/1999/xlink" x="0px" y="0px"
	 viewBox="0 0 277.5 18.2" enable-background="new 0 0 277.5 18.2" xml:space="preserve">
<g>
	<g>
		<path fill="#005777" d="M143.9,1.5c-0.7-0.9-2.7-1.5-5-1.5c-2.4,0-4.4,0.6-5,1.5c0,0,0,0.1,0,0.1l0.6,0.7h4.4h4.4l0.6-0.7
			C143.9,1.6,143.9,1.5,143.9,1.5z"/>
		<path fill="#003D5D" d="M145.4,2.6c-0.3-0.1-1.8-0.3-2.2-0.4c-0.9-0.6-2.6-1-4.4-1c-1.9,0-3.5,0.4-4.4,1c-0.4,0.1-1.9,0.3-2.2,0.4
			c-0.3,0.1-0.4,0.2-0.3,0.5c0.2,0.3,0.3,0.7,0.4,0.9s0.1,0.3,1.1,0.3c0.9,0,5.5,0,5.5,0s4.5,0,5.5,0c0.9,0,1.1,0,1.1-0.3
			c0-0.3,0.2-0.6,0.4-0.9C145.9,2.8,145.7,2.7,145.4,2.6z"/>
		<path fill="#003D5D" d="M145.1,6c-0.4-1.7-0.7-2.7-6.3-2.7c-5.5,0-5.8,1-6.3,2.7c-0.3,1.4-0.8,2-0.8,2h7.1h7.1
			C145.9,8,145.4,7.4,145.1,6z"/>
		<path fill="#E7E1D1" d="M138.8,5.2V2.4c-2.5,0-7.8,6.2-7.9,6.3l0,0c0.2,0.4,0.5,0.9,0.7,1.4C133.3,8.5,136.7,5.5,138.8,5.2z"/>
		<path fill="#003D5D" d="M131.6,10c1.2,2.8,1.9,5.9,2.1,7.1c0,0,0,0,0,0c2.1,0.1,3.9,0.5,5.1,1.1V5.2C136.7,5.5,133.3,8.5,131.6,10
			z"/>
		<path fill="#DAD3BC" d="M138.8,5.2V2.4c2.5,0,7.8,6.2,7.9,6.3l0,0c-0.2,0.4-0.5,0.9-0.7,1.4C144.4,8.5,140.9,5.5,138.8,5.2z"/>
		<path fill="#005777" d="M146.1,10c-1.2,2.8-1.9,5.9-2.1,7.1c0,0,0,0,0,0c-2.1,0.1-3.9,0.5-5.1,1.1V5.2
			C140.9,5.5,144.4,8.5,146.1,10z"/>
	</g>
	<g>
		<g>
			<g>
				<g>
					<g>
						<g>
							<path fill="#97AABA" d="M4.3,11.3c-0.6-0.5-1.7-0.5-2.3-0.1c0,0,0,0.1-0.1,0.1c0,0,0,0.1,0,0.1C2.2,11.7,3,12.6,3,12.6
								c0.6,0.5,1.7,0.5,2.3,0.1c0,0,0-0.1,0.1-0.1c0,0,0-0.1,0-0.1L4.3,11.3z"/>
						</g>
						<path fill="#97AABA" d="M6,10.9c-0.4,0-0.8,0.1-1.1,0.3c0,0,0,0.1-0.1,0.1c0,0,0,0.1,0,0.1L6,12.6"/>
						<path fill="#97AABA" d="M0,12.6c0.4,0.4,1.5,0.6,2.3,0.1c0,0,0-0.1,0.1-0.1c0,0,0-0.1,0-0.1l-1.1-1.2C0.9,11,0.4,10.9,0,10.9"
							/>
					</g>
				</g>
				<g>
					<g>
						<g>
							<path fill="#97AABA" d="M10.3,11.3c-0.6-0.5-1.7-0.5-2.3-0.1c0,0,0,0.1-0.1,0.1c0,0,0,0.1,0,0.1c0.3,0.3,1.1,1.2,1.1,1.2
								c0.6,0.5,1.7,0.5,2.3,0.1c0,0,0-0.1,0.1-0.1c0,0,0-0.1,0-0.1L10.3,11.3z"/>
						</g>
						<path fill="#97AABA" d="M12.1,10.9c-0.4,0-0.8,0.1-1.1,0.3c0,0,0,0.1-0.1,0.1c0,0,0,0.1,0,0.1l1.1,1.2"/>
						<path fill="#97AABA" d="M6,12.6c0.4,0.4,1.5,0.6,2.3,0.1c0,0,0-0.1,0.1-0.1c0,0,0-0.1,0-0.1l-1.1-1.2C6.9,11,6.5,10.9,6,10.9"
							/>
					</g>
				</g>
				<g>
					<g>
						<g>
							<path fill="#97AABA" d="M16.3,11.3c-0.6-0.5-1.7-0.5-2.3-0.1c0,0,0,0.1-0.1,0.1c0,0,0,0.1,0,0.1c0.3,0.3,1.1,1.2,1.1,1.2
								c0.6,0.5,1.7,0.5,2.3,0.1c0,0,0-0.1,0.1-0.1c0,0,0-0.1,0-0.1L16.3,11.3z"/>
						</g>
						<path fill="#97AABA" d="M18.1,10.9c-0.4,0-0.8,0.1-1.1,0.3c0,0,0,0.1-0.1,0.1c0,0,0,0.1,0,0.1l1.1,1.2"/>
						<path fill="#97AABA" d="M12.1,12.6c0.4,0.4,1.5,0.6,2.3,0.1c0,0,0-0.1,0.1-0.1c0,0,0-0.1,0-0.1l-1.1-1.2
							c-0.3-0.3-0.8-0.4-1.2-0.4"/>
					</g>
				</g>
				<g>
					<g>
						<g>
							<path fill="#97AABA" d="M22.4,11.3c-0.6-0.5-1.7-0.5-2.3-0.1c0,0,0,0.1-0.1,0.1c0,0,0,0.1,0,0.1c0.3,0.3,1.1,1.2,1.1,1.2
								c0.6,0.5,1.7,0.5,2.3,0.1c0,0,0-0.1,0.1-0.1c0,0,0-0.1,0-0.1L22.4,11.3z"/>
						</g>
						<path fill="#97AABA" d="M24.2,10.9c-0.4,0-0.8,0.1-1.1,0.3c0,0,0,0.1-0.1,0.1c0,0,0,0.1,0,0.1l1.1,1.2"/>
						<path fill="#97AABA" d="M18.1,12.6c0.4,0.4,1.5,0.6,2.3,0.1c0,0,0-0.1,0.1-0.1c0,0,0-0.1,0-0.1l-1.1-1.2
							c-0.3-0.3-0.8-0.4-1.2-0.4"/>
					</g>
				</g>
				<g>
					<g>
						<g>
							<path fill="#97AABA" d="M28.4,11.3c-0.6-0.5-1.7-0.5-2.3-0.1c0,0,0,0.1-0.1,0.1c0,0,0,0.1,0,0.1c0.3,0.3,1.1,1.2,1.1,1.2
								c0.6,0.5,1.7,0.5,2.3,0.1c0,0,0-0.1,0.1-0.1c0,0,0-0.1,0-0.1L28.4,11.3z"/>
						</g>
						<path fill="#97AABA" d="M30.2,10.9c-0.4,0-0.8,0.1-1.1,0.3c0,0,0,0.1-0.1,0.1c0,0,0,0.1,0,0.1l1.1,1.2"/>
						<path fill="#97AABA" d="M24.2,12.6c0.4,0.4,1.5,0.6,2.3,0.1c0,0,0-0.1,0.1-0.1c0,0,0-0.1,0-0.1l-1.1-1.2
							c-0.3-0.3-0.8-0.4-1.2-0.4"/>
					</g>
				</g>
				<g>
					<g>
						<g>
							<path fill="#97AABA" d="M34.5,11.3c-0.6-0.5-1.7-0.5-2.3-0.1c0,0,0,0.1-0.1,0.1c0,0,0,0.1,0,0.1c0.3,0.3,1.1,1.2,1.1,1.2
								c0.6,0.5,1.7,0.5,2.3,0.1c0,0,0-0.1,0.1-0.1c0,0,0-0.1,0-0.1L34.5,11.3z"/>
						</g>
						<path fill="#97AABA" d="M36.3,10.9c-0.4,0-0.8,0.1-1.1,0.3c0,0,0,0.1-0.1,0.1c0,0,0,0.1,0,0.1l1.1,1.2"/>
						<path fill="#97AABA" d="M30.2,12.6c0.4,0.4,1.5,0.6,2.3,0.1c0,0,0-0.1,0.1-0.1c0,0,0-0.1,0-0.1l-1.1-1.2
							c-0.3-0.3-0.8-0.4-1.2-0.4"/>
					</g>
				</g>
				<g>
					<g>
						<g>
							<path fill="#97AABA" d="M40.5,11.3c-0.6-0.5-1.7-0.5-2.3-0.1c0,0,0,0.1-0.1,0.1c0,0,0,0.1,0,0.1c0.3,0.3,1.1,1.2,1.1,1.2
								c0.6,0.5,1.7,0.5,2.3,0.1c0,0,0-0.1,0.1-0.1c0,0,0-0.1,0-0.1L40.5,11.3z"/>
						</g>
						<path fill="#97AABA" d="M42.3,10.9c-0.4,0-0.8,0.1-1.1,0.3c0,0,0,0.1-0.1,0.1c0,0,0,0.1,0,0.1l1.1,1.2"/>
						<path fill="#97AABA" d="M36.3,12.6c0.4,0.4,1.5,0.6,2.3,0.1c0,0,0-0.1,0.1-0.1c0,0,0-0.1,0-0.1l-1.1-1.2
							c-0.3-0.3-0.8-0.4-1.2-0.4"/>
					</g>
				</g>
				<g>
					<g>
						<g>
							<path fill="#97AABA" d="M46.6,11.3c-0.6-0.5-1.7-0.5-2.3-0.1c0,0,0,0.1-0.1,0.1c0,0,0,0.1,0,0.1c0.3,0.3,1.1,1.2,1.1,1.2
								c0.6,0.5,1.7,0.5,2.3,0.1c0,0,0-0.1,0.1-0.1c0,0,0-0.1,0-0.1L46.6,11.3z"/>
						</g>
						<path fill="#97AABA" d="M48.4,10.9c-0.4,0-0.8,0.1-1.1,0.3c0,0,0,0.1-0.1,0.1c0,0,0,0.1,0,0.1l1.1,1.2"/>
						<path fill="#97AABA" d="M42.3,12.6c0.4,0.4,1.5,0.6,2.3,0.1c0,0,0-0.1,0.1-0.1c0,0,0-0.1,0-0.1l-1.1-1.2
							c-0.3-0.3-0.8-0.4-1.2-0.4"/>
					</g>
				</g>
				<g>
					<g>
						<g>
							<path fill="#97AABA" d="M52.6,11.3c-0.6-0.5-1.7-0.5-2.3-0.1c0,0,0,0.1-0.1,0.1c0,0,0,0.1,0,0.1c0.3,0.3,1.1,1.2,1.1,1.2
								c0.6,0.5,1.7,0.5,2.3,0.1c0,0,0-0.1,0.1-0.1c0,0,0-0.1,0-0.1L52.6,11.3z"/>
						</g>
						<path fill="#97AABA" d="M54.4,10.9c-0.4,0-0.8,0.1-1.1,0.3c0,0,0,0.1-0.1,0.1c0,0,0,0.1,0,0.1l1.1,1.2"/>
						<path fill="#97AABA" d="M48.4,12.6c0.4,0.4,1.5,0.6,2.3,0.1c0,0,0-0.1,0.1-0.1c0,0,0-0.1,0-0.1l-1.1-1.2
							c-0.3-0.3-0.8-0.4-1.2-0.4"/>
					</g>
				</g>
				<g>
					<g>
						<g>
							<path fill="#97AABA" d="M58.7,11.3c-0.6-0.5-1.7-0.5-2.3-0.1c0,0,0,0.1-0.1,0.1c0,0,0,0.1,0,0.1c0.3,0.3,1.1,1.2,1.1,1.2
								c0.6,0.5,1.7,0.5,2.3,0.1c0,0,0-0.1,0.1-0.1c0,0,0-0.1,0-0.1L58.7,11.3z"/>
						</g>
						<path fill="#97AABA" d="M60.5,10.9c-0.4,0-0.8,0.1-1.1,0.3c0,0,0,0.1-0.1,0.1c0,0,0,0.1,0,0.1l1.1,1.2"/>
						<path fill="#97AABA" d="M54.4,12.6c0.4,0.4,1.5,0.6,2.3,0.1c0,0,0-0.1,0.1-0.1c0,0,0-0.1,0-0.1l-1.1-1.2
							c-0.3-0.3-0.8-0.4-1.2-0.4"/>
					</g>
				</g>
				<g>
					<g>
						<g>
							<path fill="#97AABA" d="M64.7,11.3c-0.6-0.5-1.7-0.5-2.3-0.1c0,0,0,0.1-0.1,0.1c0,0,0,0.1,0,0.1c0.3,0.3,1.1,1.2,1.1,1.2
								c0.6,0.5,1.7,0.5,2.3,0.1c0,0,0-0.1,0.1-0.1c0,0,0-0.1,0-0.1L64.7,11.3z"/>
						</g>
						<path fill="#97AABA" d="M66.5,10.9c-0.4,0-0.8,0.1-1.1,0.3c0,0,0,0.1-0.1,0.1c0,0,0,0.1,0,0.1l1.1,1.2"/>
						<path fill="#97AABA" d="M60.5,12.6c0.4,0.4,1.5,0.6,2.3,0.1c0,0,0-0.1,0.1-0.1c0,0,0-0.1,0-0.1l-1.1-1.2
							c-0.3-0.3-0.8-0.4-1.2-0.4"/>
					</g>
				</g>
				<g>
					<g>
						<g>
							<path fill="#97AABA" d="M70.8,11.3c-0.6-0.5-1.7-0.5-2.3-0.1c0,0,0,0.1-0.1,0.1c0,0,0,0.1,0,0.1c0.3,0.3,1.1,1.2,1.1,1.2
								c0.6,0.5,1.7,0.5,2.3,0.1c0,0,0-0.1,0.1-0.1c0,0,0-0.1,0-0.1L70.8,11.3z"/>
						</g>
						<path fill="#97AABA" d="M72.6,10.9c-0.4,0-0.8,0.1-1.1,0.3c0,0,0,0.1-0.1,0.1c0,0,0,0.1,0,0.1l1.1,1.2"/>
						<path fill="#97AABA" d="M66.5,12.6c0.4,0.4,1.5,0.6,2.3,0.1c0,0,0-0.1,0.1-0.1c0,0,0-0.1,0-0.1l-1.1-1.2
							c-0.3-0.3-0.8-0.4-1.2-0.4"/>
					</g>
				</g>
				<g>
					<g>
						<g>
							<path fill="#97AABA" d="M76.8,11.3c-0.6-0.5-1.7-0.5-2.3-0.1c0,0,0,0.1-0.1,0.1c0,0,0,0.1,0,0.1c0.3,0.3,1.1,1.2,1.1,1.2
								c0.6,0.5,1.7,0.5,2.3,0.1c0,0,0-0.1,0.1-0.1c0,0,0-0.1,0-0.1L76.8,11.3z"/>
						</g>
						<path fill="#97AABA" d="M78.6,10.9c-0.4,0-0.8,0.1-1.1,0.3c0,0,0,0.1-0.1,0.1c0,0,0,0.1,0,0.1l1.1,1.2"/>
						<path fill="#97AABA" d="M72.6,12.6c0.4,0.4,1.5,0.6,2.3,0.1c0,0,0-0.1,0.1-0.1c0,0,0-0.1,0-0.1l-1.1-1.2
							c-0.3-0.3-0.8-0.4-1.2-0.4"/>
					</g>
				</g>
				<g>
					<g>
						<g>
							<path fill="#97AABA" d="M82.9,11.3c-0.6-0.5-1.7-0.5-2.3-0.1c0,0,0,0.1-0.1,0.1c0,0,0,0.1,0,0.1c0.3,0.3,1.1,1.2,1.1,1.2
								c0.6,0.5,1.7,0.5,2.3,0.1c0,0,0-0.1,0.1-0.1c0,0,0-0.1,0-0.1L82.9,11.3z"/>
						</g>
						<path fill="#97AABA" d="M84.7,10.9c-0.4,0-0.8,0.1-1.1,0.3c0,0,0,0.1-0.1,0.1c0,0,0,0.1,0,0.1l1.1,1.2"/>
						<path fill="#97AABA" d="M78.6,12.6c0.4,0.4,1.5,0.6,2.3,0.1c0,0,0-0.1,0.1-0.1c0,0,0-0.1,0-0.1l-1.1-1.2
							c-0.3-0.3-0.8-0.4-1.2-0.4"/>
					</g>
				</g>
				<g>
					<g>
						<g>
							<path fill="#97AABA" d="M88.9,11.3c-0.6-0.5-1.7-0.5-2.3-0.1c0,0,0,0.1-0.1,0.1c0,0,0,0.1,0,0.1c0.3,0.3,1.1,1.2,1.1,1.2
								c0.6,0.5,1.7,0.5,2.3,0.1c0,0,0-0.1,0.1-0.1c0,0,0-0.1,0-0.1L88.9,11.3z"/>
						</g>
						<path fill="#97AABA" d="M90.7,10.9c-0.4,0-0.8,0.1-1.1,0.3c0,0,0,0.1-0.1,0.1c0,0,0,0.1,0,0.1l1.1,1.2"/>
						<path fill="#97AABA" d="M84.7,12.6c0.4,0.4,1.5,0.6,2.3,0.1c0,0,0-0.1,0.1-0.1c0,0,0-0.1,0-0.1l-1.1-1.2
							c-0.3-0.3-0.8-0.4-1.2-0.4"/>
					</g>
				</g>
				<g>
					<g>
						<g>
							<path fill="#97AABA" d="M95,11.3c-0.6-0.5-1.7-0.5-2.3-0.1c0,0,0,0.1-0.1,0.1c0,0,0,0.1,0,0.1c0.3,0.3,1.1,1.2,1.1,1.2
								c0.6,0.5,1.7,0.5,2.3,0.1c0,0,0-0.1,0.1-0.1c0,0,0-0.1,0-0.1L95,11.3z"/>
						</g>
						<path fill="#97AABA" d="M96.7,10.9c-0.4,0-0.8,0.1-1.1,0.3c0,0,0,0.1-0.1,0.1c0,0,0,0.1,0,0.1l1.1,1.2"/>
						<path fill="#97AABA" d="M90.7,12.6c0.4,0.4,1.5,0.6,2.3,0.1c0,0,0-0.1,0.1-0.1c0,0,0-0.1,0-0.1l-1.1-1.2
							c-0.3-0.3-0.8-0.4-1.2-0.4"/>
					</g>
				</g>
				<g>
					<g>
						<g>
							<path fill="#97AABA" d="M101,11.3c-0.6-0.5-1.7-0.5-2.3-0.1c0,0,0,0.1-0.1,0.1c0,0,0,0.1,0,0.1c0.3,0.3,1.1,1.2,1.1,1.2
								c0.6,0.5,1.7,0.5,2.3,0.1c0,0,0-0.1,0.1-0.1c0,0,0-0.1,0-0.1L101,11.3z"/>
						</g>
						<path fill="#97AABA" d="M102.8,10.9c-0.4,0-0.8,0.1-1.1,0.3c0,0,0,0.1-0.1,0.1c0,0,0,0.1,0,0.1l1.1,1.2"/>
						<path fill="#97AABA" d="M96.7,12.6c0.4,0.4,1.5,0.6,2.3,0.1c0,0,0-0.1,0.1-0.1c0,0,0-0.1,0-0.1l-1.1-1.2
							c-0.3-0.3-0.8-0.4-1.2-0.4"/>
					</g>
				</g>
				<g>
					<g>
						<g>
							<path fill="#97AABA" d="M107,11.3c-0.6-0.5-1.7-0.5-2.3-0.1c0,0,0,0.1-0.1,0.1c0,0,0,0.1,0,0.1c0.3,0.3,1.1,1.2,1.1,1.2
								c0.6,0.5,1.7,0.5,2.3,0.1c0,0,0-0.1,0.1-0.1c0,0,0-0.1,0-0.1L107,11.3z"/>
						</g>
						<path fill="#97AABA" d="M108.8,10.9c-0.4,0-0.8,0.1-1.1,0.3c0,0,0,0.1-0.1,0.1c0,0,0,0.1,0,0.1l1.1,1.2"/>
						<path fill="#97AABA" d="M102.8,12.6c0.4,0.4,1.5,0.6,2.3,0.1c0,0,0-0.1,0.1-0.1c0,0,0-0.1,0-0.1l-1.1-1.2
							c-0.3-0.3-0.8-0.4-1.2-0.4"/>
					</g>
				</g>
				<g>
					<g>
						<g>
							<path fill="#97AABA" d="M113.1,11.3c-0.6-0.5-1.7-0.5-2.3-0.1c0,0,0,0.1-0.1,0.1c0,0,0,0.1,0,0.1c0.3,0.3,1.1,1.2,1.1,1.2
								c0.6,0.5,1.7,0.5,2.3,0.1c0,0,0-0.1,0.1-0.1c0,0,0-0.1,0-0.1L113.1,11.3z"/>
						</g>
						<path fill="#97AABA" d="M114.9,10.9c-0.4,0-0.8,0.1-1.1,0.3c0,0,0,0.1-0.1,0.1c0,0,0,0.1,0,0.1l1.1,1.2"/>
						<path fill="#97AABA" d="M108.8,12.6c0.4,0.4,1.5,0.6,2.3,0.1c0,0,0-0.1,0.1-0.1c0,0,0-0.1,0-0.1l-1.1-1.2
							c-0.3-0.3-0.8-0.4-1.2-0.4"/>
					</g>
				</g>
				<g>
					<g>
						<g>
							<path fill="#97AABA" d="M119.1,11.3c-0.6-0.5-1.7-0.5-2.3-0.1c0,0,0,0.1-0.1,0.1c0,0,0,0.1,0,0.1c0.3,0.3,1.1,1.2,1.1,1.2
								c0.6,0.5,1.7,0.5,2.3,0.1c0,0,0-0.1,0.1-0.1c0,0,0-0.1,0-0.1L119.1,11.3z"/>
						</g>
						<path fill="#97AABA" d="M120.9,10.9c-0.4,0-0.8,0.1-1.1,0.3c0,0,0,0.1-0.1,0.1c0,0,0,0.1,0,0.1l1.1,1.2"/>
						<path fill="#97AABA" d="M114.9,12.6c0.4,0.4,1.5,0.6,2.3,0.1c0,0,0-0.1,0.1-0.1c0,0,0-0.1,0-0.1l-1.1-1.2
							c-0.3-0.3-0.8-0.4-1.2-0.4"/>
					</g>
				</g>
			</g>
		</g>
	</g>
	<g>
		<g>
			<g>
				<g>
					<g>
						<g>
							<path fill="#97AABA" d="M160.8,11.3c-0.6-0.5-1.7-0.5-2.3-0.1c0,0,0,0.1-0.1,0.1c0,0,0,0.1,0,0.1c0.3,0.3,1.1,1.2,1.1,1.2
								c0.6,0.5,1.7,0.5,2.3,0.1c0,0,0-0.1,0.1-0.1c0,0,0-0.1,0-0.1L160.8,11.3z"/>
						</g>
						<path fill="#97AABA" d="M162.6,10.9c-0.4,0-0.8,0.1-1.1,0.3c0,0,0,0.1-0.1,0.1c0,0,0,0.1,0,0.1l1.1,1.2"/>
						<path fill="#97AABA" d="M156.5,12.6c0.4,0.4,1.5,0.6,2.3,0.1c0,0,0-0.1,0.1-0.1c0,0,0-0.1,0-0.1l-1.1-1.2
							c-0.3-0.3-0.8-0.4-1.2-0.4"/>
					</g>
				</g>
				<g>
					<g>
						<g>
							<path fill="#97AABA" d="M166.8,11.3c-0.6-0.5-1.7-0.5-2.3-0.1c0,0,0,0.1-0.1,0.1c0,0,0,0.1,0,0.1c0.3,0.3,1.1,1.2,1.1,1.2
								c0.6,0.5,1.7,0.5,2.3,0.1c0,0,0-0.1,0.1-0.1c0,0,0-0.1,0-0.1L166.8,11.3z"/>
						</g>
						<path fill="#97AABA" d="M168.6,10.9c-0.4,0-0.8,0.1-1.1,0.3c0,0,0,0.1-0.1,0.1c0,0,0,0.1,0,0.1l1.1,1.2"/>
						<path fill="#97AABA" d="M162.6,12.6c0.4,0.4,1.5,0.6,2.3,0.1c0,0,0-0.1,0.1-0.1c0,0,0-0.1,0-0.1l-1.1-1.2
							c-0.3-0.3-0.8-0.4-1.2-0.4"/>
					</g>
				</g>
				<g>
					<g>
						<g>
							<path fill="#97AABA" d="M172.9,11.3c-0.6-0.5-1.7-0.5-2.3-0.1c0,0,0,0.1-0.1,0.1c0,0,0,0.1,0,0.1c0.3,0.3,1.1,1.2,1.1,1.2
								c0.6,0.5,1.7,0.5,2.3,0.1c0,0,0-0.1,0.1-0.1c0,0,0-0.1,0-0.1L172.9,11.3z"/>
						</g>
						<path fill="#97AABA" d="M174.7,10.9c-0.4,0-0.8,0.1-1.1,0.3c0,0,0,0.1-0.1,0.1c0,0,0,0.1,0,0.1l1.1,1.2"/>
						<path fill="#97AABA" d="M168.6,12.6c0.4,0.4,1.5,0.6,2.3,0.1c0,0,0-0.1,0.1-0.1c0,0,0-0.1,0-0.1l-1.1-1.2
							c-0.3-0.3-0.8-0.4-1.2-0.4"/>
					</g>
				</g>
				<g>
					<g>
						<g>
							<path fill="#97AABA" d="M178.9,11.3c-0.6-0.5-1.7-0.5-2.3-0.1c0,0,0,0.1-0.1,0.1c0,0,0,0.1,0,0.1c0.3,0.3,1.1,1.2,1.1,1.2
								c0.6,0.5,1.7,0.5,2.3,0.1c0,0,0-0.1,0.1-0.1c0,0,0-0.1,0-0.1L178.9,11.3z"/>
						</g>
						<path fill="#97AABA" d="M180.7,10.9c-0.4,0-0.8,0.1-1.1,0.3c0,0,0,0.1-0.1,0.1c0,0,0,0.1,0,0.1l1.1,1.2"/>
						<path fill="#97AABA" d="M174.7,12.6c0.4,0.4,1.5,0.6,2.3,0.1c0,0,0-0.1,0.1-0.1c0,0,0-0.1,0-0.1l-1.1-1.2
							c-0.3-0.3-0.8-0.4-1.2-0.4"/>
					</g>
				</g>
				<g>
					<g>
						<g>
							<path fill="#97AABA" d="M185,11.3c-0.6-0.5-1.7-0.5-2.3-0.1c0,0,0,0.1-0.1,0.1c0,0,0,0.1,0,0.1c0.3,0.3,1.1,1.2,1.1,1.2
								c0.6,0.5,1.7,0.5,2.3,0.1c0,0,0-0.1,0.1-0.1c0,0,0-0.1,0-0.1L185,11.3z"/>
						</g>
						<path fill="#97AABA" d="M186.8,10.9c-0.4,0-0.8,0.1-1.1,0.3c0,0,0,0.1-0.1,0.1c0,0,0,0.1,0,0.1l1.1,1.2"/>
						<path fill="#97AABA" d="M180.7,12.6c0.4,0.4,1.5,0.6,2.3,0.1c0,0,0-0.1,0.1-0.1c0,0,0-0.1,0-0.1l-1.1-1.2
							c-0.3-0.3-0.8-0.4-1.2-0.4"/>
					</g>
				</g>
				<g>
					<g>
						<g>
							<path fill="#97AABA" d="M191,11.3c-0.6-0.5-1.7-0.5-2.3-0.1c0,0,0,0.1-0.1,0.1c0,0,0,0.1,0,0.1c0.3,0.3,1.1,1.2,1.1,1.2
								c0.6,0.5,1.7,0.5,2.3,0.1c0,0,0-0.1,0.1-0.1c0,0,0-0.1,0-0.1L191,11.3z"/>
						</g>
						<path fill="#97AABA" d="M192.8,10.9c-0.4,0-0.8,0.1-1.1,0.3c0,0,0,0.1-0.1,0.1c0,0,0,0.1,0,0.1l1.1,1.2"/>
						<path fill="#97AABA" d="M186.8,12.6c0.4,0.4,1.5,0.6,2.3,0.1c0,0,0-0.1,0.1-0.1c0,0,0-0.1,0-0.1l-1.1-1.2
							c-0.3-0.3-0.8-0.4-1.2-0.4"/>
					</g>
				</g>
				<g>
					<g>
						<g>
							<path fill="#97AABA" d="M197.1,11.3c-0.6-0.5-1.7-0.5-2.3-0.1c0,0,0,0.1-0.1,0.1c0,0,0,0.1,0,0.1c0.3,0.3,1.1,1.2,1.1,1.2
								c0.6,0.5,1.7,0.5,2.3,0.1c0,0,0-0.1,0.1-0.1c0,0,0-0.1,0-0.1L197.1,11.3z"/>
						</g>
						<path fill="#97AABA" d="M198.9,10.9c-0.4,0-0.8,0.1-1.1,0.3c0,0,0,0.1-0.1,0.1c0,0,0,0.1,0,0.1l1.1,1.2"/>
						<path fill="#97AABA" d="M192.8,12.6c0.4,0.4,1.5,0.6,2.3,0.1c0,0,0-0.1,0.1-0.1c0,0,0-0.1,0-0.1l-1.1-1.2
							c-0.3-0.3-0.8-0.4-1.2-0.4"/>
					</g>
				</g>
				<g>
					<g>
						<g>
							<path fill="#97AABA" d="M203.1,11.3c-0.6-0.5-1.7-0.5-2.3-0.1c0,0,0,0.1-0.1,0.1c0,0,0,0.1,0,0.1c0.3,0.3,1.1,1.2,1.1,1.2
								c0.6,0.5,1.7,0.5,2.3,0.1c0,0,0-0.1,0.1-0.1c0,0,0-0.1,0-0.1L203.1,11.3z"/>
						</g>
						<path fill="#97AABA" d="M204.9,10.9c-0.4,0-0.8,0.1-1.1,0.3c0,0,0,0.1-0.1,0.1c0,0,0,0.1,0,0.1l1.1,1.2"/>
						<path fill="#97AABA" d="M198.9,12.6c0.4,0.4,1.5,0.6,2.3,0.1c0,0,0-0.1,0.1-0.1c0,0,0-0.1,0-0.1l-1.1-1.2
							c-0.3-0.3-0.8-0.4-1.2-0.4"/>
					</g>
				</g>
				<g>
					<g>
						<g>
							<path fill="#97AABA" d="M209.1,11.3c-0.6-0.5-1.7-0.5-2.3-0.1c0,0,0,0.1-0.1,0.1c0,0,0,0.1,0,0.1c0.3,0.3,1.1,1.2,1.1,1.2
								c0.6,0.5,1.7,0.5,2.3,0.1c0,0,0-0.1,0.1-0.1c0,0,0-0.1,0-0.1L209.1,11.3z"/>
						</g>
						<path fill="#97AABA" d="M210.9,10.9c-0.4,0-0.8,0.1-1.1,0.3c0,0,0,0.1-0.1,0.1c0,0,0,0.1,0,0.1l1.1,1.2"/>
						<path fill="#97AABA" d="M204.9,12.6c0.4,0.4,1.5,0.6,2.3,0.1c0,0,0-0.1,0.1-0.1c0,0,0-0.1,0-0.1l-1.1-1.2
							c-0.3-0.3-0.8-0.4-1.2-0.4"/>
					</g>
				</g>
				<g>
					<g>
						<g>
							<path fill="#97AABA" d="M215.2,11.3c-0.6-0.5-1.7-0.5-2.3-0.1c0,0,0,0.1-0.1,0.1c0,0,0,0.1,0,0.1c0.3,0.3,1.1,1.2,1.1,1.2
								c0.6,0.5,1.7,0.5,2.3,0.1c0,0,0-0.1,0.1-0.1c0,0,0-0.1,0-0.1L215.2,11.3z"/>
						</g>
						<path fill="#97AABA" d="M217,10.9c-0.4,0-0.8,0.1-1.1,0.3c0,0,0,0.1-0.1,0.1c0,0,0,0.1,0,0.1l1.1,1.2"/>
						<path fill="#97AABA" d="M210.9,12.6c0.4,0.4,1.5,0.6,2.3,0.1c0,0,0-0.1,0.1-0.1c0,0,0-0.1,0-0.1l-1.1-1.2
							c-0.3-0.3-0.8-0.4-1.2-0.4"/>
					</g>
				</g>
				<g>
					<g>
						<g>
							<path fill="#97AABA" d="M221.2,11.3c-0.6-0.5-1.7-0.5-2.3-0.1c0,0,0,0.1-0.1,0.1c0,0,0,0.1,0,0.1c0.3,0.3,1.1,1.2,1.1,1.2
								c0.6,0.5,1.7,0.5,2.3,0.1c0,0,0-0.1,0.1-0.1c0,0,0-0.1,0-0.1L221.2,11.3z"/>
						</g>
						<path fill="#97AABA" d="M223,10.9c-0.4,0-0.8,0.1-1.1,0.3c0,0,0,0.1-0.1,0.1c0,0,0,0.1,0,0.1l1.1,1.2"/>
						<path fill="#97AABA" d="M217,12.6c0.4,0.4,1.5,0.6,2.3,0.1c0,0,0-0.1,0.1-0.1c0,0,0-0.1,0-0.1l-1.1-1.2
							c-0.3-0.3-0.8-0.4-1.2-0.4"/>
					</g>
				</g>
				<g>
					<g>
						<g>
							<path fill="#97AABA" d="M227.3,11.3c-0.6-0.5-1.7-0.5-2.3-0.1c0,0,0,0.1-0.1,0.1c0,0,0,0.1,0,0.1c0.3,0.3,1.1,1.2,1.1,1.2
								c0.6,0.5,1.7,0.5,2.3,0.1c0,0,0-0.1,0.1-0.1c0,0,0-0.1,0-0.1L227.3,11.3z"/>
						</g>
						<path fill="#97AABA" d="M229.1,10.9c-0.4,0-0.8,0.1-1.1,0.3c0,0,0,0.1-0.1,0.1c0,0,0,0.1,0,0.1l1.1,1.2"/>
						<path fill="#97AABA" d="M223,12.6c0.4,0.4,1.5,0.6,2.3,0.1c0,0,0-0.1,0.1-0.1c0,0,0-0.1,0-0.1l-1.1-1.2
							c-0.3-0.3-0.8-0.4-1.2-0.4"/>
					</g>
				</g>
				<g>
					<g>
						<g>
							<path fill="#97AABA" d="M233.3,11.3c-0.6-0.5-1.7-0.5-2.3-0.1c0,0,0,0.1-0.1,0.1c0,0,0,0.1,0,0.1c0.3,0.3,1.1,1.2,1.1,1.2
								c0.6,0.5,1.7,0.5,2.3,0.1c0,0,0-0.1,0.1-0.1c0,0,0-0.1,0-0.1L233.3,11.3z"/>
						</g>
						<path fill="#97AABA" d="M235.1,10.9c-0.4,0-0.8,0.1-1.1,0.3c0,0,0,0.1-0.1,0.1c0,0,0,0.1,0,0.1l1.1,1.2"/>
						<path fill="#97AABA" d="M229.1,12.6c0.4,0.4,1.5,0.6,2.3,0.1c0,0,0-0.1,0.1-0.1c0,0,0-0.1,0-0.1l-1.1-1.2
							c-0.3-0.3-0.8-0.4-1.2-0.4"/>
					</g>
				</g>
				<g>
					<g>
						<g>
							<path fill="#97AABA" d="M239.4,11.3c-0.6-0.5-1.7-0.5-2.3-0.1c0,0,0,0.1-0.1,0.1c0,0,0,0.1,0,0.1c0.3,0.3,1.1,1.2,1.1,1.2
								c0.6,0.5,1.7,0.5,2.3,0.1c0,0,0-0.1,0.1-0.1c0,0,0-0.1,0-0.1L239.4,11.3z"/>
						</g>
						<path fill="#97AABA" d="M241.2,10.9c-0.4,0-0.8,0.1-1.1,0.3c0,0,0,0.1-0.1,0.1c0,0,0,0.1,0,0.1l1.1,1.2"/>
						<path fill="#97AABA" d="M235.1,12.6c0.4,0.4,1.5,0.6,2.3,0.1c0,0,0-0.1,0.1-0.1c0,0,0-0.1,0-0.1l-1.1-1.2
							c-0.3-0.3-0.8-0.4-1.2-0.4"/>
					</g>
				</g>
				<g>
					<g>
						<g>
							<path fill="#97AABA" d="M245.4,11.3c-0.6-0.5-1.7-0.5-2.3-0.1c0,0,0,0.1-0.1,0.1c0,0,0,0.1,0,0.1c0.3,0.3,1.1,1.2,1.1,1.2
								c0.6,0.5,1.7,0.5,2.3,0.1c0,0,0-0.1,0.1-0.1c0,0,0-0.1,0-0.1L245.4,11.3z"/>
						</g>
						<path fill="#97AABA" d="M247.2,10.9c-0.4,0-0.8,0.1-1.1,0.3c0,0,0,0.1-0.1,0.1c0,0,0,0.1,0,0.1l1.1,1.2"/>
						<path fill="#97AABA" d="M241.2,12.6c0.4,0.4,1.5,0.6,2.3,0.1c0,0,0-0.1,0.1-0.1c0,0,0-0.1,0-0.1l-1.1-1.2
							c-0.3-0.3-0.8-0.4-1.2-0.4"/>
					</g>
				</g>
				<g>
					<g>
						<g>
							<path fill="#97AABA" d="M251.5,11.3c-0.6-0.5-1.7-0.5-2.3-0.1c0,0,0,0.1-0.1,0.1c0,0,0,0.1,0,0.1c0.3,0.3,1.1,1.2,1.1,1.2
								c0.6,0.5,1.7,0.5,2.3,0.1c0,0,0-0.1,0.1-0.1c0,0,0-0.1,0-0.1L251.5,11.3z"/>
						</g>
						<path fill="#97AABA" d="M253.3,10.9c-0.4,0-0.8,0.1-1.1,0.3c0,0,0,0.1-0.1,0.1c0,0,0,0.1,0,0.1l1.1,1.2"/>
						<path fill="#97AABA" d="M247.2,12.6c0.4,0.4,1.5,0.6,2.3,0.1c0,0,0-0.1,0.1-0.1c0,0,0-0.1,0-0.1l-1.1-1.2
							c-0.3-0.3-0.8-0.4-1.2-0.4"/>
					</g>
				</g>
				<g>
					<g>
						<g>
							<path fill="#97AABA" d="M257.5,11.3c-0.6-0.5-1.7-0.5-2.3-0.1c0,0,0,0.1-0.1,0.1c0,0,0,0.1,0,0.1c0.3,0.3,1.1,1.2,1.1,1.2
								c0.6,0.5,1.7,0.5,2.3,0.1c0,0,0-0.1,0.1-0.1c0,0,0-0.1,0-0.1L257.5,11.3z"/>
						</g>
						<path fill="#97AABA" d="M259.3,10.9c-0.4,0-0.8,0.1-1.1,0.3c0,0,0,0.1-0.1,0.1c0,0,0,0.1,0,0.1l1.1,1.2"/>
						<path fill="#97AABA" d="M253.3,12.6c0.4,0.4,1.5,0.6,2.3,0.1c0,0,0-0.1,0.1-0.1c0,0,0-0.1,0-0.1l-1.1-1.2
							c-0.3-0.3-0.8-0.4-1.2-0.4"/>
					</g>
				</g>
				<g>
					<g>
						<g>
							<path fill="#97AABA" d="M263.6,11.3c-0.6-0.5-1.7-0.5-2.3-0.1c0,0,0,0.1-0.1,0.1c0,0,0,0.1,0,0.1c0.3,0.3,1.1,1.2,1.1,1.2
								c0.6,0.5,1.7,0.5,2.3,0.1c0,0,0-0.1,0.1-0.1c0,0,0-0.1,0-0.1L263.6,11.3z"/>
						</g>
						<path fill="#97AABA" d="M265.4,10.9c-0.4,0-0.8,0.1-1.1,0.3c0,0,0,0.1-0.1,0.1c0,0,0,0.1,0,0.1l1.1,1.2"/>
						<path fill="#97AABA" d="M259.3,12.6c0.4,0.4,1.5,0.6,2.3,0.1c0,0,0-0.1,0.1-0.1c0,0,0-0.1,0-0.1l-1.1-1.2
							c-0.3-0.3-0.8-0.4-1.2-0.4"/>
					</g>
				</g>
				<g>
					<g>
						<g>
							<path fill="#97AABA" d="M269.6,11.3c-0.6-0.5-1.7-0.5-2.3-0.1c0,0,0,0.1-0.1,0.1c0,0,0,0.1,0,0.1c0.3,0.3,1.1,1.2,1.1,1.2
								c0.6,0.5,1.7,0.5,2.3,0.1c0,0,0-0.1,0.1-0.1c0,0,0-0.1,0-0.1L269.6,11.3z"/>
						</g>
						<path fill="#97AABA" d="M271.4,10.9c-0.4,0-0.8,0.1-1.1,0.3c0,0,0,0.1-0.1,0.1c0,0,0,0.1,0,0.1l1.1,1.2"/>
						<path fill="#97AABA" d="M265.4,12.6c0.4,0.4,1.5,0.6,2.3,0.1c0,0,0-0.1,0.1-0.1c0,0,0-0.1,0-0.1l-1.1-1.2
							c-0.3-0.3-0.8-0.4-1.2-0.4"/>
					</g>
				</g>
				<g>
					<g>
						<g>
							<path fill="#97AABA" d="M275.7,11.3c-0.6-0.5-1.7-0.5-2.3-0.1c0,0,0,0.1-0.1,0.1c0,0,0,0.1,0,0.1c0.3,0.3,1.1,1.2,1.1,1.2
								c0.6,0.5,1.7,0.5,2.3,0.1c0,0,0-0.1,0.1-0.1c0,0,0-0.1,0-0.1L275.7,11.3z"/>
						</g>
						<path fill="#97AABA" d="M277.5,10.9c-0.4,0-0.8,0.1-1.1,0.3c0,0,0,0.1-0.1,0.1c0,0,0,0.1,0,0.1l1.1,1.2"/>
						<path fill="#97AABA" d="M271.4,12.6c0.4,0.4,1.5,0.6,2.3,0.1c0,0,0-0.1,0.1-0.1c0,0,0-0.1,0-0.1l-1.1-1.2
							c-0.3-0.3-0.8-0.4-1.2-0.4"/>
					</g>
				</g>
			</g>
		</g>
	</g>
</g>
</svg>
