<?xml version="1.0" encoding="utf-8"?>
<!-- Generator: Adobe Illustrator 15.0.0, SVG Export Plug-In . SVG Version: 6.00 Build 0)  -->
<!DOCTYPE svg PUBLIC "-//W3C//DTD SVG 1.1//EN" "http://www.w3.org/Graphics/SVG/1.1/DTD/svg11.dtd">
<svg version="1.1" xmlns="http://www.w3.org/2000/svg" xmlns:xlink="http://www.w3.org/1999/xlink" x="0px" y="0px"
	 width="384.25px" height="91.264px" viewBox="0 0 384.25 91.264" enable-background="new 0 0 384.25 91.264" xml:space="preserve">
<g id="Layer_1">
	<g>
		<path fill="#005677" d="M336.006,57.615H158.884l33.649,33.648h155.758c5.105-9.61,35.958-33.648,35.958-33.648H336.006z"/>
		<path fill="#F5F1E9" d="M307.627,33.088c0,0,0.256-3.811,1.824-5.878c1.115-1.47-6.689-3.041-13.581-3.041
			c0,0,0.256-3.811,1.824-5.879c1.115-1.469-6.688-3.04-13.581-3.04H116.52l42.364,42.365h177.122
			C336.006,57.615,318.345,38.831,307.627,33.088z"/>
		<path fill="#E7E1D1" d="M25.344,52.138c-0.103,0.087-0.233,0.135-0.369,0.135H6.209c-1.998,2.005-3.571,3.827-4.532,5.343h157.208
			L116.52,15.25H47.497c-6.892,0-14.696,1.571-13.581,3.04c1.569,2.068,1.824,5.879,1.824,5.879c3.565,0,5.338,2.095,5.338,2.095
			c-0.907,0-4.881,2.402-9.999,5.95h17.469c0.53,0,0.772,0.66,0.368,1.003l-3.252,2.757c-0.103,0.087-0.233,0.135-0.369,0.135
			H25.635c-1.812,1.335-3.673,2.742-5.528,4.187h17.265c0.53,0,0.773,0.661,0.369,1.005l-3.253,2.756
			c-0.103,0.087-0.233,0.135-0.368,0.135H15.243c-1.709,1.409-3.355,2.814-4.893,4.187h17.877c0.53,0,0.773,0.662,0.368,1.005
			L25.344,52.138z"/>
		<path fill="#003A5D" d="M1.671,57.615c-0.658,1.039-1.032,1.937-1.032,2.635c0,18.446,6.993,27.467,6.993,27.467
			C3.764,88.954,1.397,90.269,0,91.264h192.533l-33.648-33.648H1.671z"/>
		<g>
			<circle fill="#004C6C" cx="43.672" cy="68.157" r="2.165"/>
			<circle fill="#004C6C" cx="55.641" cy="68.157" r="2.165"/>
			<circle fill="#004C6C" cx="67.61" cy="68.157" r="2.165"/>
			<circle fill="#004C6C" cx="79.579" cy="68.157" r="2.165"/>
			<circle fill="#004C6C" cx="91.548" cy="68.157" r="2.166"/>
			<circle fill="#004C6C" cx="103.517" cy="68.157" r="2.165"/>
			<circle fill="#004C6C" cx="115.486" cy="68.157" r="2.165"/>
			<circle fill="#004C6C" cx="127.455" cy="68.157" r="2.166"/>
			<circle fill="#004C6C" cx="139.424" cy="68.157" r="2.165"/>
			<circle fill="#004C6C" cx="151.393" cy="68.157" r="2.165"/>
			<circle fill="#004C6C" cx="163.362" cy="68.157" r="2.166"/>
		</g>
		<g>
			<circle fill="#1A6684" cx="175.332" cy="68.157" r="2.165"/>
			<circle fill="#1A6684" cx="187.3" cy="68.157" r="2.165"/>
			<circle fill="#1A6684" cx="199.27" cy="68.157" r="2.166"/>
			<circle fill="#1A6684" cx="211.239" cy="68.157" r="2.165"/>
			<circle fill="#1A6684" cx="223.208" cy="68.157" r="2.165"/>
			<circle fill="#1A6684" cx="235.177" cy="68.157" r="2.166"/>
			<circle fill="#1A6684" cx="247.146" cy="68.157" r="2.165"/>
			<circle fill="#1A6684" cx="259.115" cy="68.157" r="2.165"/>
			<circle fill="#1A6684" cx="271.084" cy="68.157" r="2.166"/>
			<circle fill="#1A6684" cx="283.053" cy="68.157" r="2.165"/>
			<circle fill="#1A6684" cx="295.022" cy="68.157" r="2.165"/>
		</g>
		<g>
			<path fill="#DAD3BC" d="M71.116,44.412h74.565l-4.337-4.338H76.4C74.59,41.513,72.811,42.97,71.116,44.412z"/>
			<path fill="#DAD3BC" d="M87.469,31.771c-1.892,1.338-3.895,2.798-5.94,4.337h55.849l-4.338-4.337H87.469z"/>
			<path fill="#DAD3BC" d="M149.647,48.378H66.645c-1.643,1.527-3.115,2.991-4.328,4.337h91.668L149.647,48.378z"/>
		</g>
		<g>
			<path fill="#003A5D" d="M327.596,76.504c-0.208-0.073-0.441-0.007-0.584,0.164c-0.118,0.146-0.378,0.364-0.556,0.364
				c-0.29,0-0.525,0.234-0.525,0.524c-0.001,0.331,0.324,0.551,0.646,0.52c-0.284,0.374-0.748,0.626-1.348,0.917
				c-0.182,0.088-0.368,0.18-0.548,0.28v-5.887h1.338c0.021,0.114,0.042,0.195,0.046,0.212c0.066,0.23,0.276,0.381,0.505,0.381
				c0.046,0,0.095-0.005,0.141-0.019c0.279-0.077,0.443-0.365,0.366-0.644c0-0.003-0.059-0.219-0.059-0.455
				c0-0.235,0.059-0.453,0.059-0.455c0.077-0.279-0.087-0.567-0.366-0.646c-0.274-0.072-0.565,0.085-0.646,0.365
				c-0.004,0.016-0.024,0.097-0.046,0.21h-1.338v-0.7c0.542-0.211,0.928-0.734,0.928-1.35c0-0.801-0.651-1.453-1.453-1.453
				c-0.801,0-1.452,0.652-1.452,1.453c0,0.615,0.386,1.139,0.928,1.35v0.7h-1.813c-0.29,0-0.525,0.235-0.525,0.525
				c0,0.289,0.235,0.524,0.525,0.524h1.813v5.888c-0.18-0.102-0.367-0.193-0.55-0.281c-0.6-0.291-1.062-0.543-1.347-0.917
				c0.322,0.034,0.645-0.188,0.645-0.52c0-0.29-0.235-0.524-0.524-0.524c-0.178,0-0.438-0.218-0.556-0.361
				c-0.138-0.177-0.37-0.246-0.583-0.168c-0.211,0.072-0.352,0.271-0.352,0.494c0,1.844,1.306,2.477,2.259,2.94
				c0.7,0.34,1.008,0.521,1.008,0.828c0,0.29,0.235,0.524,0.524,0.524c0.29,0,0.525-0.234,0.525-0.524
				c0-0.308,0.306-0.488,1.007-0.828c0.953-0.464,2.258-1.097,2.258-2.94C327.946,76.776,327.805,76.579,327.596,76.504z
				 M324.156,69.884c0.224,0,0.403,0.181,0.403,0.403c0,0.222-0.18,0.401-0.403,0.401c-0.223,0-0.403-0.18-0.403-0.401
				C323.752,70.064,323.933,69.884,324.156,69.884z"/>
			<path fill="#003A5D" d="M321.741,73.979c-0.046,0-0.094-0.005-0.141-0.019c-0.278-0.077-0.442-0.365-0.366-0.644
				c0-0.003,0.059-0.219,0.059-0.455c0-0.235-0.059-0.453-0.059-0.455c-0.076-0.279,0.088-0.567,0.366-0.646
				c0.282-0.071,0.566,0.085,0.646,0.365c0.01,0.035,0.097,0.357,0.097,0.735s-0.087,0.701-0.097,0.736
				C322.18,73.829,321.969,73.979,321.741,73.979z"/>
		</g>
		<g>
			<path fill="#E7E1D1" d="M153.985,52.715h140.032c-1.057-1.264-2.48-2.746-4.139-4.337H149.647L153.985,52.715z"/>
			<path fill="#E7E1D1" d="M145.681,44.412h139.857c-1.675-1.467-3.427-2.938-5.155-4.338H141.344L145.681,44.412z"/>
			<path fill="#E7E1D1" d="M137.378,36.108h137.895c-2.845-2.105-5.27-3.704-6.694-4.337H133.041L137.378,36.108z"/>
		</g>
		<polygon fill="#003A5D" points="116.52,15.25 145.681,15.25 116.923,0 101.27,0 		"/>
		<polygon fill="#003A5D" points="84.159,15.25 68.296,15.25 64.084,0 68.909,0 		"/>
	</g>
</g>
<g id="Layer_2">
</g>
</svg>
