<?xml version="1.0" encoding="utf-8"?>
<!-- Generator: Adobe Illustrator 15.0.0, SVG Export Plug-In . SVG Version: 6.00 Build 0)  -->
<!DOCTYPE svg PUBLIC "-//W3C//DTD SVG 1.1//EN" "http://www.w3.org/Graphics/SVG/1.1/DTD/svg11.dtd">
<svg version="1.1" id="Layer_1" xmlns="http://www.w3.org/2000/svg" xmlns:xlink="http://www.w3.org/1999/xlink" x="0px" y="0px"
	 width="325.862px" height="300.334px" viewBox="0 0 325.862 300.334" enable-background="new 0 0 325.862 300.334"
	 xml:space="preserve">
<g>
	<defs>
		<rect id="SVGID_1_" width="325.862" height="300.334"/>
	</defs>
	<clipPath id="SVGID_2_">
		<use xlink:href="#SVGID_1_"  overflow="visible"/>
	</clipPath>
	<path clip-path="url(#SVGID_2_)" fill="#003A5D" d="M301.508,161.131v127.203c0,6.6-5.4,12-12,12H34.844c-6.6,0-12-5.4-12-12
		V161.131H301.508z"/>
	<path clip-path="url(#SVGID_2_)" fill="#2C5D7B" d="M301.508,160.647V274.5c0,6.6-5.4,12-12,12H34.844c-6.6,0-12-5.4-12-12V160.647
		H301.508z"/>
	<rect x="37.917" y="179.87" clip-path="url(#SVGID_2_)" fill="#003A5D" width="247.75" height="96"/>
	<path clip-path="url(#SVGID_2_)" fill="#3C7591" d="M231.618,268.5H91.507c-3.3,0-6-2.7-6-6v-3.107c0-3.3,2.7-6,6-6h140.111
		c3.3,0,6,2.7,6,6v3.107C237.618,265.8,234.918,268.5,231.618,268.5"/>
	<path clip-path="url(#SVGID_2_)" fill="#3C7591" d="M73.139,201.139H69.92c-3.3,0-6-2.7-6-6v-3.22c0-3.3,2.7-6,6-6h3.219
		c3.3,0,6,2.7,6,6v3.22C79.139,198.438,76.438,201.139,73.139,201.139"/>
	<path clip-path="url(#SVGID_2_)" fill="#3C7591" d="M256.569,201.139h-3.219c-3.3,0-6-2.7-6-6v-3.22c0-3.3,2.7-6,6-6h3.219
		c3.3,0,6,2.7,6,6v3.22C262.569,198.438,259.869,201.139,256.569,201.139"/>
	<path clip-path="url(#SVGID_2_)" fill="#3C7591" d="M96.067,201.139h-3.219c-3.3,0-6-2.7-6-6v-3.22c0-3.3,2.7-6,6-6h3.219
		c3.3,0,6,2.7,6,6v3.22C102.067,198.438,99.368,201.139,96.067,201.139"/>
	<path clip-path="url(#SVGID_2_)" fill="#3C7591" d="M118.997,201.139h-3.219c-3.3,0-6-2.7-6-6v-3.22c0-3.3,2.7-6,6-6h3.219
		c3.3,0,6,2.7,6,6v3.22C124.997,198.438,122.296,201.139,118.997,201.139"/>
	<path clip-path="url(#SVGID_2_)" fill="#3C7591" d="M141.925,201.139h-3.219c-3.3,0-6-2.7-6-6v-3.22c0-3.3,2.7-6,6-6h3.219
		c3.3,0,6,2.7,6,6v3.22C147.925,198.438,145.225,201.139,141.925,201.139"/>
	<path clip-path="url(#SVGID_2_)" fill="#3C7591" d="M164.854,201.139h-3.219c-3.3,0-6-2.7-6-6v-3.22c0-3.3,2.7-6,6-6h3.219
		c3.3,0,6,2.7,6,6v3.22C170.854,198.438,168.154,201.139,164.854,201.139"/>
	<path clip-path="url(#SVGID_2_)" fill="#3C7591" d="M187.783,201.139h-3.219c-3.301,0-6-2.7-6-6v-3.22c0-3.3,2.699-6,6-6h3.219
		c3.3,0,6,2.7,6,6v3.22C193.783,198.438,191.083,201.139,187.783,201.139"/>
	<path clip-path="url(#SVGID_2_)" fill="#3C7591" d="M210.712,201.139h-3.219c-3.3,0-6-2.7-6-6v-3.22c0-3.3,2.7-6,6-6h3.219
		c3.3,0,6,2.7,6,6v3.22C216.712,198.438,214.012,201.139,210.712,201.139"/>
	<path clip-path="url(#SVGID_2_)" fill="#3C7591" d="M233.641,201.139h-3.219c-3.3,0-6-2.7-6-6v-3.22c0-3.3,2.7-6,6-6h3.219
		c3.3,0,6,2.7,6,6v3.22C239.641,198.438,236.94,201.139,233.641,201.139"/>
	<path clip-path="url(#SVGID_2_)" fill="#3C7591" d="M59.751,224.009h-3.219c-3.3,0-6-2.7-6-6v-3.219c0-3.301,2.7-6,6-6h3.219
		c3.3,0,6,2.699,6,6v3.219C65.751,221.309,63.051,224.009,59.751,224.009"/>
	<path clip-path="url(#SVGID_2_)" fill="#3C7591" d="M243.182,224.009h-3.219c-3.301,0-6-2.7-6-6v-3.219c0-3.301,2.699-6,6-6h3.219
		c3.3,0,6,2.699,6,6v3.219C249.182,221.309,246.481,224.009,243.182,224.009"/>
	<path clip-path="url(#SVGID_2_)" fill="#3C7591" d="M82.68,224.009H79.46c-3.3,0-6-2.7-6-6v-3.219c0-3.301,2.7-6,6-6h3.219
		c3.3,0,6,2.699,6,6v3.219C88.68,221.309,85.979,224.009,82.68,224.009"/>
	<path clip-path="url(#SVGID_2_)" fill="#3C7591" d="M105.608,224.009h-3.219c-3.3,0-6-2.7-6-6v-3.219c0-3.301,2.7-6,6-6h3.219
		c3.3,0,6,2.699,6,6v3.219C111.608,221.309,108.909,224.009,105.608,224.009"/>
	<path clip-path="url(#SVGID_2_)" fill="#3C7591" d="M128.538,224.009h-3.219c-3.3,0-6-2.7-6-6v-3.219c0-3.301,2.7-6,6-6h3.219
		c3.3,0,6,2.699,6,6v3.219C134.538,221.309,131.837,224.009,128.538,224.009"/>
	<path clip-path="url(#SVGID_2_)" fill="#3C7591" d="M151.466,224.009h-3.219c-3.3,0-6-2.7-6-6v-3.219c0-3.301,2.7-6,6-6h3.219
		c3.3,0,6,2.699,6,6v3.219C157.466,221.309,154.766,224.009,151.466,224.009"/>
	<path clip-path="url(#SVGID_2_)" fill="#3C7591" d="M174.396,224.009h-3.22c-3.3,0-6-2.7-6-6v-3.219c0-3.301,2.7-6,6-6h3.22
		c3.3,0,6,2.699,6,6v3.219C180.396,221.309,177.695,224.009,174.396,224.009"/>
	<path clip-path="url(#SVGID_2_)" fill="#3C7591" d="M197.324,224.009h-3.22c-3.3,0-6-2.7-6-6v-3.219c0-3.301,2.7-6,6-6h3.22
		c3.3,0,6,2.699,6,6v3.219C203.324,221.309,200.624,224.009,197.324,224.009"/>
	<path clip-path="url(#SVGID_2_)" fill="#3C7591" d="M220.253,224.009h-3.219c-3.301,0-6-2.7-6-6v-3.219c0-3.301,2.699-6,6-6h3.219
		c3.3,0,6,2.699,6,6v3.219C226.253,221.309,223.553,224.009,220.253,224.009"/>
	<path clip-path="url(#SVGID_2_)" fill="#3C7591" d="M73.139,245.696H69.92c-3.3,0-6-2.699-6-6v-3.219c0-3.3,2.7-6,6-6h3.219
		c3.3,0,6,2.7,6,6v3.219C79.139,242.997,76.438,245.696,73.139,245.696"/>
	<path clip-path="url(#SVGID_2_)" fill="#3C7591" d="M256.569,245.696h-3.219c-3.3,0-6-2.699-6-6v-3.219c0-3.3,2.7-6,6-6h3.219
		c3.3,0,6,2.7,6,6v3.219C262.569,242.997,259.869,245.696,256.569,245.696"/>
	<path clip-path="url(#SVGID_2_)" fill="#3C7591" d="M96.067,245.696h-3.219c-3.3,0-6-2.699-6-6v-3.219c0-3.3,2.7-6,6-6h3.219
		c3.3,0,6,2.7,6,6v3.219C102.067,242.997,99.368,245.696,96.067,245.696"/>
	<path clip-path="url(#SVGID_2_)" fill="#3C7591" d="M118.997,245.696h-3.219c-3.3,0-6-2.699-6-6v-3.219c0-3.3,2.7-6,6-6h3.219
		c3.3,0,6,2.7,6,6v3.219C124.997,242.997,122.296,245.696,118.997,245.696"/>
	<path clip-path="url(#SVGID_2_)" fill="#3C7591" d="M141.925,245.696h-3.219c-3.3,0-6-2.699-6-6v-3.219c0-3.3,2.7-6,6-6h3.219
		c3.3,0,6,2.7,6,6v3.219C147.925,242.997,145.225,245.696,141.925,245.696"/>
	<path clip-path="url(#SVGID_2_)" fill="#3C7591" d="M164.854,245.696h-3.219c-3.3,0-6-2.699-6-6v-3.219c0-3.3,2.7-6,6-6h3.219
		c3.3,0,6,2.7,6,6v3.219C170.854,242.997,168.154,245.696,164.854,245.696"/>
	<path clip-path="url(#SVGID_2_)" fill="#3C7591" d="M187.783,245.696h-3.219c-3.301,0-6-2.699-6-6v-3.219c0-3.3,2.699-6,6-6h3.219
		c3.3,0,6,2.7,6,6v3.219C193.783,242.997,191.083,245.696,187.783,245.696"/>
	<path clip-path="url(#SVGID_2_)" fill="#3C7591" d="M210.712,245.696h-3.219c-3.3,0-6-2.699-6-6v-3.219c0-3.3,2.7-6,6-6h3.219
		c3.3,0,6,2.7,6,6v3.219C216.712,242.997,214.012,245.696,210.712,245.696"/>
	<path clip-path="url(#SVGID_2_)" fill="#3C7591" d="M233.641,245.696h-3.219c-3.3,0-6-2.699-6-6v-3.219c0-3.3,2.7-6,6-6h3.219
		c3.3,0,6,2.7,6,6v3.219C239.641,242.997,236.94,245.696,233.641,245.696"/>
	<path clip-path="url(#SVGID_2_)" fill="#3C7591" d="M265.552,224.009h-3.219c-3.3,0-6-2.7-6-6v-3.219c0-3.301,2.7-6,6-6h3.219
		c3.301,0,6,2.699,6,6v3.219C271.552,221.309,268.853,224.009,265.552,224.009"/>
	<path clip-path="url(#SVGID_2_)" fill="#005677" d="M303.059,122.865H21.803c-6.6,0-12-5.4-12-12V65.181c0-6.6,5.4-12,12-12
		h281.255c6.6,0,12,5.4,12,12v45.684C315.059,117.465,309.658,122.865,303.059,122.865"/>
	<path clip-path="url(#SVGID_2_)" fill="#003A5D" d="M315.059,65.31h-38.23v24.576h-88.72h0.2v8.458c0,3.85-3.15,7-7,7h-38.864
		c-3.85,0-7-3.15-7-7v-8.458H46.909V65.31H9.803v44.431h96.888l-15.689,14.284c1.227,1.199,30.523,29.381,70.775,29.381
		c40.339,0,69.821-28.177,71.057-29.377L217.26,109.74h97.799V65.31z"/>
	<path clip-path="url(#SVGID_2_)" fill="#2C5D7B" d="M223.297,128.195l1.088-1.031l-14.673-15.474
		c2.495-2.414,4.701-5.008,4.886-5.256l-6.807-5.915c-0.144,0.191-15.938,20.58-46.014,20.58c-29.146,0-46.282-20.385-46.443-20.58
		l-7.167,5.736c0.214,0.264,2.973,3.187,5.919,5.838l-14.633,15.431l1.089,1.031l14.672-15.472c1.404,1.205,3.05,2.517,4.944,3.863
		l-12.862,16.072l1.17,0.938l12.928-16.154c1.583,1.075,3.315,2.159,5.202,3.216l-10.465,16.803l1.273,0.793l10.513-16.879
		c1.517,0.809,3.114,1.598,4.812,2.344l-8.187,17.98l1.365,0.621l8.205-18.019c1.891,0.784,3.884,1.515,5.983,2.171l-6.833,19.305
		l1.414,0.5l6.857-19.371c1.721,0.498,3.507,0.945,5.361,1.328l-4.484,20.5l1.466,0.321l4.493-20.541
		c1.78,0.329,3.618,0.597,5.515,0.798l-1.515,21.106l1.496,0.106l1.512-21.061c1.861,0.159,3.78,0.245,5.75,0.262v20.746h1.5
		v-20.749c2.013-0.022,3.968-0.112,5.858-0.273l1.487,20.714l1.496-0.107l-1.49-20.756c1.921-0.202,3.776-0.471,5.567-0.799
		l4.417,20.192l1.465-0.32l-4.407-20.151c1.877-0.385,3.678-0.834,5.406-1.334l6.735,19.028l1.414-0.5l-6.711-18.96
		c2.118-0.663,4.118-1.402,6.008-2.194l8.058,17.696l1.365-0.621l-8.043-17.663c1.714-0.764,3.317-1.571,4.832-2.399l10.349,16.617
		l1.273-0.793l-10.312-16.556c1.892-1.09,3.612-2.206,5.169-3.311l12.807,16.002l1.172-0.937l-12.761-15.946
		c1.884-1.403,3.493-2.761,4.839-3.994L223.297,128.195z"/>
	<path clip-path="url(#SVGID_2_)" fill="#2C5D7B" d="M161.777,154.405c-40.251,0-69.547-28.182-70.775-29.381l2.796-2.861
		c0.289,0.282,29.395,28.242,67.979,28.242c38.732,0,67.979-27.964,68.27-28.246l2.787,2.869
		C231.599,126.228,202.116,154.405,161.777,154.405"/>
	<path clip-path="url(#SVGID_2_)" fill="#3C7591" d="M289.508,96.405h-87.215l29.306,28.823
		c-1.235,1.201-29.482,28.177-69.822,28.177c-40.252,0-68.32-26.982-69.547-28.181l30.617-28.819H34.844c-6.6,0-12,5.4-12,12v52.244
		h278.664v-52.244C301.508,101.805,296.107,96.405,289.508,96.405"/>
	<polygon clip-path="url(#SVGID_2_)" fill="#3C7591" points="188.108,89.886 188.308,89.965 188.308,89.886 	"/>
	<path clip-path="url(#SVGID_2_)" fill="#6F96AB" d="M135.444,89.886v8.458c0,3.85,3.15,7,7,7h38.864c3.85,0,7-3.15,7-7v-8.458
		h-0.201h88.72V65.31V0H46.91V65.31v24.576H135.444z"/>
	<path clip-path="url(#SVGID_2_)" fill="#005677" d="M325.861,86.456v11.377c0,3.3-2.7,6-6,6h-4.803V86.456H325.861z"/>
	<path clip-path="url(#SVGID_2_)" fill="#3C7591" d="M315.059,86.456V70.385h4.803c3.301,0,6,2.7,6,6v10.071H315.059z"/>
	<path clip-path="url(#SVGID_2_)" fill="#3C7591" d="M9.804,85.456V72.399H6c-3.301,0-6,2.7-6,6v7.057H9.804z"/>
	<path clip-path="url(#SVGID_2_)" fill="#005677" d="M0,85.456v7.391c0,3.3,2.7,6,6,6h3.803V85.456H0z"/>
	<rect x="6.6" y="77.601" clip-path="url(#SVGID_2_)" fill="#3C7591" width="312.536" height="3.348"/>
	<path clip-path="url(#SVGID_2_)" fill="#005677" d="M75.5,83.201h-7.942c-1.1,0-2-0.9-2-2v-3.853c0-1.1,0.9-2,2-2H75.5
		c1.1,0,2,0.9,2,2v3.853C77.5,82.301,76.6,83.201,75.5,83.201"/>
	<path clip-path="url(#SVGID_2_)" fill="#005677" d="M254.553,83.201h-7.942c-1.1,0-2-0.9-2-2v-3.853c0-1.1,0.9-2,2-2h7.942
		c1.1,0,2,0.9,2,2v3.853C256.553,82.301,255.652,83.201,254.553,83.201"/>
</g>
</svg>
