<?xml version="1.0" encoding="utf-8"?>
<!-- Generator: Adobe Illustrator 16.0.0, SVG Export Plug-In . SVG Version: 6.00 Build 0)  -->
<!DOCTYPE svg PUBLIC "-//W3C//DTD SVG 1.1//EN" "http://www.w3.org/Graphics/SVG/1.1/DTD/svg11.dtd">
<svg version="1.1" id="Layer_1" xmlns="http://www.w3.org/2000/svg" xmlns:xlink="http://www.w3.org/1999/xlink" x="0px" y="0px"
	 width="434.667px" height="127px" viewBox="0 0 434.667 127" enable-background="new 0 0 434.667 127" xml:space="preserve">
<g>
	<path fill="#003A5D" d="M430.359,74.002c-1.828-0.417-3.646,0.729-4.062,2.556c-2.088,9.161-8.623,17.198-13.984,17.198
		c-1.332,0-2.369-0.545-3.266-1.712c-1.975-2.571-3.398-8.858-0.918-18.111c3.406-12.717,11.744-21.58,17.096-21.58
		c0.4,0,0.643,0.884,0.686,1.061c0.928,3.709-1.99,11.938-13.77,18.219c-1.654,0.883-2.279,2.938-1.396,4.592
		c0.881,1.654,2.938,2.283,4.592,1.397c14.322-7.638,18.936-18.756,17.16-25.855c-0.955-3.826-3.742-6.202-7.271-6.202
		c-9.266,0-19.656,11.689-23.654,26.61c-2.645,9.876-1.863,18.848,2.092,24.001c2.16,2.816,5.232,4.367,8.65,4.367
		c9.689,0,18.084-11.428,20.602-22.478C433.332,76.239,432.187,74.418,430.359,74.002z"/>
	<path fill="#003A5D" d="M421.216,106.071c-39.535,17.717-101.994,10.121-147.6,4.576l-3.162-0.384
		c-2.92-0.354-5.779-0.699-8.568-1.028c-1.867-0.223-3.549,1.112-3.768,2.973c-0.221,1.862,1.111,3.549,2.973,3.769
		c2.783,0.329,5.635,0.673,8.547,1.026l3.16,0.383c24.414,2.971,53.572,6.516,81.738,6.516c25.355,0,49.91-2.876,69.455-11.635
		c1.711-0.768,2.475-2.775,1.709-4.486C424.935,106.071,422.925,105.305,421.216,106.071z"/>
	<path fill="#003A5D" d="M98.325,96.823c-18.869,1.458-35.392,4.529-49.111,9.127c-1.777,0.596-2.735,2.52-2.139,4.297
		c0.476,1.42,1.798,2.316,3.217,2.316c0.358,0,0.721-0.057,1.08-0.177c13.19-4.421,29.164-7.38,47.477-8.796
		c1.869-0.145,3.267-1.776,3.123-3.645C101.826,98.077,100.185,96.668,98.325,96.823z"/>
	<path fill="#003A5D" d="M196.927,101.251c-5.808-0.882-17.825-2.546-33.06-3.793c-1.868-0.151-3.506,1.237-3.66,3.106
		c-0.153,1.867,1.238,3.506,3.106,3.659c15.032,1.229,26.874,2.87,32.595,3.737c0.172,0.027,0.344,0.039,0.513,0.039
		c1.649,0,3.096-1.205,3.352-2.885C200.055,103.262,198.781,101.532,196.927,101.251z"/>
	<path fill="#003A5D" d="M69.3,10.428c0.166-0.984-0.111-1.992-0.756-2.753c-0.645-0.762-1.592-1.202-2.591-1.202
		c-14.503,0-26.73,7.825-34.428,22.034c-7.755,14.315-9.204,32.622-3.299,41.679c1.024,1.57,3.126,2.014,4.697,0.988
		c1.57-1.023,2.013-3.127,0.989-4.697c-4.02-6.163-3.54-21.592,3.582-34.737c3.408-6.292,10.916-16.47,24.378-18.219
		c-7.138,39.603-24.473,98.007-43.609,98.007c-2.96,0-5.149-0.938-6.693-2.867c-4.629-5.785-2.96-18.98-1.927-23.574
		c0.415-1.829-0.732-3.646-2.56-4.061c-1.828-0.418-3.646,0.731-4.061,2.561c-0.044,0.197-1.097,4.899-1.295,10.719
		c-0.279,8.217,1.246,14.471,4.535,18.587c2.834,3.548,6.984,5.423,12.001,5.423c14.137,0,27.046-18.476,38.369-54.914
		C64.768,37.222,69.256,10.693,69.3,10.428z"/>
	<circle fill="#003A5D" cx="365.457" cy="44.515" r="4.669"/>
	<path fill="#003A5D" d="M156.083,75.012c-1.869-0.046-3.439,1.414-3.497,3.287c-0.507,16.547-12.264,27.664-22.925,27.664
		c-4.114,0-7.562-1.774-10.246-5.273c-6.467-8.428-7.495-24.82-2.683-42.781c7.235-27.001,25.998-49.812,40.971-49.812
		c4.645,0,7.817,1.455,9.698,4.445c3.468,5.518,2.092,15.979-1.241,22.905c-0.813,1.689-0.103,3.717,1.586,4.531
		c1.688,0.811,3.717,0.102,4.53-1.587c5.776-12.004,4.5-23.687,0.871-29.46c-2.186-3.478-6.639-7.621-15.445-7.621
		c-16.944,0-35.964,20.413-45.312,47.639c-2.818,1.583-5.35,2.07-7.527,1.417c-3.618-1.081-5.52-4.956-5.529-4.975
		c-0.77-1.654-2.71-2.406-4.391-1.697c-1.683,0.706-2.505,2.616-1.863,4.323c1.525,4.057,1.421,10.038-0.287,16.411
		c-3.522,13.146-12.162,22.307-17.712,22.307c-1.406,0-2.501-0.572-3.445-1.803c-2.696-3.514-3.075-10.873-0.965-18.747
		c3.522-13.146,12.162-22.308,17.712-22.308c1.875,0,3.394-1.52,3.394-3.394s-1.52-3.394-3.394-3.394
		c-9.501,0-20.162,12.009-24.27,27.339c-2.717,10.142-1.919,19.352,2.136,24.636c2.207,2.876,5.343,4.46,8.831,4.46
		c9.501,0,20.161-12.009,24.27-27.34c0.94-3.507,1.464-6.91,1.572-10.086c0.599,0.287,1.235,0.539,1.909,0.745
		c4.233,1.297,8.794,0.505,13.553-2.355c0.104-0.063,0.191-0.143,0.287-0.214l0.014,0.011c-1.914,2.348-5.237,3.808-7.166,4.501
		c-4.618,19.191-2.99,36.265,4.508,46.037c3.98,5.187,9.386,7.928,15.632,7.928c15.536,0,29.141-15.682,29.71-34.242
		C159.428,76.633,157.956,75.069,156.083,75.012z"/>
	<path fill="#003A5D" d="M253.248,87.526c-1.893-0.033-3.439,1.416-3.498,3.289c-0.506,16.547-12.262,27.662-22.924,27.662
		c-4.115,0-7.562-1.773-10.247-5.272c-6.467-8.427-7.495-24.821-2.682-42.781c7.235-27,25.997-49.811,40.97-49.811
		c4.646,0,7.818,1.454,9.699,4.446c3.467,5.517,2.092,15.977-1.242,22.903c-0.812,1.688-0.102,3.717,1.588,4.531
		c1.688,0.811,3.717,0.102,4.529-1.587c5.775-12.003,4.5-23.685,0.871-29.459c-2.186-3.476-6.639-7.621-15.445-7.621
		c-14.148,0-29.748,14.233-39.954,34.78c-2.787,1.547-5.292,2.021-7.449,1.375c-3.618-1.082-5.52-4.956-5.529-4.975
		c-0.77-1.654-2.708-2.402-4.392-1.697c-1.682,0.707-2.505,2.616-1.862,4.324c1.525,4.056,1.421,10.037-0.287,16.409
		c-3.522,13.146-12.161,22.308-17.712,22.308c-1.407,0-2.501-0.573-3.445-1.803c-2.696-3.514-3.075-10.872-0.964-18.747
		c3.522-13.146,12.162-22.308,17.712-22.308c1.875,0,3.394-1.52,3.394-3.394s-1.52-3.394-3.394-3.394
		c-9.501,0-20.161,12.008-24.269,27.338c-2.717,10.143-1.919,19.352,2.136,24.637c2.207,2.876,5.342,4.459,8.831,4.459
		c9.501,0,20.161-12.009,24.269-27.338c0.94-3.509,1.464-6.91,1.573-10.086c0.6,0.287,1.235,0.539,1.909,0.745
		c4.04,1.237,8.381,0.55,12.905-1.999c-2.383,2.649-6.505,4.095-7.903,4.526c-1.163,3.138-2.206,6.369-3.094,9.684
		c-5.428,20.258-3.987,38.451,3.854,48.67c3.98,5.188,9.386,7.93,15.632,7.93c15.535,0,29.141-15.682,29.709-34.243
		C256.593,89.149,255.121,87.583,253.248,87.526z"/>
	<path fill="#003A5D" d="M283.347,41.656c-0.053,0.106-0.107,0.21-0.15,0.322c-0.012,0.028-0.029,0.053-0.039,0.082
		c-0.377,1.066-0.691,2.415-0.834,3.909c-3.047,14.22-10.811,43.424-19.9,51.761c-1.381,1.268-1.475,3.414-0.207,4.795
		c0.67,0.73,1.584,1.1,2.502,1.1c0.82,0,1.643-0.295,2.293-0.893c8.494-7.79,15.102-28.188,18.943-42.808
		c-1.115-1.383-2.609-3.773-2.73-6.696c1.154,3.011,3.457,5.85,7.617,7.692c4.301,1.904,6.67,2.954,2.242,13.89
		c-3.48,8.596-6.637,18.213-3.66,24.361c1.219,2.521,3.377,4.297,6.24,5.135c0.844,0.247,1.795,0.412,2.834,0.412
		c3.264,0,7.387-1.627,11.697-7.434c0.967-1.303,1.803-2.633,2.5-3.842c-0.631,3.34-2.016,5.893-2.789,7.117
		c0.137,0.314,0.273,0.627,0.432,0.92c1.504,2.803,3.873,4.63,6.852,5.283c0.785,0.172,1.559,0.258,2.324,0.258
		c4.629,0,8.893-3.156,12.746-9.406c0.605,4.638,2.141,8.051,4.637,10.266c0.646,0.572,1.451,0.854,2.252,0.854
		c0.936,0,1.869-0.386,2.539-1.142c1.244-1.402,1.117-3.547-0.285-4.791c-5.918-5.25-0.869-29.267,4.607-44.642
		c0.629-1.766-0.293-3.708-2.059-4.336c-1.768-0.63-3.707,0.292-4.336,2.058c-0.115,0.321-2.266,6.402-4.264,14.343
		c-0.104,0.222-0.189,0.456-0.244,0.706c-0.018,0.084-1.865,8.441-5.215,16.363c-3.764,8.902-7.861,13.58-11.248,12.838
		c-1.039-0.227-1.758-0.803-2.326-1.861c-3.891-7.246,2.15-29.303,6.871-41.504c0.676-1.748-0.191-3.713-1.939-4.39
		c-1.748-0.675-3.713,0.19-4.391,1.939c-0.959,2.477-7.053,18.651-8.297,32.338c-1.852,4.25-6.861,12.353-10.992,11.137
		c-1.316-0.385-1.779-1.044-2.037-1.577c-2.064-4.266,2.383-15.248,3.844-18.857c4.256-10.514,4.771-17.968-5.787-22.644
		c-4.111-1.821-4.734-5.2-4.562-7.662c0.385-1.799,0.611-2.946,0.662-3.217c0.006-0.032,0.004-0.063,0.01-0.095
		c0.02-0.124,0.027-0.246,0.033-0.37c0.006-0.103,0.014-0.205,0.01-0.306c-0.004-0.115-0.021-0.227-0.037-0.34
		c-0.014-0.107-0.027-0.213-0.051-0.317c-0.025-0.105-0.062-0.205-0.098-0.307c-0.035-0.104-0.068-0.209-0.113-0.309
		c-0.045-0.098-0.1-0.189-0.154-0.282c-0.055-0.094-0.105-0.189-0.168-0.278c-0.062-0.089-0.137-0.169-0.207-0.252
		c-0.072-0.082-0.139-0.166-0.219-0.24c-0.076-0.073-0.162-0.136-0.244-0.203c-0.092-0.072-0.18-0.144-0.279-0.206
		c-0.084-0.054-0.176-0.097-0.266-0.143c-0.111-0.057-0.221-0.114-0.34-0.16c-0.027-0.01-0.051-0.027-0.078-0.037
		c-0.078-0.028-0.16-0.037-0.238-0.059c-0.084-0.023-0.162-0.058-0.246-0.074c-0.031-0.005-0.059-0.003-0.088-0.008
		c-0.133-0.022-0.264-0.028-0.395-0.035c-0.09-0.004-0.18-0.013-0.268-0.01c-0.141,0.004-0.275,0.024-0.412,0.046
		c-0.08,0.013-0.162,0.02-0.24,0.038c-0.137,0.032-0.268,0.078-0.396,0.125c-0.074,0.027-0.15,0.049-0.223,0.081
		c-0.125,0.056-0.242,0.126-0.361,0.197c-0.068,0.041-0.139,0.077-0.205,0.123c-0.107,0.075-0.205,0.163-0.305,0.251
		c-0.066,0.058-0.133,0.112-0.195,0.176c-0.082,0.086-0.154,0.183-0.229,0.279c-0.064,0.082-0.129,0.16-0.186,0.247
		C283.445,41.46,283.398,41.559,283.347,41.656z"/>
	<path fill="#003A5D" d="M357.388,110.297c7.549,0,14.715-9.085,22.555-28.588c1.201-2.984,2.307-5.955,3.307-8.776
		c-0.494-1.795-1.191-5.177-0.758-8.653c0.748,4.421,2.402,9.961,5.828,16.266c6.328,11.654,3.467,17.334,2.439,18.799
		c-1.088,1.548-2.68,2.328-4.256,2.09c-1.934-0.295-3.543-2.029-4.416-4.756c-0.572-1.786-2.48-2.768-4.268-2.199
		c-1.785,0.572-2.77,2.482-2.197,4.268c1.662,5.197,5.348,8.711,9.859,9.398c0.525,0.08,1.051,0.119,1.574,0.119
		c3.576,0,7.021-1.836,9.258-5.019c2.043-2.911,5.939-11.267-2.029-25.939c-7.221-13.295-5.348-22.349-5.305-22.542
		c0.023-0.099,0.025-0.196,0.039-0.295c0.016-0.112,0.039-0.223,0.045-0.334c0.004-0.113-0.008-0.224-0.014-0.335
		c-0.006-0.11-0.004-0.22-0.021-0.328c-0.018-0.11-0.049-0.215-0.076-0.321c-0.027-0.105-0.047-0.211-0.084-0.312
		s-0.088-0.196-0.133-0.293c-0.047-0.099-0.088-0.2-0.145-0.294c-0.053-0.09-0.119-0.171-0.182-0.256
		c-0.066-0.091-0.127-0.185-0.201-0.269c-0.068-0.077-0.148-0.143-0.225-0.213c-0.084-0.079-0.164-0.161-0.256-0.231
		c-0.082-0.063-0.176-0.113-0.266-0.168c-0.1-0.062-0.193-0.128-0.301-0.18c-0.096-0.047-0.203-0.078-0.305-0.116
		c-0.1-0.037-0.193-0.085-0.297-0.113c-0.014-0.004-0.027-0.003-0.041-0.007c-0.012-0.003-0.023-0.009-0.035-0.012
		c-0.09-0.022-0.178-0.023-0.268-0.038c-0.127-0.021-0.254-0.047-0.381-0.053c-0.09-0.004-0.176,0.007-0.264,0.01
		c-0.135,0.004-0.271,0.004-0.404,0.025c-0.08,0.012-0.154,0.037-0.23,0.055c-0.137,0.031-0.275,0.06-0.406,0.107
		c-0.072,0.026-0.137,0.063-0.207,0.094c-0.129,0.057-0.26,0.111-0.381,0.184c-0.068,0.041-0.127,0.092-0.193,0.137
		c-0.111,0.078-0.227,0.153-0.328,0.245c-0.068,0.06-0.123,0.13-0.186,0.195c-0.088,0.092-0.18,0.18-0.258,0.283
		c-0.062,0.082-0.111,0.175-0.166,0.264c-0.062,0.099-0.129,0.193-0.182,0.3c-0.051,0.104-0.084,0.216-0.123,0.326
		c-0.035,0.094-0.08,0.182-0.107,0.28c-0.035,0.13-3.572,13.184-8.754,26.077c-9.311,23.159-15.176,24.332-16.258,24.332
		c-0.904,0-1.277-0.283-1.619-0.771c-2.363-3.399-1.543-19.362,7.68-44.209c0.652-1.758-0.244-3.711-2-4.364
		c-1.76-0.65-3.711,0.243-4.363,2c-2.439,6.569-14.24,39.876-6.889,50.446C351.873,109.022,354.361,110.297,357.388,110.297z"/>
</g>
</svg>
